<?xml version="1.0" encoding="UTF-8" standalone="no"?>
<svg
   xmlns:dc="http://purl.org/dc/elements/1.1/"
   xmlns:cc="http://creativecommons.org/ns#"
   xmlns:rdf="http://www.w3.org/1999/02/22-rdf-syntax-ns#"
   xmlns:svg="http://www.w3.org/2000/svg"
   xmlns="http://www.w3.org/2000/svg"
   id="svg3815"
   version="1.1"
   width="24"
   height="24">
  <metadata
     id="metadata3821">
    <rdf:RDF>
      <cc:Work
         rdf:about="">
        <dc:format>image/svg+xml</dc:format>
        <dc:type
           rdf:resource="http://purl.org/dc/dcmitype/StillImage" />
        <dc:title></dc:title>
      </cc:Work>
    </rdf:RDF>
  </metadata>
  <defs
     id="defs3819" />
  <path
     id="path3791"
     stroke-linejoin="round"
     stroke="#727272"
     fill-rule="evenodd"
     fill="#fff"
     d="M1.5 21.5h21V7.664l-5-5.164h-16z" />
  <path
     id="path3793"
     fill-opacity=".44"
     fill="#7399ec"
     d="M3.949 4h12.994v.998H3.949zM3 19.002h18V20H3z" />
  <path
     id="path3795"
     stroke-linejoin="round"
     stroke="#727272"
     fill-rule="evenodd"
     fill="#f0f0f0"
     d="M22.5 7.514h-5v-5z" />
  <path
     id="path3805"
     stroke-linecap="square"
     stroke="#d4aa00"
     fill="#ffe680"
     d="M3.498 3.51V22.5h4.016V8.561l4.96.036v-5.05l-4.96-.036z" />
  <path
     id="path3807"
     fill-opacity=".647"
     fill="#d4aa00"
     d="M4.027 3.574L8 7.014l-.85.766-3.972-3.44z" />
  <path
     id="path3809"
     fill="#b29000"
     d="M3 8.014h3v1H3zm0 2h3v1H3zm0 2h3v1H3zm0 2h3v1H3zm0 2h3v1H3z" />
  <path
     style="fill:#7399ec;fill-opacity:0.43999999;stroke-width:1.25288224"
     id="path3811"
     d="M 21,19.002 V 8.014 h -1 v 10.988 z" />
  <path
     id="path3813"
     fill="#b29000"
     d="M3.024 18.006h3v1h-3z" />
  <path
     id="rect828-1"
     d="m 8.8010299,14.918774 5.3950871,5.395087 5.395319,-5.395319 -5.395087,-5.3950907 z m 2.6901841,-7.5e-4 2.702973,-2.70297 2.70274,2.702737 -2.702972,2.702973 z"
     style="opacity:1;fill:#c00f00;fill-opacity:1;stroke:none;stroke-width:0.18679897;stroke-miterlimit:4;stroke-dasharray:none;stroke-dashoffset:0;stroke-opacity:1" />
</svg>
