<?xml version="1.0" encoding="UTF-8" standalone="no"?>
<svg
   xmlns:dc="http://purl.org/dc/elements/1.1/"
   xmlns:cc="http://creativecommons.org/ns#"
   xmlns:rdf="http://www.w3.org/1999/02/22-rdf-syntax-ns#"
   xmlns:svg="http://www.w3.org/2000/svg"
   xmlns="http://www.w3.org/2000/svg"
   viewBox="0 0 996.37335 96.973335"
   height="96.973335"
   width="996.37335"
   xml:space="preserve"
   id="svg2"
   version="1.1"><metadata
     id="metadata8"><rdf:RDF><cc:Work
         rdf:about=""><dc:format>image/svg+xml</dc:format><dc:type
           rdf:resource="http://purl.org/dc/dcmitype/StillImage" /><dc:title></dc:title></cc:Work></rdf:RDF></metadata><defs
     id="defs6" /><g
     transform="matrix(1.3333333,0,0,-1.3333333,0,96.973333)"
     id="g10"><g
       transform="scale(0.1)"
       id="g12"><path
         id="path14"
         style="fill:#ffffff;fill-opacity:1;fill-rule:nonzero;stroke:none"
         d="M 1230,22.2656 H 0 V 727.266 H 1230 V 22.2656" /><path
         id="path16"
         style="fill:#ed1c24;fill-opacity:1;fill-rule:nonzero;stroke:none"
         d="M 311.813,303.227 H 151.797 v 137.156 h 160.016 l -0.012,0.086 V 600.484 H 448.953 V 440.469 l -0.004,-0.063 H 608.965 V 303.254 H 448.949 l 0.004,0.023 V 143.262 H 311.801 v 160.015 l 0.012,-0.05" /><path
         id="path18"
         style="fill:#ed1c24;fill-opacity:1;fill-rule:nonzero;stroke:none"
         d="m 821.156,374.316 c 0,106.567 86.395,192.961 192.954,192.961 23.73,0 46.45,-4.293 67.44,-12.125 -39.46,31.231 -89.331,49.883 -143.57,49.883 -127.878,0 -231.55,-103.668 -231.55,-231.547 0,-127.883 103.672,-231.543 231.55,-231.543 56.047,0 107.45,19.91 147.5,53.051 -22.08,-8.793 -46.15,-13.637 -71.37,-13.637 -106.559,0 -192.954,86.395 -192.954,192.957" /><path
         id="path20"
         style="fill:none;stroke:#ed1c24;stroke-width:20;stroke-linecap:butt;stroke-linejoin:miter;stroke-miterlimit:4;stroke-dasharray:none;stroke-opacity:1"
         d="M 1180.43,69.8242 V 674.066 H 53.7383 V 69.8242 Z" /><path
         id="path22"
         style="fill:#231f20;fill-opacity:1;fill-rule:nonzero;stroke:none"
         d="m 1383.68,450.961 h -31.29 V 682.559 H 1512.7 V 654.82 h -129.02 v -70.961 h 113.54 V 556.117 H 1383.68 V 450.961" /><path
         id="path24"
         style="fill:#231f20;fill-opacity:1;fill-rule:nonzero;stroke:none"
         d="m 1657.53,687.719 h -34.83 l -28.71,-45.477 h 21.61 z m -3.22,-183.856 c -0.97,-12.578 -16.78,-33.222 -43.55,-33.222 -32.58,0 -49.03,20.32 -49.03,55.476 h 123.22 c 0,59.676 -23.87,98.387 -72.58,98.387 -55.8,0 -80.96,-41.613 -80.96,-93.867 0,-48.707 28.06,-84.516 75.48,-84.516 27.09,0 38.06,6.453 45.81,11.613 21.28,14.196 29.02,38.063 30,46.129 z m -92.58,44.832 c 0,26.129 20.65,50.325 46.78,50.325 34.51,0 45.47,-24.196 47.09,-50.325 h -93.87" /><path
         id="path26"
         style="fill:#231f20;fill-opacity:1;fill-rule:nonzero;stroke:none"
         d="m 1865.27,682.559 h -28.39 v -86.766 h -0.64 c -6.78,9.676 -19.68,28.711 -50.32,28.711 -44.84,0 -70.32,-36.774 -70.32,-84.191 0,-40.321 16.77,-94.192 74.19,-94.192 16.45,0 35.8,5.164 48.06,28.063 h 0.65 v -23.223 h 26.77 z M 1744.95,535.797 c 0,21.609 2.26,63.223 46.13,63.223 40.96,0 45.48,-44.196 45.48,-71.614 0,-44.832 -28.06,-56.765 -46.13,-56.765 -30.96,0 -45.48,28.062 -45.48,65.156" /><path
         id="path28"
         style="fill:#231f20;fill-opacity:1;fill-rule:nonzero;stroke:none"
         d="m 2029.13,687.719 h -34.83 l -28.71,-45.477 h 21.61 z m -3.22,-183.856 c -0.97,-12.578 -16.78,-33.222 -43.55,-33.222 -32.58,0 -49.03,20.32 -49.03,55.476 h 123.22 c 0,59.676 -23.87,98.387 -72.58,98.387 -55.8,0 -80.96,-41.613 -80.96,-93.867 0,-48.707 28.06,-84.516 75.48,-84.516 27.1,0 38.06,6.453 45.8,11.613 21.29,14.196 29.04,38.063 30,46.129 z m -92.58,44.832 c 0,26.129 20.64,50.325 46.77,50.325 34.51,0 45.49,-24.196 47.1,-50.325 h -93.87" /><path
         id="path30"
         style="fill:#231f20;fill-opacity:1;fill-rule:nonzero;stroke:none"
         d="m 2129.13,450.961 h -28.39 v 168.703 h 26.77 v -28.066 h 0.65 c 11.29,19.675 26.13,32.906 47.42,32.906 3.55,0 5.16,-0.324 7.42,-0.973 V 594.18 h -10.65 c -26.45,0 -43.22,-20.645 -43.22,-45.16 v -98.059" /><path
         id="path32"
         style="fill:#231f20;fill-opacity:1;fill-rule:nonzero;stroke:none"
         d="m 2232.68,568.375 c 1.93,12.898 6.45,32.578 38.7,32.578 26.77,0 39.67,-9.68 39.67,-27.418 0,-16.773 -8.06,-19.355 -14.83,-20 l -46.77,-5.805 c -47.1,-5.804 -51.29,-38.707 -51.29,-52.902 0,-29.027 21.93,-48.707 52.9,-48.707 32.9,0 49.99,15.484 60.96,27.418 0.97,-12.898 4.84,-25.805 30,-25.805 6.45,0 10.65,1.938 15.48,3.227 v 20.644 c -3.22,-0.644 -6.77,-1.289 -9.35,-1.289 -5.81,0 -9.36,2.903 -9.36,10 v 97.09 c 0,43.223 -49.02,47.098 -62.57,47.098 -41.61,0 -68.38,-15.809 -69.67,-56.129 z m 77.73,-59.027 c 0,-22.578 -25.81,-39.676 -52.26,-39.676 -21.28,0 -30.64,10.969 -30.64,29.351 0,21.29 22.26,25.485 36.13,27.418 35.16,4.516 42.25,7.094 46.77,10.645 v -27.738" /><path
         id="path34"
         style="fill:#231f20;fill-opacity:1;fill-rule:nonzero;stroke:none"
         d="M 2428.15,596.113 V 486.445 c 0,-13.226 11.29,-13.226 17.09,-13.226 h 10 v -22.258 c -10.32,-0.965 -18.38,-2.254 -21.28,-2.254 -28.07,0 -34.19,15.805 -34.19,36.121 v 111.285 h -22.91 v 23.551 h 22.91 v 47.094 h 28.38 v -47.094 h 27.09 v -23.551 h -27.09" /><path
         id="path36"
         style="fill:#231f20;fill-opacity:1;fill-rule:nonzero;stroke:none"
         d="m 2490.08,650.305 v 32.254 h 28.39 v -32.254 z m 28.39,-199.344 h -28.39 v 168.703 h 28.39 V 450.961" /><path
         id="path38"
         style="fill:#231f20;fill-opacity:1;fill-rule:nonzero;stroke:none"
         d="m 2557.82,535.473 c 0,-43.543 24.51,-89.028 78.38,-89.028 53.87,0 78.38,45.485 78.38,89.028 0,43.547 -24.51,89.031 -78.38,89.031 -53.87,0 -78.38,-45.484 -78.38,-89.031 z m 29.35,0 c 0,22.578 8.39,64.511 49.03,64.511 40.64,0 49.03,-41.933 49.03,-64.511 0,-22.578 -8.39,-64.512 -49.03,-64.512 -40.64,0 -49.03,41.934 -49.03,64.512" /><path
         id="path40"
         style="fill:#231f20;fill-opacity:1;fill-rule:nonzero;stroke:none"
         d="m 2890.7,450.961 h -28.38 v 103.863 c 0,29.356 -8.39,44.196 -36.13,44.196 -16.13,0 -44.51,-10.325 -44.51,-56.129 v -91.93 h -28.38 v 168.703 h 26.77 v -23.871 h 0.64 c 6.13,9.031 21.94,28.711 50.96,28.711 26.13,0 59.03,-10.645 59.03,-58.707 V 450.961" /><path
         id="path42"
         style="fill:#231f20;fill-opacity:1;fill-rule:nonzero;stroke:none"
         d="m 3035.86,650.305 v 32.254 h 28.39 v -32.254 z m 28.39,-199.344 h -28.39 v 168.703 h 28.39 V 450.961" /><path
         id="path44"
         style="fill:#231f20;fill-opacity:1;fill-rule:nonzero;stroke:none"
         d="m 3250.68,450.961 h -28.38 v 103.863 c 0,29.356 -8.38,44.196 -36.13,44.196 -16.13,0 -44.51,-10.325 -44.51,-56.129 v -91.93 h -28.38 v 168.703 h 26.77 v -23.871 h 0.64 c 6.13,9.031 21.94,28.711 50.97,28.711 26.12,0 59.02,-10.645 59.02,-58.707 V 450.961" /><path
         id="path46"
         style="fill:#231f20;fill-opacity:1;fill-rule:nonzero;stroke:none"
         d="M 3333.91,596.113 V 486.445 c 0,-13.226 11.29,-13.226 17.1,-13.226 h 10 v -22.258 c -10.33,-0.965 -18.39,-2.254 -21.29,-2.254 -28.06,0 -34.19,15.805 -34.19,36.121 v 111.285 h -22.91 v 23.551 h 22.91 v 47.094 h 28.38 v -47.094 h 27.1 v -23.551 h -27.1" /><path
         id="path48"
         style="fill:#231f20;fill-opacity:1;fill-rule:nonzero;stroke:none"
         d="m 3510.03,503.863 c -0.97,-12.578 -16.77,-33.222 -43.55,-33.222 -32.57,0 -49.02,20.32 -49.02,55.476 h 123.21 c 0,59.676 -23.86,98.387 -72.57,98.387 -55.81,0 -80.97,-41.613 -80.97,-93.867 0,-48.707 28.07,-84.516 75.48,-84.516 27.1,0 38.07,6.453 45.81,11.613 21.29,14.196 29.03,38.063 30,46.129 z m -92.57,44.832 c 0,26.129 20.64,50.325 46.77,50.325 34.51,0 45.48,-24.196 47.09,-50.325 h -93.86" /><path
         id="path50"
         style="fill:#231f20;fill-opacity:1;fill-rule:nonzero;stroke:none"
         d="m 3613.25,450.961 h -28.38 v 168.703 h 26.77 v -28.066 h 0.65 c 11.28,19.675 26.12,32.906 47.41,32.906 3.55,0 5.16,-0.324 7.42,-0.973 V 594.18 h -10.64 c -26.45,0 -43.23,-20.645 -43.23,-45.16 v -98.059" /><path
         id="path52"
         style="fill:#231f20;fill-opacity:1;fill-rule:nonzero;stroke:none"
         d="m 3840.33,450.961 h -28.38 v 103.863 c 0,29.356 -8.39,44.196 -36.12,44.196 -16.13,0 -44.52,-10.325 -44.52,-56.129 v -91.93 h -28.39 v 168.703 h 26.78 v -23.871 h 0.64 c 6.13,9.031 21.94,28.711 50.97,28.711 26.13,0 59.02,-10.645 59.02,-58.707 V 450.961" /><path
         id="path54"
         style="fill:#231f20;fill-opacity:1;fill-rule:nonzero;stroke:none"
         d="m 3913.88,568.375 c 1.94,12.898 6.45,32.578 38.71,32.578 26.78,0 39.68,-9.68 39.68,-27.418 0,-16.773 -8.07,-19.355 -14.85,-20 l -46.77,-5.805 c -47.09,-5.804 -51.27,-38.707 -51.27,-52.902 0,-29.027 21.92,-48.707 52.89,-48.707 32.9,0 50,15.484 60.96,27.418 0.97,-12.898 4.84,-25.805 30,-25.805 6.45,0 10.65,1.938 15.48,3.227 v 20.644 c -3.22,-0.644 -6.77,-1.289 -9.35,-1.289 -5.81,0 -9.36,2.903 -9.36,10 v 97.09 c 0,43.223 -49.02,47.098 -62.57,47.098 -41.61,0 -68.39,-15.809 -69.68,-56.129 z m 77.74,-59.027 c 0,-22.578 -25.8,-39.676 -52.25,-39.676 -21.29,0 -30.65,10.969 -30.65,29.351 0,21.29 22.26,25.485 36.12,27.418 35.17,4.516 42.27,7.094 46.78,10.645 v -27.738" /><path
         id="path56"
         style="fill:#231f20;fill-opacity:1;fill-rule:nonzero;stroke:none"
         d="M 4109.36,596.113 V 486.445 c 0,-13.226 11.28,-13.226 17.1,-13.226 h 10 v -22.258 c -10.33,-0.965 -18.39,-2.254 -21.29,-2.254 -28.06,0 -34.19,15.805 -34.19,36.121 v 111.285 h -22.91 v 23.551 h 22.91 v 47.094 h 28.38 v -47.094 h 27.1 v -23.551 h -27.1" /><path
         id="path58"
         style="fill:#231f20;fill-opacity:1;fill-rule:nonzero;stroke:none"
         d="m 4171.3,650.305 v 32.254 h 28.38 v -32.254 z m 28.38,-199.344 h -28.38 v 168.703 h 28.38 V 450.961" /><path
         id="path60"
         style="fill:#231f20;fill-opacity:1;fill-rule:nonzero;stroke:none"
         d="m 4239.02,535.473 c 0,-43.543 24.52,-89.028 78.39,-89.028 53.87,0 78.38,45.485 78.38,89.028 0,43.547 -24.51,89.031 -78.38,89.031 -53.87,0 -78.39,-45.484 -78.39,-89.031 z m 29.36,0 c 0,22.578 8.39,64.511 49.03,64.511 40.64,0 49.04,-41.933 49.04,-64.511 0,-22.578 -8.4,-64.512 -49.04,-64.512 -40.64,0 -49.03,41.934 -49.03,64.512" /><path
         id="path62"
         style="fill:#231f20;fill-opacity:1;fill-rule:nonzero;stroke:none"
         d="m 4571.91,450.961 h -28.37 v 103.863 c 0,29.356 -8.4,44.196 -36.14,44.196 -16.13,0 -44.51,-10.325 -44.51,-56.129 v -91.93 h -28.39 v 168.703 h 26.77 v -23.871 h 0.65 c 6.13,9.031 21.94,28.711 50.96,28.711 26.13,0 59.03,-10.645 59.03,-58.707 V 450.961" /><path
         id="path64"
         style="fill:#231f20;fill-opacity:1;fill-rule:nonzero;stroke:none"
         d="m 4645.46,568.375 c 1.94,12.898 6.45,32.578 38.71,32.578 26.77,0 39.68,-9.68 39.68,-27.418 0,-16.773 -8.07,-19.355 -14.85,-20 l -46.76,-5.805 c -47.1,-5.804 -51.29,-38.707 -51.29,-52.902 0,-29.027 21.93,-48.707 52.9,-48.707 32.9,0 50,15.484 60.96,27.418 0.97,-12.898 4.84,-25.805 29.99,-25.805 6.46,0 10.66,1.938 15.49,3.227 v 20.644 c -3.22,-0.644 -6.77,-1.289 -9.35,-1.289 -5.81,0 -9.36,2.903 -9.36,10 v 97.09 c 0,43.223 -49.02,47.098 -62.58,47.098 -41.6,0 -68.37,-15.809 -69.66,-56.129 z m 77.74,-59.027 c 0,-22.578 -25.8,-39.676 -52.25,-39.676 -21.29,0 -30.65,10.969 -30.65,29.351 0,21.29 22.26,25.485 36.13,27.418 35.15,4.516 42.26,7.094 46.77,10.645 v -27.738" /><path
         id="path66"
         style="fill:#231f20;fill-opacity:1;fill-rule:nonzero;stroke:none"
         d="m 4835.13,450.961 h -28.38 v 231.598 h 28.38 V 450.961" /><path
         id="path68"
         style="fill:#231f20;fill-opacity:1;fill-rule:nonzero;stroke:none"
         d="m 4998.99,503.863 c -0.96,-12.578 -16.77,-33.222 -43.54,-33.222 -32.58,0 -49.03,20.32 -49.03,55.476 h 123.21 c 0,59.676 -23.87,98.387 -72.57,98.387 -55.81,0 -80.97,-41.613 -80.97,-93.867 0,-48.707 28.07,-84.516 75.48,-84.516 27.1,0 38.07,6.453 45.8,11.613 21.3,14.196 29.04,38.063 30,46.129 z m -92.57,44.832 c 0,26.129 20.64,50.325 46.76,50.325 34.53,0 45.49,-24.196 47.1,-50.325 h -93.86" /><path
         id="path70"
         style="fill:#231f20;fill-opacity:1;fill-rule:nonzero;stroke:none"
         d="m 5306.07,682.559 h -28.37 v -86.766 h -0.66 c -6.77,9.676 -19.67,28.711 -50.32,28.711 -44.84,0 -70.31,-36.774 -70.31,-84.191 0,-40.321 16.76,-94.192 74.19,-94.192 16.44,0 35.81,5.164 48.06,28.063 h 0.64 v -23.223 h 26.77 z M 5185.76,535.797 c 0,21.609 2.26,63.223 46.12,63.223 40.97,0 45.49,-44.196 45.49,-71.614 0,-44.832 -28.06,-56.765 -46.13,-56.765 -30.97,0 -45.48,28.062 -45.48,65.156" /><path
         id="path72"
         style="fill:#231f20;fill-opacity:1;fill-rule:nonzero;stroke:none"
         d="m 5466.71,503.863 c -0.96,-12.578 -16.77,-33.222 -43.54,-33.222 -32.58,0 -49.03,20.32 -49.03,55.476 h 123.22 c 0,59.676 -23.87,98.387 -72.57,98.387 -55.81,0 -80.97,-41.613 -80.97,-93.867 0,-48.707 28.06,-84.516 75.48,-84.516 27.09,0 38.06,6.453 45.8,11.613 21.29,14.196 29.03,38.063 30,46.129 z m -92.57,44.832 c 0,26.129 20.65,50.325 46.78,50.325 34.5,0 45.47,-24.196 47.08,-50.325 h -93.86" /><path
         id="path74"
         style="fill:#231f20;fill-opacity:1;fill-rule:nonzero;stroke:none"
         d="m 5633.48,571.602 c -0.32,10.644 -4.19,28.382 -39.99,28.382 -8.71,0 -33.55,-2.906 -33.55,-23.871 0,-13.867 8.71,-17.093 30.65,-22.578 l 28.37,-7.094 c 35.17,-8.711 47.43,-21.613 47.43,-44.511 0,-34.84 -28.71,-55.809 -66.77,-55.809 -66.78,0 -71.61,38.707 -72.58,59.031 h 27.41 c 0.97,-13.222 4.85,-34.511 44.85,-34.511 20.32,0 38.7,8.062 38.7,26.769 0,13.547 -9.36,18.063 -33.55,24.192 l -32.9,8.066 c -23.55,5.805 -39.03,17.738 -39.03,40.961 0,37.098 30.64,53.875 63.87,53.875 60.32,0 64.51,-44.52 64.51,-52.902 h -27.42" /><path
         id="path76"
         style="fill:#231f20;fill-opacity:1;fill-rule:nonzero;stroke:none"
         d="m 5944.77,614.824 c -1.63,35.801 -31.29,47.094 -57.43,47.094 -19.67,0 -52.9,-5.48 -52.9,-40.645 0,-19.675 13.88,-26.125 27.42,-29.355 l 66.13,-15.156 c 30,-7.098 52.58,-25.16 52.58,-61.934 0,-54.832 -50.97,-69.992 -90.65,-69.992 -42.9,0 -59.67,12.898 -70,22.254 -19.67,17.738 -23.54,37.094 -23.54,58.707 h 29.35 c 0,-41.934 34.19,-54.192 63.87,-54.192 22.59,0 60.64,5.805 60.64,39.032 0,24.191 -11.28,31.933 -49.34,40.965 l -47.42,10.968 c -15.16,3.547 -49.36,14.192 -49.36,54.508 0,36.129 23.55,71.613 79.68,71.613 80.97,0 89.02,-48.382 90.31,-73.867 h -29.34" /><path
         id="path78"
         style="fill:#231f20;fill-opacity:1;fill-rule:nonzero;stroke:none"
         d="m 6013.47,535.473 c 0,-43.543 24.52,-89.028 78.39,-89.028 53.85,0 78.37,45.485 78.37,89.028 0,43.547 -24.52,89.031 -78.37,89.031 -53.87,0 -78.39,-45.484 -78.39,-89.031 z m 29.35,0 c 0,22.578 8.39,64.511 49.04,64.511 40.63,0 49.02,-41.933 49.02,-64.511 0,-22.578 -8.39,-64.512 -49.02,-64.512 -40.65,0 -49.04,41.934 -49.04,64.512" /><path
         id="path80"
         style="fill:#231f20;fill-opacity:1;fill-rule:nonzero;stroke:none"
         d="m 6314.42,562.891 c -3.54,22.578 -16.13,36.129 -40,36.129 -35.16,0 -46.45,-33.551 -46.45,-63.547 0,-29.032 7.11,-64.832 46.13,-64.832 19.03,0 35.49,14.187 40.32,39.996 h 27.42 c -2.9,-26.774 -19.36,-64.516 -68.71,-64.516 -47.42,0 -75.47,35.809 -75.47,84.516 0,52.254 25.15,93.867 80.95,93.867 44.2,0 60.97,-32.258 63.23,-61.613 h -27.42" /><path
         id="path82"
         style="fill:#231f20;fill-opacity:1;fill-rule:nonzero;stroke:none"
         d="m 6377.32,650.305 v 32.254 h 28.39 v -32.254 z m 28.39,-199.344 h -28.39 v 168.703 h 28.39 V 450.961" /><path
         id="path84"
         style="fill:#231f20;fill-opacity:1;fill-rule:nonzero;stroke:none"
         d="m 6572.79,687.719 h -34.83 l -28.71,-45.477 h 21.61 z m -3.22,-183.856 c -0.98,-12.578 -16.78,-33.222 -43.55,-33.222 -32.58,0 -49.03,20.32 -49.03,55.476 h 123.22 c 0,59.676 -23.87,98.387 -72.57,98.387 -55.8,0 -80.97,-41.613 -80.97,-93.867 0,-48.707 28.07,-84.516 75.48,-84.516 27.1,0 38.06,6.453 45.81,11.613 21.28,14.196 29.02,38.063 30,46.129 z m -92.58,44.832 c 0,26.129 20.65,50.325 46.78,50.325 34.51,0 45.47,-24.196 47.09,-50.325 h -93.87" /><path
         id="path86"
         style="fill:#231f20;fill-opacity:1;fill-rule:nonzero;stroke:none"
         d="M 6675.37,596.113 V 486.445 c 0,-13.226 11.29,-13.226 17.09,-13.226 h 10 v -22.258 c -10.31,-0.965 -18.38,-2.254 -21.29,-2.254 -28.05,0 -34.18,15.805 -34.18,36.121 v 111.285 h -22.91 v 23.551 h 22.91 v 47.094 h 28.38 v -47.094 h 27.09 v -23.551 h -27.09" /><path
         id="path88"
         style="fill:#231f20;fill-opacity:1;fill-rule:nonzero;stroke:none"
         d="m 6854.72,687.719 h -34.84 l -28.71,-45.477 h 21.61 z m -3.23,-183.856 c -0.96,-12.578 -16.77,-33.222 -43.54,-33.222 -32.58,0 -49.03,20.32 -49.03,55.476 h 123.21 c 0,59.676 -23.87,98.387 -72.57,98.387 -55.81,0 -80.97,-41.613 -80.97,-93.867 0,-48.707 28.07,-84.516 75.49,-84.516 27.09,0 38.06,6.453 45.79,11.613 21.3,14.196 29.04,38.063 30,46.129 z m -92.57,44.832 c 0,26.129 20.64,50.325 46.76,50.325 34.53,0 45.49,-24.196 47.1,-50.325 h -93.86" /><path
         id="path90"
         style="fill:#231f20;fill-opacity:1;fill-rule:nonzero;stroke:none"
         d="m 7018.26,571.602 c -0.32,10.644 -4.2,28.382 -40,28.382 -8.71,0 -33.54,-2.906 -33.54,-23.871 0,-13.867 8.71,-17.093 30.64,-22.578 l 28.39,-7.094 c 35.16,-8.711 47.41,-21.613 47.41,-44.511 0,-34.84 -28.71,-55.809 -66.77,-55.809 -66.76,0 -71.61,38.707 -72.57,59.031 h 27.42 c 0.96,-13.222 4.83,-34.511 44.82,-34.511 20.33,0 38.71,8.062 38.71,26.769 0,13.547 -9.35,18.063 -33.54,24.192 l -32.9,8.066 c -23.55,5.805 -39.04,17.738 -39.04,40.961 0,37.098 30.65,53.875 63.88,53.875 60.31,0 64.51,-44.52 64.51,-52.902 h -27.42" /><path
         id="path92"
         style="fill:#231f20;fill-opacity:1;fill-rule:nonzero;stroke:none"
         d="m 1485.61,302.559 h -28.39 v -86.766 h -0.64 c -6.78,9.676 -19.68,28.711 -50.32,28.711 -44.84,0 -70.32,-36.774 -70.32,-84.191 0,-40.321 16.77,-94.1919 74.19,-94.1919 16.45,0 35.8,5.168 48.06,28.0586 h 0.64 V 70.957 h 26.78 z M 1365.29,155.797 c 0,21.609 2.26,63.223 46.13,63.223 40.96,0 45.48,-44.196 45.48,-71.61 0,-44.832 -28.06,-56.7655 -46.13,-56.7655 -30.96,0 -45.48,28.0585 -45.48,65.1525" /><path
         id="path94"
         style="fill:#231f20;fill-opacity:1;fill-rule:nonzero;stroke:none"
         d="m 1646.25,123.867 c -0.97,-12.578 -16.78,-33.2225 -43.55,-33.2225 -32.58,0 -49.03,20.3125 -49.03,55.4765 h 123.22 c 0,59.672 -23.87,98.383 -72.58,98.383 -55.8,0 -80.96,-41.613 -80.96,-93.867 0,-48.703 28.06,-84.5159 75.48,-84.5159 27.09,0 38.06,6.457 45.8,11.6133 21.29,14.1992 29.03,38.0586 30,46.1326 z m -92.58,44.828 c 0,26.129 20.65,50.325 46.77,50.325 34.52,0 45.48,-24.196 47.09,-50.325 h -93.86" /><path
         id="path96"
         style="fill:#231f20;fill-opacity:1;fill-rule:nonzero;stroke:none"
         d="m 1842.37,70.957 h -28.39 v 231.602 h 28.39 V 70.957" /><path
         id="path98"
         style="fill:#231f20;fill-opacity:1;fill-rule:nonzero;stroke:none"
         d="m 1916.55,188.375 c 1.94,12.898 6.46,32.578 38.71,32.578 26.78,0 39.68,-9.68 39.68,-27.418 0,-16.773 -8.06,-19.355 -14.84,-20 l -46.77,-5.805 c -47.09,-5.804 -51.29,-38.707 -51.29,-52.906 0,-29.0232 21.93,-48.7029 52.9,-48.7029 32.9,0 50,15.4922 60.96,27.4141 0.97,-12.8907 4.84,-25.8008 30,-25.8008 6.45,0 10.65,1.9336 15.49,3.2226 v 20.6563 c -3.23,-0.6563 -6.78,-1.2891 -9.36,-1.2891 -5.8,0 -9.35,2.8985 -9.35,9.9998 v 97.082 c 0,43.223 -49.03,47.098 -62.58,47.098 -41.61,0 -68.38,-15.809 -69.67,-56.129 z m 77.74,-59.027 c 0,-22.578 -25.8,-39.68 -52.25,-39.68 -21.29,0 -30.65,10.977 -30.65,29.355 0,21.29 22.26,25.481 36.13,27.422 35.16,4.512 42.26,7.09 46.77,10.641 v -27.738" /><path
         id="path100"
         style="fill:#231f20;fill-opacity:1;fill-rule:nonzero;stroke:none"
         d="m 2339.44,232.887 c -8.71,40.644 -42.58,48.062 -64.84,48.062 -41.93,0 -75.8,-30.965 -75.8,-91.929 0,-54.516 19.35,-96.4419 76.77,-96.4419 20.32,0 55.48,9.6679 66.12,63.5389 h 30.33 c -12.9,-87.4139 -83.87,-91.2811 -101.29,-91.2811 -52.58,0 -104.19,34.1875 -104.19,123.2151 0,71.285 40.65,120.64 108.06,120.64 59.68,0 90.64,-37.093 95.16,-75.804 h -30.32" /><path
         id="path102"
         style="fill:#231f20;fill-opacity:1;fill-rule:nonzero;stroke:none"
         d="m 2444.92,70.957 h -28.39 v 168.707 h 26.77 v -28.066 h 0.65 c 11.29,19.675 26.13,32.906 47.42,32.906 3.54,0 5.15,-0.324 7.41,-0.973 V 214.18 h -10.64 c -26.45,0 -43.22,-20.645 -43.22,-45.16 V 70.957" /><path
         id="path104"
         style="fill:#231f20;fill-opacity:1;fill-rule:nonzero;stroke:none"
         d="m 2516.85,155.473 c 0,-43.539 24.51,-89.0277 78.38,-89.0277 53.87,0 78.38,45.4887 78.38,89.0277 0,43.547 -24.51,89.031 -78.38,89.031 -53.87,0 -78.38,-45.484 -78.38,-89.031 z m 29.35,0 c 0,22.578 8.38,64.511 49.03,64.511 40.64,0 49.03,-41.933 49.03,-64.511 0,-22.582 -8.39,-64.516 -49.03,-64.516 -40.65,0 -49.03,41.934 -49.03,64.516" /><path
         id="path106"
         style="fill:#231f20;fill-opacity:1;fill-rule:nonzero;stroke:none"
         d="m 2712.97,270.305 v 32.254 h 28.38 v -32.254 z m 28.38,-199.348 h -28.38 v 168.707 h 28.38 V 70.957" /><path
         id="path108"
         style="fill:#231f20;fill-opacity:1;fill-rule:nonzero;stroke:none"
         d="m 2927.47,70.957 h -36.13 l -41.93,63.547 -40.65,-63.547 h -35.8 l 59.35,86.773 -56.45,81.934 h 36.45 l 39.03,-59.351 39.04,59.351 h 34.83 l -57.09,-81.934 59.35,-86.773" /><path
         id="path110"
         style="fill:#231f20;fill-opacity:1;fill-rule:nonzero;stroke:none"
         d="m 3030.37,145.793 h -79.03 v 29.031 h 79.03 v -29.031" /><path
         id="path112"
         style="fill:#231f20;fill-opacity:1;fill-rule:nonzero;stroke:none"
         d="m 3110.69,170.313 h 75.8 c 37.42,0 41.29,-22.254 41.29,-41.29 0,-8.71 0.97,-43.8667 5.48,-58.066 h 38.39 v 5.1641 c -9.68,5.4922 -11.29,10.3242 -11.62,23.2266 l -1.93,41.9333 c -1.29,32.254 -14.52,38.059 -27.74,43.543 14.84,8.711 32.25,21.289 32.25,55.485 0,49.027 -38.06,62.25 -76.12,62.25 H 3079.4 V 70.957 h 31.29 z m 0,105.472 h 78.06 c 15.48,0 41.61,-2.898 41.61,-38.707 0,-34.187 -24.19,-39.992 -47.1,-39.992 h -72.57 v 78.699" /><path
         id="path114"
         style="fill:#231f20;fill-opacity:1;fill-rule:nonzero;stroke:none"
         d="m 3301.64,155.473 c 0,-43.539 24.52,-89.0277 78.38,-89.0277 53.87,0 78.39,45.4887 78.39,89.0277 0,43.547 -24.52,89.031 -78.39,89.031 -53.86,0 -78.38,-45.484 -78.38,-89.031 z m 29.36,0 c 0,22.578 8.38,64.511 49.02,64.511 40.65,0 49.03,-41.933 49.03,-64.511 0,-22.582 -8.38,-64.516 -49.03,-64.516 -40.64,0 -49.02,41.934 -49.02,64.516" /><path
         id="path116"
         style="fill:#231f20;fill-opacity:1;fill-rule:nonzero;stroke:none"
         d="m 3607.11,70.957 v 24.5235 l -0.65,0.6406 c -11.93,-19.6758 -26.44,-30 -53.54,-30 -24.83,0 -54.83,11.9375 -54.83,52.2579 v 121.285 h 28.38 v -111.93 c 0,-27.7418 14.19,-37.0895 32.58,-37.0895 35.8,0 46.45,31.6015 46.45,56.1135 v 92.906 h 28.39 V 70.957 h -26.78" /><path
         id="path118"
         style="fill:#231f20;fill-opacity:1;fill-rule:nonzero;stroke:none"
         d="m 3822.91,239.664 h -26.78 v -24.84 c -7.09,10.324 -20.31,29.68 -50.96,29.68 -44.83,0 -70.32,-36.774 -70.32,-84.191 0,-40.321 16.78,-94.1919 74.19,-94.1919 22.58,0 37.42,10.3242 45.49,23.8711 v -7.1016 c 0,-19.9883 0.97,-59.3437 -48.07,-59.3437 -6.77,0 -32.9,0 -38.06,26.7773 h -28.39 C 3685.5,5.48828 3724.53,0 3744.53,0 c 78.06,0 78.38,60.6445 78.38,84.8359 z m -118.7,-83.867 c 0,21.609 2.25,63.223 46.12,63.223 40.97,0 45.49,-44.196 45.49,-71.61 0,-44.832 -28.07,-56.7655 -46.13,-56.7655 -30.97,0 -45.48,28.0585 -45.48,65.1525" /><path
         id="path120"
         style="fill:#231f20;fill-opacity:1;fill-rule:nonzero;stroke:none"
         d="m 3983.54,123.867 c -0.95,-12.578 -16.76,-33.2225 -43.54,-33.2225 -32.58,0 -49.02,20.3125 -49.02,55.4765 h 123.22 c 0,59.672 -23.88,98.383 -72.58,98.383 -55.81,0 -80.97,-41.613 -80.97,-93.867 0,-48.703 28.06,-84.5159 75.48,-84.5159 27.09,0 38.07,6.457 45.8,11.6133 21.29,14.1992 29.04,38.0586 30,46.1326 z m -92.56,44.828 c 0,26.129 20.64,50.325 46.76,50.325 34.52,0 45.48,-24.196 47.09,-50.325 h -93.85" /><path
         id="path122"
         style="fill:#231f20;fill-opacity:1;fill-rule:nonzero;stroke:none"
         d="m 4265.47,123.867 c -0.97,-12.578 -16.77,-33.2225 -43.55,-33.2225 -32.56,0 -49.02,20.3125 -49.02,55.4765 h 123.22 c 0,59.672 -23.87,98.383 -72.58,98.383 -55.8,0 -80.96,-41.613 -80.96,-93.867 0,-48.703 28.05,-84.5159 75.48,-84.5159 27.1,0 38.06,6.457 45.81,11.6133 21.29,14.1992 29.02,38.0586 29.99,46.1326 z m -92.57,44.828 c 0,26.129 20.64,50.325 46.77,50.325 34.51,0 45.49,-24.196 47.09,-50.325 h -93.86" /><path
         id="path124"
         style="fill:#231f20;fill-opacity:1;fill-rule:nonzero;stroke:none"
         d="M 4371.28,216.113 V 106.445 c 0,-13.2223 11.29,-13.2223 17.1,-13.2223 h 10 V 70.957 c -10.33,-0.9648 -18.4,-2.2539 -21.29,-2.2539 -28.07,0 -34.2,15.8086 -34.2,36.1209 v 111.289 h -22.9 v 23.551 h 22.9 v 47.094 h 28.39 v -47.094 h 27.1 v -23.551 h -27.1" /><path
         id="path126"
         style="fill:#231f20;fill-opacity:1;fill-rule:nonzero;stroke:none"
         d="m 4668.68,302.559 h -28.39 v -86.766 h -0.64 c -6.77,9.676 -19.67,28.711 -50.31,28.711 -44.84,0 -70.33,-36.774 -70.33,-84.191 0,-40.321 16.78,-94.1919 74.19,-94.1919 16.45,0 35.8,5.168 48.06,28.0586 h 0.65 V 70.957 h 26.77 z M 4548.37,155.797 c 0,21.609 2.26,63.223 46.12,63.223 40.97,0 45.49,-44.196 45.49,-71.61 0,-44.832 -28.07,-56.7655 -46.13,-56.7655 -30.97,0 -45.48,28.0585 -45.48,65.1525" /><path
         id="path128"
         style="fill:#231f20;fill-opacity:1;fill-rule:nonzero;stroke:none"
         d="m 4824.48,70.957 v 24.5235 l -0.64,0.6406 c -11.94,-19.6758 -26.46,-30 -53.55,-30 -24.83,0 -54.83,11.9375 -54.83,52.2579 v 121.285 h 28.38 v -111.93 c 0,-27.7418 14.2,-37.0895 32.58,-37.0895 35.81,0 46.45,31.6015 46.45,56.1135 v 92.906 h 28.38 V 70.957 h -26.77" /><path
         id="path130"
         style="fill:#231f20;fill-opacity:1;fill-rule:nonzero;stroke:none"
         d="m 5162.54,232.887 c -8.71,40.644 -42.58,48.062 -64.83,48.062 -41.95,0 -75.82,-30.965 -75.82,-91.929 0,-54.516 19.36,-96.4419 76.78,-96.4419 20.32,0 55.47,9.6679 66.12,63.5389 h 30.33 c -12.91,-87.4139 -83.87,-91.2811 -101.29,-91.2811 -52.58,0 -104.19,34.1875 -104.19,123.2151 0,71.285 40.64,120.64 108.07,120.64 59.66,0 90.63,-37.093 95.14,-75.804 h -30.31" /><path
         id="path132"
         style="fill:#231f20;fill-opacity:1;fill-rule:nonzero;stroke:none"
         d="m 5268.01,70.957 h -28.38 v 168.707 h 26.77 v -28.066 h 0.64 c 11.3,19.675 26.13,32.906 47.42,32.906 3.55,0 5.16,-0.324 7.42,-0.973 V 214.18 h -10.65 c -26.44,0 -43.22,-20.645 -43.22,-45.16 V 70.957" /><path
         id="path134"
         style="fill:#231f20;fill-opacity:1;fill-rule:nonzero;stroke:none"
         d="m 5339.94,155.473 c 0,-43.539 24.52,-89.0277 78.39,-89.0277 53.86,0 78.38,45.4887 78.38,89.0277 0,43.547 -24.52,89.031 -78.38,89.031 -53.87,0 -78.39,-45.484 -78.39,-89.031 z m 29.36,0 c 0,22.578 8.38,64.511 49.03,64.511 40.63,0 49.02,-41.933 49.02,-64.511 0,-22.582 -8.39,-64.516 -49.02,-64.516 -40.65,0 -49.03,41.934 -49.03,64.516" /><path
         id="path136"
         style="fill:#231f20;fill-opacity:1;fill-rule:nonzero;stroke:none"
         d="m 5536.06,270.305 v 32.254 h 28.39 v -32.254 z m 28.39,-199.348 h -28.39 v 168.707 h 28.39 V 70.957" /><path
         id="path138"
         style="fill:#231f20;fill-opacity:1;fill-rule:nonzero;stroke:none"
         d="m 5709.28,191.602 c -0.32,10.644 -4.19,28.382 -40,28.382 -8.71,0 -33.55,-2.906 -33.55,-23.871 0,-13.867 8.71,-17.093 30.65,-22.578 l 28.38,-7.094 c 35.16,-8.711 47.42,-21.617 47.42,-44.507 0,-34.8442 -28.71,-55.8129 -66.77,-55.8129 -66.78,0 -71.61,38.7029 -72.58,59.0349 h 27.42 c 0.96,-13.222 4.84,-34.5115 44.84,-34.5115 20.32,0 38.71,8.0586 38.71,26.7655 0,13.547 -9.37,18.059 -33.56,24.192 l -32.9,8.066 c -23.54,5.805 -39.02,17.738 -39.02,40.961 0,37.098 30.64,53.875 63.86,53.875 60.32,0 64.52,-44.52 64.52,-52.902 h -27.42" /><path
         id="path140"
         style="fill:#231f20;fill-opacity:1;fill-rule:nonzero;stroke:none"
         d="m 5877.01,191.602 c -0.32,10.644 -4.2,28.382 -40,28.382 -8.71,0 -33.54,-2.906 -33.54,-23.871 0,-13.867 8.71,-17.093 30.64,-22.578 l 28.39,-7.094 c 35.16,-8.711 47.41,-21.617 47.41,-44.507 0,-34.8442 -28.7,-55.8129 -66.77,-55.8129 -66.76,0 -71.61,38.7029 -72.57,59.0349 h 27.42 c 0.97,-13.222 4.83,-34.5115 44.83,-34.5115 20.32,0 38.7,8.0586 38.7,26.7655 0,13.547 -9.35,18.059 -33.54,24.192 l -32.9,8.066 c -23.55,5.805 -39.04,17.738 -39.04,40.961 0,37.098 30.66,53.875 63.88,53.875 60.31,0 64.51,-44.52 64.51,-52.902 h -27.42" /><path
         id="path142"
         style="fill:#231f20;fill-opacity:1;fill-rule:nonzero;stroke:none"
         d="m 5974.1,188.375 c 1.94,12.898 6.46,32.578 38.71,32.578 26.78,0 39.68,-9.68 39.68,-27.418 0,-16.773 -8.07,-19.355 -14.83,-20 l -46.78,-5.805 c -47.09,-5.804 -51.29,-38.707 -51.29,-52.906 0,-29.0232 21.93,-48.7029 52.9,-48.7029 32.9,0 50,15.4922 60.97,27.4141 0.96,-12.8907 4.83,-25.8008 30,-25.8008 6.44,0 10.64,1.9336 15.48,3.2226 v 20.6563 c -3.23,-0.6563 -6.77,-1.2891 -9.35,-1.2891 -5.81,0 -9.36,2.8985 -9.36,9.9998 v 97.082 c 0,43.223 -49.03,47.098 -62.57,47.098 -41.62,0 -68.39,-15.809 -69.68,-56.129 z m 77.75,-59.027 c 0,-22.578 -25.81,-39.68 -52.26,-39.68 -21.29,0 -30.64,10.977 -30.64,29.355 0,21.29 22.25,25.481 36.13,27.422 35.15,4.512 42.25,7.09 46.77,10.641 v -27.738" /><path
         id="path144"
         style="fill:#231f20;fill-opacity:1;fill-rule:nonzero;stroke:none"
         d="m 6272.16,70.957 h -28.39 v 103.867 c 0,29.356 -8.38,44.196 -36.12,44.196 -16.14,0 -44.52,-10.325 -44.52,-56.129 V 70.957 h -28.38 v 168.707 h 26.77 v -23.871 h 0.65 c 6.12,9.031 21.93,28.711 50.96,28.711 26.13,0 59.03,-10.645 59.03,-58.707 V 70.957" /><path
         id="path146"
         style="fill:#231f20;fill-opacity:1;fill-rule:nonzero;stroke:none"
         d="M 6355.38,216.113 V 106.445 c 0,-13.2223 11.29,-13.2223 17.1,-13.2223 h 10 V 70.957 c -10.33,-0.9648 -18.39,-2.2539 -21.29,-2.2539 -28.06,0 -34.19,15.8086 -34.19,36.1209 v 111.289 h -22.91 v 23.551 H 6327 v 47.094 h 28.38 v -47.094 h 27.1 v -23.551 h -27.1" /><path
         id="path148"
         style="fill:#231f20;fill-opacity:1;fill-rule:nonzero;stroke:none"
         d="m 6488.93,145.793 h -79.03 v 29.031 h 79.03 v -29.031" /><path
         id="path150"
         style="fill:#231f20;fill-opacity:1;fill-rule:nonzero;stroke:none"
         d="m 6569.24,170.313 h 75.81 c 37.41,0 41.29,-22.254 41.29,-41.29 0,-8.71 0.95,-43.8667 5.48,-58.066 h 38.38 v 5.1641 c -9.67,5.4922 -11.29,10.3242 -11.62,23.2266 l -1.93,41.9333 c -1.29,32.254 -14.51,38.059 -27.74,43.543 14.84,8.711 32.26,21.289 32.26,55.485 0,49.027 -38.06,62.25 -76.12,62.25 H 6537.96 V 70.957 h 31.28 z m 0,105.472 h 78.05 c 15.49,0 41.62,-2.898 41.62,-38.707 0,-34.187 -24.18,-39.992 -47.09,-39.992 h -72.58 v 78.699" /><path
         id="path152"
         style="fill:#231f20;fill-opacity:1;fill-rule:nonzero;stroke:none"
         d="m 6760.2,155.473 c 0,-43.539 24.51,-89.0277 78.38,-89.0277 53.87,0 78.38,45.4887 78.38,89.0277 0,43.547 -24.51,89.031 -78.38,89.031 -53.87,0 -78.38,-45.484 -78.38,-89.031 z m 29.35,0 c 0,22.578 8.39,64.511 49.03,64.511 40.64,0 49.03,-41.933 49.03,-64.511 0,-22.582 -8.39,-64.516 -49.03,-64.516 -40.64,0 -49.03,41.934 -49.03,64.516" /><path
         id="path154"
         style="fill:#231f20;fill-opacity:1;fill-rule:nonzero;stroke:none"
         d="m 7065.67,70.957 v 24.5235 l -0.65,0.6406 c -11.93,-19.6758 -26.45,-30 -53.55,-30 -24.83,0 -54.83,11.9375 -54.83,52.2579 v 121.285 h 28.39 v -111.93 c 0,-27.7418 14.19,-37.0895 32.58,-37.0895 35.8,0 46.44,31.6015 46.44,56.1135 v 92.906 h 28.39 V 70.957 h -26.77" /><path
         id="path156"
         style="fill:#231f20;fill-opacity:1;fill-rule:nonzero;stroke:none"
         d="m 7281.46,239.664 h -26.77 v -24.84 c -7.09,10.324 -20.31,29.68 -50.96,29.68 -44.84,0 -70.32,-36.774 -70.32,-84.191 0,-40.321 16.77,-94.1919 74.19,-94.1919 22.58,0 37.42,10.3242 45.49,23.8711 v -7.1016 c 0,-19.9883 0.95,-59.3437 -48.07,-59.3437 -6.78,0 -32.9,0 -38.07,26.7773 h -28.38 C 7144.05,5.48828 7183.09,0 7203.09,0 c 78.05,0 78.37,60.6445 78.37,84.8359 z m -118.7,-83.867 c 0,21.609 2.26,63.223 46.13,63.223 40.96,0 45.49,-44.196 45.49,-71.61 0,-44.832 -28.07,-56.7655 -46.14,-56.7655 -30.96,0 -45.48,28.0585 -45.48,65.1525" /><path
         id="path158"
         style="fill:#231f20;fill-opacity:1;fill-rule:nonzero;stroke:none"
         d="m 7442.11,123.867 c -0.98,-12.578 -16.78,-33.2225 -43.56,-33.2225 -32.57,0 -49.02,20.3125 -49.02,55.4765 h 123.22 c 0,59.672 -23.87,98.383 -72.58,98.383 -55.8,0 -80.96,-41.613 -80.96,-93.867 0,-48.703 28.06,-84.5159 75.48,-84.5159 27.09,0 38.06,6.457 45.8,11.6133 21.29,14.1992 29.03,38.0586 30,46.1326 z m -92.58,44.828 c 0,26.129 20.64,50.325 46.77,50.325 34.52,0 45.48,-24.196 47.1,-50.325 h -93.87" /></g></g></svg>