<?xml version="1.0" encoding="UTF-8" standalone="no"?>
<svg
   xmlns:dc="http://purl.org/dc/elements/1.1/"
   xmlns:cc="http://creativecommons.org/ns#"
   xmlns:rdf="http://www.w3.org/1999/02/22-rdf-syntax-ns#"
   xmlns:svg="http://www.w3.org/2000/svg"
   xmlns="http://www.w3.org/2000/svg"
   version="1.1"
   id="Layer_1"
   x="0px"
   y="0px"
   viewBox="0 0 652.42998 193.44001"
   xml:space="preserve"
   width="652.42999"
   height="193.44"><metadata
   id="metadata17"><rdf:RDF><cc:Work
       rdf:about=""><dc:format>image/svg+xml</dc:format><dc:type
         rdf:resource="http://purl.org/dc/dcmitype/StillImage" /><dc:title></dc:title></cc:Work></rdf:RDF></metadata><defs
   id="defs15" />
<style
   type="text/css"
   id="style2">
	.st0{fill:#FFFFFF;}
	.st1{fill:#F5333F;}
	.st2{fill:#333132;}
</style>
<rect
   x="0"
   y="0"
   class="st0"
   width="652.42999"
   height="193.44"
   id="rect4" />
<polygon
   class="st1"
   points="141.75,175.76 175.8,175.76 175.8,175.74 175.8,141.69 204.98,141.69 204.98,175.74 204.97,175.76 239.03,175.76 239.03,204.94 204.97,204.94 204.98,204.93 204.98,238.98 175.8,238.98 175.8,204.93 175.8,204.95 141.75,204.95 "
   id="polygon6"
   transform="translate(-94.730003,-93.379997)" />
<path
   class="st1"
   d="m 189.44,96.440003 c 0,-22.67 18.38,-41.06 41.06,-41.06 5.05,0 9.89,0.91 14.35,2.58 -8.4,-6.65 -19.01,-10.62 -30.55,-10.62 -27.21,0 -49.27,22.06 -49.27,49.27 0,27.209997 22.06,49.269997 49.27,49.269997 11.92,0 22.86,-4.24 31.39,-11.29 -4.7,1.87 -9.82,2.9 -15.18,2.9 -22.68,0.01 -41.07,-18.38 -41.07,-41.049997"
   id="path8" />
<path
   class="st2"
   d="m 563.19,145.9 c 8.26,0 15.75,-1.46 22.46,-4.36 6.72,-2.91 12.34,-7.12 16.88,-12.66 l -14.16,-13.07 c -6.45,7.54 -14.43,11.3 -23.96,11.3 -5.9,0 -11.17,-1.29 -15.79,-3.88 -4.63,-2.59 -8.24,-6.19 -10.82,-10.82 -2.59,-4.63 -3.88,-9.89 -3.88,-15.789997 0,-5.9 1.3,-11.17 3.88,-15.8 2.58,-4.63 6.19,-8.24 10.82,-10.82 4.63,-2.59 9.89,-3.88 15.79,-3.88 9.53,0 17.52,3.72 23.96,11.17 l 14.16,-13.07 c -4.54,-5.45 -10.14,-9.62 -16.82,-12.52 -6.67,-2.91 -14.13,-4.36 -22.39,-4.36 -9.8,0 -18.63,2.11 -26.48,6.33 -7.86,4.22 -14.03,10.08 -18.52,17.56 -4.49,7.49 -6.74,15.96 -6.74,25.39 0,9.439997 2.25,17.899997 6.74,25.389997 4.49,7.49 10.66,13.34 18.52,17.56 7.85,4.22 16.63,6.33 26.35,6.33 M 475.1,83.550003 c 0,5.27 -1.72,9.35 -5.17,12.26 -3.45,2.91 -8.49,4.359997 -15.11,4.359997 H 436.85 V 66.950003 h 17.97 c 6.63,0 11.66,1.43 15.11,4.29 3.45,2.84 5.17,6.95 5.17,12.31 M 499.2,144.27 477.83,113.64 c 6.26,-2.72 11.1,-6.65 14.5,-11.78 3.4,-5.129997 5.1,-11.229997 5.1,-18.309997 0,-7.08 -1.68,-13.2 -5.03,-18.38 -3.36,-5.17 -8.15,-9.17 -14.36,-11.98 -6.22,-2.81 -13.55,-4.22 -21.99,-4.22 H 414.8 V 144.27 h 22.06 v -26.55 h 19.2 1.09 l 18.38,26.55 z M 395.73,66.660003 v -17.7 H 323.71 V 144.26 h 22.06 v -34.72 h 44.11 V 91.840003 h -44.11 v -25.19 h 49.96 z M 279.05,144.27 h 22.06 V 48.970003 h -22.06 z"
   id="path10" />
</svg>
