<?xml version="1.0" encoding="utf-8"?>
<!-- Generator: Adobe Illustrator 19.1.0, SVG Export Plug-In . SVG Version: 6.00 Build 0)  -->
<svg version="1.1" xmlns="http://www.w3.org/2000/svg" xmlns:xlink="http://www.w3.org/1999/xlink" x="0px" y="0px"
	 viewBox="0 0 1578 186.1" style="enable-background:new 0 0 1578 186.1;" xml:space="preserve">
<style type="text/css">
	.st0{fill:#FFFFFF;}
	.st1{fill:#ED1C24;}
	.st2{fill:none;stroke:#ED1C24;stroke-width:4;}
</style>
<g id="logo">
	<g>
		<g>
			<path d="M297.9,46.4h-3.1V23.3h3.1V46.4z"/>
			<path d="M317.3,46.4h-2.8V36c0-2.9-0.8-4.4-3.6-4.4c-1.6,0-4.5,1-4.5,5.6v9.2h-2.8V29.5h2.7v2.4h0.1c0.6-0.9,2.2-2.9,5.1-2.9
				c2.6,0,5.9,1.1,5.9,5.9V46.4z"/>
			<path d="M325.6,31.9v11c0,1.3,1.1,1.3,1.7,1.3h1v2.2c-1,0.1-1.8,0.2-2.1,0.2c-2.8,0-3.4-1.6-3.4-3.6V31.9h-2.3v-2.4h2.3v-4.7h2.8
				v4.7h2.7v2.4H325.6z"/>
			<path d="M334,36.6c0-2.6,2.1-5,4.7-5c3.5,0,4.5,2.4,4.7,5H334z M343.3,41.1c-0.1,1.3-1.7,3.3-4.4,3.3c-3.3,0-4.9-2-4.9-5.5h12.3
				c0-6-2.4-9.8-7.3-9.8c-5.6,0-8.1,4.2-8.1,9.4c0,4.9,2.8,8.5,7.5,8.5c2.7,0,3.8-0.6,4.6-1.2c2.1-1.4,2.9-3.8,3-4.6H343.3z"/>
			<path d="M353.6,46.4h-2.8V29.5h2.7v2.8h0.1c1.1-2,2.6-3.3,4.7-3.3c0.4,0,0.5,0,0.7,0.1v2.9h-1.1c-2.6,0-4.3,2.1-4.3,4.5V46.4z"/>
			<path d="M376.3,46.4h-2.8V36c0-2.9-0.8-4.4-3.6-4.4c-1.6,0-4.5,1-4.5,5.6v9.2h-2.8V29.5h2.7v2.4h0.1c0.6-0.9,2.2-2.9,5.1-2.9
				c2.6,0,5.9,1.1,5.9,5.9V46.4z"/>
			<path d="M391.4,40.6c0,2.3-2.6,4-5.2,4c-2.1,0-3.1-1.1-3.1-2.9c0-2.1,2.2-2.5,3.6-2.7c3.5-0.5,4.2-0.7,4.7-1.1V40.6z M383.6,34.7
				c0.2-1.3,0.6-3.3,3.9-3.3c2.7,0,4,1,4,2.7c0,1.7-0.8,1.9-1.5,2l-4.7,0.6c-4.7,0.6-5.1,3.9-5.1,5.3c0,2.9,2.2,4.9,5.3,4.9
				c3.3,0,5-1.5,6.1-2.7c0.1,1.3,0.5,2.6,3,2.6c0.6,0,1.1-0.2,1.5-0.3v-2.1c-0.3,0.1-0.7,0.1-0.9,0.1c-0.6,0-0.9-0.3-0.9-1v-9.7
				c0-4.3-4.9-4.7-6.3-4.7c-4.2,0-6.8,1.6-7,5.6H383.6z"/>
			<path d="M403.2,31.9v11c0,1.3,1.1,1.3,1.7,1.3h1v2.2c-1,0.1-1.8,0.2-2.1,0.2c-2.8,0-3.4-1.6-3.4-3.6V31.9h-2.3v-2.4h2.3v-4.7h2.8
				v4.7h2.7v2.4H403.2z"/>
			<path d="M412.2,46.4h-2.8V29.5h2.8V46.4z M409.4,26.5v-3.2h2.8v3.2H409.4z"/>
			<path d="M419.1,38c0-2.3,0.8-6.5,4.9-6.5c4.1,0,4.9,4.2,4.9,6.5c0,2.3-0.8,6.5-4.9,6.5C419.9,44.4,419.1,40.2,419.1,38z
				 M416.2,38c0,4.4,2.5,8.9,7.8,8.9c5.4,0,7.8-4.5,7.8-8.9s-2.5-8.9-7.8-8.9C418.6,29.1,416.2,33.6,416.2,38z"/>
			<path d="M449.4,46.4h-2.8V36c0-2.9-0.8-4.4-3.6-4.4c-1.6,0-4.5,1-4.5,5.6v9.2h-2.8V29.5h2.7v2.4h0.1c0.6-0.9,2.2-2.9,5.1-2.9
				c2.6,0,5.9,1.1,5.9,5.9V46.4z"/>
			<path d="M464.6,40.6c0,2.3-2.6,4-5.2,4c-2.1,0-3.1-1.1-3.1-2.9c0-2.1,2.2-2.5,3.6-2.7c3.5-0.5,4.2-0.7,4.7-1.1V40.6z M456.8,34.7
				c0.2-1.3,0.6-3.3,3.9-3.3c2.7,0,4,1,4,2.7c0,1.7-0.8,1.9-1.5,2l-4.7,0.6c-4.7,0.6-5.1,3.9-5.1,5.3c0,2.9,2.2,4.9,5.3,4.9
				c3.3,0,5-1.5,6.1-2.7c0.1,1.3,0.5,2.6,3,2.6c0.6,0,1.1-0.2,1.5-0.3v-2.1c-0.3,0.1-0.7,0.1-0.9,0.1c-0.6,0-0.9-0.3-0.9-1v-9.7
				c0-4.3-4.9-4.7-6.3-4.7c-4.2,0-6.8,1.6-7,5.6H456.8z"/>
			<path d="M475.8,46.4h-2.8V23.3h2.8V46.4z"/>
			<path d="M494.1,46.4H491V23.3h16V26h-12.9v7.1h11.4v2.8h-11.4V46.4z"/>
			<path d="M511.9,36.6c0-2.6,2.1-5,4.7-5c3.5,0,4.5,2.4,4.7,5H511.9z M521.2,41.1c-0.1,1.3-1.7,3.3-4.4,3.3c-3.3,0-4.9-2-4.9-5.5
				h12.3c0-6-2.4-9.8-7.3-9.8c-5.6,0-8.1,4.2-8.1,9.4c0,4.9,2.8,8.5,7.5,8.5c2.7,0,3.8-0.6,4.6-1.2c2.1-1.4,2.9-3.8,3-4.6H521.2z"/>
			<path d="M530.2,37.9c0-2.2,0.2-6.3,4.6-6.3c4.1,0,4.5,4.4,4.5,7.2c0,4.5-2.8,5.7-4.6,5.7C531.7,44.4,530.2,41.6,530.2,37.9z
				 M542.2,23.3h-2.8v8.7h-0.1c-0.7-1-2-2.9-5-2.9c-4.5,0-7,3.7-7,8.4c0,4,1.7,9.4,7.4,9.4c1.6,0,3.6-0.5,4.8-2.8h0.1v2.3h2.7V23.3z
				"/>
			<path d="M549.1,36.6c0-2.6,2.1-5,4.7-5c3.5,0,4.5,2.4,4.7,5H549.1z M558.3,41.1c-0.1,1.3-1.7,3.3-4.4,3.3c-3.3,0-4.9-2-4.9-5.5
				h12.3c0-6-2.4-9.8-7.3-9.8c-5.6,0-8.1,4.2-8.1,9.4c0,4.9,2.8,8.5,7.5,8.5c2.7,0,3.8-0.6,4.6-1.2c2.1-1.4,2.9-3.8,3-4.6H558.3z"/>
			<path d="M568.6,46.4h-2.8V29.5h2.7v2.8h0.1c1.1-2,2.6-3.3,4.7-3.3c0.4,0,0.5,0,0.7,0.1v2.9H573c-2.6,0-4.3,2.1-4.3,4.5V46.4z"/>
			<path d="M586.8,40.6c0,2.3-2.6,4-5.2,4c-2.1,0-3.1-1.1-3.1-2.9c0-2.1,2.2-2.5,3.6-2.7c3.5-0.5,4.2-0.7,4.7-1.1V40.6z M579,34.7
				c0.2-1.3,0.6-3.3,3.9-3.3c2.7,0,4,1,4,2.7c0,1.7-0.8,1.9-1.5,2l-4.7,0.6c-4.7,0.6-5.1,3.9-5.1,5.3c0,2.9,2.2,4.9,5.3,4.9
				c3.3,0,5-1.5,6.1-2.7c0.1,1.3,0.5,2.6,3,2.6c0.6,0,1.1-0.2,1.5-0.3v-2.1c-0.3,0.1-0.7,0.1-0.9,0.1c-0.6,0-0.9-0.3-0.9-1v-9.7
				c0-4.3-4.9-4.7-6.3-4.7c-4.2,0-6.8,1.6-7,5.6H579z"/>
			<path d="M598.5,31.9v11c0,1.3,1.1,1.3,1.7,1.3h1v2.2c-1,0.1-1.8,0.2-2.1,0.2c-2.8,0-3.4-1.6-3.4-3.6V31.9h-2.3v-2.4h2.3v-4.7h2.8
				v4.7h2.7v2.4H598.5z"/>
			<path d="M607.6,46.4h-2.8V29.5h2.8V46.4z M604.7,26.5v-3.2h2.8v3.2H604.7z"/>
			<path d="M614.4,38c0-2.3,0.8-6.5,4.9-6.5c4.1,0,4.9,4.2,4.9,6.5c0,2.3-0.8,6.5-4.9,6.5C615.3,44.4,614.4,40.2,614.4,38z
				 M611.5,38c0,4.4,2.5,8.9,7.8,8.9c5.4,0,7.8-4.5,7.8-8.9s-2.5-8.9-7.8-8.9C614,29.1,611.5,33.6,611.5,38z"/>
			<path d="M644.8,46.4H642V36c0-2.9-0.8-4.4-3.6-4.4c-1.6,0-4.5,1-4.5,5.6v9.2h-2.8V29.5h2.7v2.4h0.1c0.6-0.9,2.2-2.9,5.1-2.9
				c2.6,0,5.9,1.1,5.9,5.9V46.4z"/>
			<path d="M661.9,38.9c0-2.3,0.8-6.5,4.9-6.5s4.9,4.2,4.9,6.5c0,2.3-0.8,6.5-4.9,6.5S661.9,41.1,661.9,38.9z M658.9,38.9
				c0,4.4,2.5,8.9,7.8,8.9c5.4,0,7.8-4.5,7.8-8.9c0-4.4-2.5-8.9-7.8-8.9C661.4,30,658.9,34.5,658.9,38.9z"/>
			<path d="M682,32.8v14.5h-2.8V32.8h-2.3v-2.4h2.3v-2.9c0-2.5,1.6-3.7,4.4-3.7c0.4,0,0.8,0,1.3,0.1v2.5c-0.4,0-0.8-0.1-1.2-0.1
				c-1.2,0-1.7,0.6-1.7,2v2.1h2.8v2.4H682z"/>
			<path d="M701.6,26.8h7.8c1.5,0,4.2,0.3,4.2,3.9c0,3.4-2.4,4-4.7,4h-7.3V26.8z M701.6,37.4h7.6c3.7,0,4.1,2.2,4.1,4.1
				c0,0.9,0.1,4.4,0.5,5.8h3.8v-0.5c-1-0.5-1.1-1-1.2-2.3l-0.2-4.2c-0.1-3.2-1.5-3.8-2.8-4.4c1.5-0.9,3.2-2.1,3.2-5.5
				c0-4.9-3.8-6.2-7.6-6.2h-10.7v23.2h3.1V37.4z"/>
			<path d="M723.9,37.5c0-2.6,2.1-5,4.7-5c3.5,0,4.5,2.4,4.7,5H723.9z M733.1,42c-0.1,1.3-1.7,3.3-4.4,3.3c-3.3,0-4.9-2-4.9-5.5
				h12.3c0-6-2.4-9.8-7.3-9.8c-5.6,0-8.1,4.2-8.1,9.4c0,4.9,2.8,8.5,7.5,8.5c2.7,0,3.8-0.6,4.6-1.2c2.1-1.4,2.9-3.8,3-4.6H733.1z"/>
			<path d="M742.2,38.8c0-2.2,0.2-6.3,4.6-6.3c4.1,0,4.5,4.4,4.5,7.2c0,4.5-2.8,5.7-4.6,5.7C743.6,45.3,742.2,42.5,742.2,38.8z
				 M754.2,24.2h-2.8v8.7h-0.1c-0.7-1-2-2.9-5-2.9c-4.5,0-7,3.7-7,8.4c0,4,1.7,9.4,7.4,9.4c1.6,0,3.6-0.5,4.8-2.8h0.1v2.3h2.7V24.2z
				"/>
			<path d="M785,31.1c-0.9-4.1-4.3-4.8-6.5-4.8c-4.2,0-7.6,3.1-7.6,9.2c0,5.5,1.9,9.6,7.7,9.6c2,0,5.5-1,6.6-6.4h3
				c-1.3,8.7-8.4,9.1-10.1,9.1c-5.3,0-10.4-3.4-10.4-12.3c0-7.1,4.1-12.1,10.8-12.1c6,0,9.1,3.7,9.5,7.6H785z"/>
			<path d="M795.6,47.3h-2.8V30.4h2.7v2.8h0.1c1.1-2,2.6-3.3,4.7-3.3c0.4,0,0.5,0,0.7,0.1V33h-1.1c-2.6,0-4.3,2.1-4.3,4.5V47.3z"/>
			<path d="M805.7,38.9c0-2.3,0.8-6.5,4.9-6.5c4.1,0,4.9,4.2,4.9,6.5c0,2.3-0.8,6.5-4.9,6.5C806.5,45.3,805.7,41.1,805.7,38.9z
				 M802.8,38.9c0,4.4,2.5,8.9,7.8,8.9c5.4,0,7.8-4.5,7.8-8.9c0-4.4-2.5-8.9-7.8-8.9C805.2,30,802.8,34.5,802.8,38.9z"/>
			<path d="M831.9,35.3c0-1.1-0.4-2.8-4-2.8c-0.9,0-3.4,0.3-3.4,2.4c0,1.4,0.9,1.7,3.1,2.3l2.8,0.7c3.5,0.9,4.7,2.2,4.7,4.5
				c0,3.5-2.9,5.6-6.7,5.6c-6.7,0-7.2-3.9-7.3-5.9h2.7c0.1,1.3,0.5,3.5,4.5,3.5c2,0,3.9-0.8,3.9-2.7c0-1.4-0.9-1.8-3.4-2.4l-3.3-0.8
				c-2.4-0.6-3.9-1.8-3.9-4.1c0-3.7,3.1-5.4,6.4-5.4c6,0,6.5,4.5,6.5,5.3H831.9z"/>
			<path d="M848.7,35.3c0-1.1-0.4-2.8-4-2.8c-0.9,0-3.4,0.3-3.4,2.4c0,1.4,0.9,1.7,3.1,2.3l2.8,0.7c3.5,0.9,4.7,2.2,4.7,4.5
				c0,3.5-2.9,5.6-6.7,5.6c-6.7,0-7.2-3.9-7.3-5.9h2.7c0.1,1.3,0.5,3.5,4.5,3.5c2,0,3.9-0.8,3.9-2.7c0-1.4-0.9-1.8-3.4-2.4l-3.3-0.8
				c-2.4-0.6-3.9-1.8-3.9-4.1c0-3.7,3.1-5.4,6.4-5.4c6,0,6.5,4.5,6.5,5.3H848.7z"/>
			<path d="M875.8,41.5c0,2.3-2.6,4-5.2,4c-2.1,0-3.1-1.1-3.1-2.9c0-2.1,2.2-2.5,3.6-2.7c3.5-0.5,4.2-0.7,4.7-1.1V41.5z M868,35.6
				c0.2-1.3,0.6-3.3,3.9-3.3c2.7,0,4,1,4,2.7c0,1.7-0.8,1.9-1.5,2l-4.7,0.6c-4.7,0.6-5.1,3.9-5.1,5.3c0,2.9,2.2,4.9,5.3,4.9
				c3.3,0,5-1.5,6.1-2.7c0.1,1.3,0.5,2.6,3,2.6c0.6,0,1.1-0.2,1.5-0.3v-2.1c-0.3,0.1-0.7,0.1-0.9,0.1c-0.6,0-0.9-0.3-0.9-1v-9.7
				c0-4.3-4.9-4.7-6.3-4.7c-4.2,0-6.8,1.6-7,5.6H868z"/>
			<path d="M897.8,47.3h-2.8V36.9c0-2.9-0.8-4.4-3.6-4.4c-1.6,0-4.5,1-4.5,5.6v9.2H884V30.4h2.7v2.4h0.1c0.6-0.9,2.2-2.9,5.1-2.9
				c2.6,0,5.9,1.1,5.9,5.9V47.3z"/>
			<path d="M904.6,38.8c0-2.2,0.2-6.3,4.6-6.3c4.1,0,4.5,4.4,4.5,7.2c0,4.5-2.8,5.7-4.6,5.7C906,45.3,904.6,42.5,904.6,38.8z
				 M916.6,24.2h-2.8v8.7h-0.1c-0.7-1-2-2.9-5-2.9c-4.5,0-7,3.7-7,8.4c0,4,1.7,9.4,7.4,9.4c1.6,0,3.6-0.5,4.8-2.8h0.1v2.3h2.7V24.2z
				"/>
			<path d="M934.7,26.8h7.8c1.5,0,4.2,0.3,4.2,3.9c0,3.4-2.4,4-4.7,4h-7.3V26.8z M934.7,37.4h7.6c3.7,0,4.1,2.2,4.1,4.1
				c0,0.9,0.1,4.4,0.5,5.8h3.8v-0.5c-1-0.5-1.1-1-1.2-2.3l-0.2-4.2c-0.1-3.2-1.5-3.8-2.8-4.4c1.5-0.9,3.2-2.1,3.2-5.5
				c0-4.9-3.8-6.2-7.6-6.2h-10.7v23.2h3.1V37.4z"/>
			<path d="M957,37.5c0-2.6,2.1-5,4.7-5c3.5,0,4.5,2.4,4.7,5H957z M966.2,42c-0.1,1.3-1.7,3.3-4.4,3.3c-3.3,0-4.9-2-4.9-5.5h12.3
				c0-6-2.4-9.8-7.3-9.8c-5.6,0-8.1,4.2-8.1,9.4c0,4.9,2.8,8.5,7.5,8.5c2.7,0,3.8-0.6,4.6-1.2c2.1-1.4,2.9-3.8,3-4.6H966.2z"/>
			<path d="M975.3,38.8c0-2.2,0.2-6.3,4.6-6.3c4.1,0,4.5,4.4,4.5,7.2c0,4.5-2.8,5.7-4.6,5.7C976.7,45.3,975.3,42.5,975.3,38.8z
				 M987.3,24.2h-2.8v8.7h-0.1c-0.7-1-2-2.9-5-2.9c-4.5,0-7,3.7-7,8.4c0,4,1.7,9.4,7.4,9.4c1.6,0,3.6-0.5,4.8-2.8h0.1v2.3h2.7V24.2z
				"/>
			<path d="M1018.1,31.1c-0.9-4.1-4.3-4.8-6.5-4.8c-4.2,0-7.6,3.1-7.6,9.2c0,5.5,1.9,9.6,7.7,9.6c2,0,5.5-1,6.6-6.4h3
				c-1.3,8.7-8.4,9.1-10.1,9.1c-5.3,0-10.4-3.4-10.4-12.3c0-7.1,4.1-12.1,10.8-12.1c6,0,9.1,3.7,9.5,7.6H1018.1z"/>
			<path d="M1028.7,47.3h-2.8V30.4h2.7v2.8h0.1c1.1-2,2.6-3.3,4.7-3.3c0.4,0,0.5,0,0.7,0.1V33h-1.1c-2.6,0-4.3,2.1-4.3,4.5V47.3z"/>
			<path d="M1039.1,37.5c0-2.6,2.1-5,4.7-5c3.5,0,4.5,2.4,4.7,5H1039.1z M1048.3,42c-0.1,1.3-1.7,3.3-4.4,3.3c-3.3,0-4.9-2-4.9-5.5
				h12.3c0-6-2.4-9.8-7.3-9.8c-5.6,0-8.1,4.2-8.1,9.4c0,4.9,2.8,8.5,7.5,8.5c2.7,0,3.8-0.6,4.6-1.2c2.1-1.4,2.9-3.8,3-4.6H1048.3z"
				/>
			<path d="M1065,35.3c0-1.1-0.4-2.8-4-2.8c-0.9,0-3.4,0.3-3.4,2.4c0,1.4,0.9,1.7,3.1,2.3l2.8,0.7c3.5,0.9,4.7,2.2,4.7,4.5
				c0,3.5-2.9,5.6-6.7,5.6c-6.7,0-7.2-3.9-7.3-5.9h2.7c0.1,1.3,0.5,3.5,4.5,3.5c2,0,3.9-0.8,3.9-2.7c0-1.4-0.9-1.8-3.4-2.4l-3.3-0.8
				c-2.4-0.6-3.9-1.8-3.9-4.1c0-3.7,3.1-5.4,6.4-5.4c6,0,6.5,4.5,6.5,5.3H1065z"/>
			<path d="M1082.7,36.1c-0.4-2.3-1.6-3.6-4-3.6c-3.5,0-4.6,3.4-4.6,6.4c0,2.9,0.7,6.5,4.6,6.5c1.9,0,3.5-1.4,4-4h2.7
				c-0.3,2.7-1.9,6.5-6.9,6.5c-4.7,0-7.5-3.6-7.5-8.5c0-5.2,2.5-9.4,8.1-9.4c4.4,0,6.1,3.2,6.3,6.2H1082.7z"/>
			<path d="M1091.2,37.5c0-2.6,2.1-5,4.7-5c3.5,0,4.5,2.4,4.7,5H1091.2z M1100.5,42c-0.1,1.3-1.7,3.3-4.4,3.3c-3.3,0-4.9-2-4.9-5.5
				h12.3c0-6-2.4-9.8-7.3-9.8c-5.6,0-8.1,4.2-8.1,9.4c0,4.9,2.8,8.5,7.5,8.5c2.7,0,3.8-0.6,4.6-1.2c2.1-1.4,2.9-3.8,3-4.6H1100.5z"
				/>
			<path d="M1121.3,47.3h-2.8V36.9c0-2.9-0.8-4.4-3.6-4.4c-1.6,0-4.5,1-4.5,5.6v9.2h-2.8V30.4h2.7v2.4h0.1c0.6-0.9,2.2-2.9,5.1-2.9
				c2.6,0,5.9,1.1,5.9,5.9V47.3z"/>
			<path d="M1129.6,32.8v11c0,1.3,1.1,1.3,1.7,1.3h1v2.2c-1,0.1-1.8,0.2-2.1,0.2c-2.8,0-3.4-1.6-3.4-3.6V32.8h-2.3v-2.4h2.3v-4.7
				h2.8v4.7h2.7v2.4H1129.6z"/>
			<path d="M1159.7,30.9c-0.2-3.6-3.1-4.7-5.7-4.7c-2,0-5.3,0.5-5.3,4.1c0,2,1.4,2.6,2.7,2.9l6.6,1.5c3,0.7,5.3,2.5,5.3,6.2
				c0,5.5-5.1,7-9.1,7c-4.3,0-6-1.3-7-2.2c-2-1.8-2.4-3.7-2.4-5.9h2.9c0,4.2,3.4,5.4,6.4,5.4c2.3,0,6.1-0.6,6.1-3.9
				c0-2.4-1.1-3.2-4.9-4.1l-4.7-1.1c-1.5-0.4-4.9-1.4-4.9-5.5c0-3.6,2.4-7.2,8-7.2c8.1,0,8.9,4.8,9,7.4H1159.7z"/>
			<path d="M1169.5,38.9c0-2.3,0.8-6.5,4.9-6.5c4.1,0,4.9,4.2,4.9,6.5c0,2.3-0.8,6.5-4.9,6.5C1170.3,45.3,1169.5,41.1,1169.5,38.9z
				 M1166.5,38.9c0,4.4,2.5,8.9,7.8,8.9s7.8-4.5,7.8-8.9c0-4.4-2.5-8.9-7.8-8.9S1166.5,34.5,1166.5,38.9z"/>
			<path d="M1196.6,36.1c-0.4-2.3-1.6-3.6-4-3.6c-3.5,0-4.6,3.4-4.6,6.4c0,2.9,0.7,6.5,4.6,6.5c1.9,0,3.5-1.4,4-4h2.7
				c-0.3,2.7-1.9,6.5-6.9,6.5c-4.7,0-7.5-3.6-7.5-8.5c0-5.2,2.5-9.4,8.1-9.4c4.4,0,6.1,3.2,6.3,6.2H1196.6z"/>
			<path d="M1205.8,47.3h-2.8V30.4h2.8V47.3z M1202.9,27.4v-3.2h2.8v3.2H1202.9z"/>
			<path d="M1212.9,37.5c0-2.6,2.1-5,4.7-5c3.5,0,4.5,2.4,4.7,5H1212.9z M1222.2,42c-0.1,1.3-1.7,3.3-4.4,3.3c-3.3,0-4.9-2-4.9-5.5
				h12.3c0-6-2.4-9.8-7.3-9.8c-5.6,0-8.1,4.2-8.1,9.4c0,4.9,2.8,8.5,7.5,8.5c2.7,0,3.8-0.6,4.6-1.2c2.1-1.4,2.9-3.8,3-4.6H1222.2z"
				/>
			<path d="M1232.7,32.8v11c0,1.3,1.1,1.3,1.7,1.3h1v2.2c-1,0.1-1.8,0.2-2.1,0.2c-2.8,0-3.4-1.6-3.4-3.6V32.8h-2.3v-2.4h2.3v-4.7
				h2.8v4.7h2.7v2.4H1232.7z"/>
			<path d="M1241.8,47.3h-2.8V30.4h2.8V47.3z M1238.9,27.4v-3.2h2.8v3.2H1238.9z"/>
			<path d="M1248.9,37.5c0-2.6,2.1-5,4.7-5c3.5,0,4.5,2.4,4.7,5H1248.9z M1258.2,42c-0.1,1.3-1.7,3.3-4.4,3.3c-3.3,0-4.9-2-4.9-5.5
				h12.3c0-6-2.4-9.8-7.3-9.8c-5.6,0-8.1,4.2-8.1,9.4c0,4.9,2.8,8.5,7.5,8.5c2.7,0,3.8-0.6,4.6-1.2c2.1-1.4,2.9-3.8,3-4.6H1258.2z"
				/>
			<path d="M1274.8,35.3c0-1.1-0.4-2.8-4-2.8c-0.9,0-3.4,0.3-3.4,2.4c0,1.4,0.9,1.7,3.1,2.3l2.8,0.7c3.5,0.9,4.7,2.2,4.7,4.5
				c0,3.5-2.9,5.6-6.7,5.6c-6.7,0-7.2-3.9-7.3-5.9h2.7c0.1,1.3,0.5,3.5,4.5,3.5c2,0,3.9-0.8,3.9-2.7c0-1.4-0.9-1.8-3.4-2.4l-3.3-0.8
				c-2.4-0.6-3.9-1.8-3.9-4.1c0-3.7,3.1-5.4,6.4-5.4c6,0,6.5,4.5,6.5,5.3H1274.8z"/>
		</g>
	</g>
	<g>
		<path d="M893.3,131.1c0,0,1.6,8.7,1.9,11.4c0.3,2.7,0.4,3.2,0.4,4.4c-0.1,1-0.3,2.8-0.8,4.3c-0.5,1.8-0.8,2-0.8,2l-0.9-0.6
			c0,0,0.7-1.9,0.3-7.2c-0.2-1.6-0.7-4.8-0.7-4.8s-0.9-3.8-0.8-5.4C891.9,133.9,893.3,131.1,893.3,131.1z"/>
		<path d="M805.3,131.2l0.7,0.3c0,0,0.2,1.1,0.4,1.3c0.6,0.4,1.5,1,2.1,1.4c-0.2-0.4-0.9,3.3-0.9,3.3s-0.7,0.3-0.6,0.5
			c0.2,1,0.3,2,0.4,2.5c0.3,1.9,0.7,3.8,1,5.6c0.4,1.9,0.3,4.2,0.3,6.3c-3.6,0-7.2,0-10.8,0c-1.6,0-3.9,0.2-5.3-0.1
			c-0.4-0.1-0.7-0.3-0.9-0.6c-0.8-1-0.3-3.2-0.3-4.4c0.2,0,0.1,0,0.1-0.1c0.1,0,0.2,0,0.3,0c0.3,0.6,0.9,1,1.5,1.2
			c0.6,0.2,5.1,0.2,5.7,0c0.2-0.1,0.3-0.2,0.4-0.4c0.4-0.9-0.9-3.7-1.6-4.4c-0.4-0.5-1.4-1.1-1.7-1.7c-0.1-0.1,0.8-5,0.8-5
			c0.5,0.6,1.5,1.6,2,2.3c1.3,2.2,1.9,4.9,1.9,7.7c0,0.3-0.1,1.3,0.1,1.3c0,0,0,0.1,0,0.1c0.5,0.1,1,0.1,1.6,0.2
			c0.4-0.1,0.7-0.1,1-0.2c0.8-0.1,2.8,0.2,3.3-0.3c0.2-0.2,0.2-0.5,0.2-0.8c-0.2-1-0.4-1.9-0.5-2.9c-0.4-2.4-0.6-4.8-1.3-7.2
			c-0.2-0.6-1.3-1.4-1.4-1.5C803.8,135.7,805.3,131.2,805.3,131.2z"/>
		<path d="M841,131.4c0.5,0.3,0.7,1,0.9,1.6c0.4,1.1,0.8,2.7,0.9,3.9c0.2,2.8-0.3,8.4,0.6,10.1c0.2,0.5,0.6,0.8,1.1,1
			c1,0.3,2.5,0.1,3.6,0.1c2.9,0,5.8,0,8.8,0c0.2-0.2,0.7-0.4,0.7-0.8c-0.1-0.1-0.2-0.2-0.3-0.2c-1.9-1.6-5-4.1-6.9-3.2
			c-0.2,0.1-0.6,0.4-1.2,0.4c-0.2-0.1-0.4-1,2.6-3.3c3-2.3,6.6,2.2,8.6,4.3c0.8,0.8,1.9,2,2.6,2.2c2.5,0.6,9.6,0.4,8.8,0.4
			c1.7,0-1.1-2.8-1.2-3.5c-0.1-0.9,1-4.3,1-3.7c0.1-0.1,0.3,0.4,0.4,0.4c2.2,3.2,1.6,3.2,1.6,11.1c-8.2,0-16.1,0.1-24.2,0.1
			c-1.8,0-5.4,0.4-6.7-0.5c-1.9-1.3-1.9-7.4-1.9-10c0-1.9,0.2-4-0.6-5.5c-0.1-0.2-0.9-1.3-0.7-1.3
			C840.1,133.7,840.8,132.7,841,131.4z"/>
		<path d="M770.2,131.5l0.6,0.3c0,0,0.1,0.7,0.3,1c0.4,0.5,1.7,1.5,2.3,1.5c-0.1,1-0.5,3.8-1.7,3.8c0.6,3.5,1.4,7,1.8,10.6
			c0,1.3,0,2.6,0,3.9c-1.6,0-10.4-0.3-11.1,0.3c-0.3,0.2-0.2,0.6,0,0.8c0.3,0.2,0.8,0.4,0.9,0.7c0.4,0.7-0.7,3.3-1,3.9
			c-1.2,2.5-8.8,3.2-11.7,2.9c-1.7-0.2-4.1-1.2-4.7-3c-0.2-0.8-0.2-2.4,0-3.2c0.2-0.6,0.4-1.3,0.7-1.9c0.4-0.8,2.9-5.7,3.8-5.7
			c0.1,0.2,0.6,0.3,0.6,0.5c-0.2,0.5-0.8,1.2-1.1,1.6c-0.9,1.3-1.7,2.7-1.9,4.3c-0.5,3.5,4.1,4.2,6.7,4.2c1,0,1.8-0.3,2.7-0.3
			c0.4-0.2,1.1-0.3,1.6-0.3c0.5-0.3,2.9-0.7,2.5-1.7c-0.3-0.8-3.8-0.3-4.7-0.9c-0.8-0.6,1.2-4.1,1.8-4.6c2.9-2.3,7.6-1.6,11.7-1.6
			c1,0,0.7-0.1,1.6-0.1c-0.1-2.6-1-5.1-1.4-7.6c-0.2-1.1-0.8-4-0.8-4l-1-0.7L770.2,131.5z"/>
		<path d="M811.5,131.6c0,0,0.4,1.9,0.6,2.7c0.8,4.2,1.9,9.1,1.7,13.6c0,1.6-0.4,2.9-1,4.2c-0.1,0.3-0.5,1.5-0.5,1.5l-0.8-0.5
			c0,0,0.3-2.1,0.4-2.9c0.1-0.8,0-1.7-0.1-2.5c-0.2-2-0.4-4-0.7-6c0.1,0.3-0.4-2.3-0.6-3.8c-0.1-0.8-0.4-2.7-0.4-2.7L811.5,131.6z"
			/>
		<path d="M835,137c0.7,0.3,1.3,1.2,1.8,1.8c2,2.5,1.9,5.5,1.9,6.8c0.1,3.8,0.1,6.7,0.1,6.7s-8.1,0.4-8.9-0.5c-0.8-1-0.9-3-0.6-4.2
			c0.3-1.8,0.6,0.6,2.4,0.6c0.9,0,4.7,0.1,5.3-0.1c0.2-0.1,0.4-0.3,0.4-0.5c0.3-1.3-1.2-3.7-2-4.6c-0.3-0.4-1.3-1.2-1.3-1.2
			S834.3,140.5,835,137z"/>
		<path d="M788.9,149.1c0-2.8,0.1-7.7-3.3-8c-0.6,0.4-1.3,0.7-1.7,1.4c-1.4,2-2.9,7.6-0.2,9.2c0.8,0.5,2,0.4,3.1,0.4
			c0,0.9-1.2,1.9-1.8,2.4c-2.7,2.2-5.1,3.1-8.5,1.6c-0.4-0.2-1.7-1.3-1.7-1.3l-0.7,0.8c0,0,4,2.8,4.6,3.1c1.1,0.6,2.4,1.1,3.8,1
			c3-0.4,5.4-3.7,6.2-6.4C789,152.2,788.9,150.6,788.9,149.1z M787.2,148.4c0,0.2-0.6,0.1-0.8,0.1c-2.4,0-3.2-1.9-1.3-3.3
			c1.6,0.3,2.2,1.6,2.2,3.1C787.3,148.4,787.2,148.4,787.2,148.4z"/>
		<path d="M886.5,133.5c-0.6-0.4-0.7-1.4-0.7-1.4l-0.6-0.1l-0.8,4c0,0,0.9,0.9,1,1.5c0.3,1.5-0.3,5.8-1.3,6.6c0,0-0.4-1.1-4.1-5.6
			c-2.6-3.1-5.8-5.2-5.8-5.2l-0.8,0.9l-2.5-1.5l-1.6,2.8l-2.2-1.4l-1.6,2.9l2.5,1.7l1.6-2.6l2.3,1.4c0,0,1.5-2.5,1.5-2.4
			c-0.1,2.4,0.5,3.3,0.8,3.8c0.5,1.3,2.2,2.2,3.4,2.6c0-0.3,0.7-0.7,0.9-0.8c0,0,4.5,5.1,4.7,5.2c0,0.1-0.1,0.2-0.1,0.3
			c-0.5,0.8-1.5,1.8-2.3,2.4c-0.5,0.3-1.7,0.8-1.9,1.3c-0.3,0.7-0.2,4.2-0.2,4.2s6,0.5,7.5-1.3c0.6-0.7,0.5-3.9,0.1-4.7
			c-0.3-0.6-1.1-1.6-1.1-2.3c0-0.4,0.3-0.8,0.4-1.2c0.3-0.8,0.6-1.5,0.8-2.4c0.1-0.7,0.4-2.1,0.4-2.1s0-1.5,0.3-2c0,0,0,0,0,0
			l1.2,0.2l0.5-3.9C888.8,134.5,887.2,133.8,886.5,133.5z M883.3,149.9c-0.5,0.1-1.2,0.3-1.5-0.1c-0.1,0,0.4-0.4,1.2-1
			c0.8-0.8,1.1-1.1,0.9-1.2c0.5,0.3,0.9,0.9,1,1.4C884.9,149,884.6,149.6,883.3,149.9z"/>
		<path d="M344.7,131.3c-0.1-0.1,0.7,1.4-0.3,1.2c-0.6-0.2-2.4-0.4-2,0.7c0.2,0.6,1.3,1.2,2.2,1.1c0.4-0.1,0.7-0.1,1.2-0.1
			c0,0.2,0.1,0.2-0.1,0.3c-1.7,0.7-2.8,1.1-4.1,1.6c-0.3,0.1-0.6,0.2-0.9,0.3c0-0.1-0.1,0-0.1-0.1c0,0,0.1-0.1,0.2-0.1
			c0.3-0.3,0.8-0.6,0.9-1c0.1-0.6-0.4-1-0.4-1.5c0-0.9,1.4-2.5,2.5-2.6C344.3,131,344.5,131.1,344.7,131.3z"/>
		<path d="M643.1,145c0,0,0.8,0.4,0.8,0.4c-0.5,1.3-1.5,2.7-1.1,4.4c0.5,2.3,1.9,2,4,2c0,0,13.8,0,13.8,0c0-0.1,0-0.2,0-0.3
			c0-1.1-1.7-3-1.7-3l1.4-3.5c0,0,1.2,2.2,1.4,3.3c0.5,2.4,0.3,5.2,0.3,7.8c-6.4,0-15.1,0-16.1,0c-1.2,0-2-0.2-2.8-0.8
			c-2.1-1.6-2.1-5.2-1.3-7.5C642.1,146.9,642.6,146,643.1,145z"/>
		<path d="M621.4,150.2c-0.6-3.5-1.4-8.3-1.4-8.3l0.6,0.1l0.9-3.8c0,0-1.2-0.6-2.3-1.2c-0.4-0.4-0.5-1.5-0.5-1.5l-0.6-0.3l-1.8,4.5
			c0,0,1.4,0.9,1.6,1.5c0.7,3.9,1.7,10.1,1.5,10.8c-1.1,0-3.7,0-5.7,0c-0.6,0-0.2-2.3-0.3-3c-0.2-2-1.2-4.1-3.3-4.4
			c-1-0.1-2,0.1-2.7,0.5c-1.9,1.3-3.7,2.7-5.6,4c-1.6,1.2-3.4,2.6-5.3,3c-3.5,0.8-2.4-4.3-2.4-4.3l-0.9-0.1c0,0-0.1,0.7-0.2,0.9
			c-1.1,3-2.7,3.9-5.2,3.4c-0.3-0.1-0.5-0.2-0.6-0.5c-0.6-2.9-1.7-9.8-1.7-9.8l0.7,0c0,0,0.8-2.6,1-3.5c-1.3-0.4-2.1-1-2.6-1.7
			c0,0-0.2-1.1-0.2-1.1l-0.5-0.2c0,0-1.4,2.5-1.7,4.7c-0.1,0.6,0.8,0.4,1.1,0.9c0.7,3.2,0.8,4.9,2,10.5c0.2,0.7-0.3,0.7-0.3,0.7
			l-5.4,0c0,0-0.3-0.1-0.3-0.3c-0.1-0.6-0.2-2-0.4-3.2c-0.3-1.9-1.9-3.7-1.9-3.7l-1.1,4c0,0,0.9,1.2,1.3,1.7c0.3,0.5,0.9,1.4,0,1.5
			c-0.2,0-6.6,0-6.8,0c0,0-0.3,0-0.3-0.4c0-0.6-0.1-1.8-0.2-2.6c-0.3-2.8-1.8-3.8-1.8-3.8l-1.3,3.6c0,0,1.3,1.4,1.7,2.3
			c0.1,0.3,0.3,0.9,0,0.9c-1,0-12.6,0-13.7,0c-2.3,0-5.7-0.4-2.6-6.1c-0.4-0.4-0.8-0.9-0.9-1c-0.5,0.6-0.7,0.9-1.5,2.7
			c-0.4,0.9-0.8,3-0.7,4c0,1.2,0.6,2.2,1.3,3c0.6,0.7,1.5,1.4,3.1,1.4c0.1,0,7,0,17.8,0c3.4,0,18.5,0,19,0c1.6,0,2.7-1.8,2.7-1.8
			s0.4,1.8,2.5,1.8c2,0,26.4,0,26.4,0S622.1,152.6,621.4,150.2z M602.3,152.1c-0.7-0.2,3.5-2.5,5-3c2.1-0.7,4.2,0.5,4.2,1.5
			C611.4,152.8,604,152.7,602.3,152.1z"/>
		<path d="M731.4,151.3c-0.5-3-1.4-6.4-1.7-9.4v-0.3c0-0.4,0.4-0.1,0.7-0.3c0.1-0.3,0.6-2.7,0.8-3.6c-0.5,0-2.5-1.6-2.5-1.6l0.1-1.1
			l-0.7-0.4l-1.7,4.6l1.2,0.9c0,0,2.1,10.7,2.1,10.8c0,0.3,0.1,0.9-0.6,0.9c-0.7,0-6.5,0.3-7-0.2c-2.5-2.2-7.3-9.7-11.5-6.7
			c-3,2.1-2.7,3.2-2.7,3.2s1.5-0.5,2.4-0.3c4,0.8,6.2,4.2,6.2,4.2l-11,0c0,0-0.2-2.2-0.4-2.9c-0.3-0.9-1.7-3.8-3-3.6
			c-1.5,0.2-3,2.3-3.6,3.5c-0.4,0.7-0.6,1.3-1.1,1.9c-1,1.2-1.4,1.1-1.4,1.1h-7.8c0,0-0.5,0-0.4-0.8c0-0.6,0.6-1.2,0.9-1.7
			c0.6-1.1,0.8-3-0.2-4c-1.5-1.5-5.6-1.7-7.1,0c-1.7,1.9-1,4.5-1,4.5s0.4-1.1,1.4-0.7c0.7,0.3,1.8,1.5,1.3,2.2
			c-0.2,0.4-1.1,0.5-1.1,0.5l-2.7,0c0,0-0.4-3.2-0.6-4c-0.5-2.3-1.8-3.1-1.8-3.1l-1,3.4c0,0,1.2,2.1,1.7,3c0.3,0.7-0.2,0.8-0.2,0.8
			l-10.1,0c0,0-1.7,0-1.4-11.8c0.1-4-1.7-4.8-1.7-4.8l-1.7,4.1c0,0,1.2,0.5,1.5,2.7c0,0.6-1,11.4,1.5,13.5c0.8,0.7,1.6,0.7,1.6,0.7
			l14.3,0c0,0,1.2,0.1,2.1-0.6c0.6-0.5,1.7-1.4,1.7-1.4s1.1,1.1,1.6,1.4c0.8,0.4,1.6,0.6,2.6,0.6c2,0,4.4,0.2,6.1-0.3
			c0.5-0.2,1-0.4,1.5-0.7c0.4-0.3,1.3-1,1.3-1s1.3,0.8,1.8,1c2.9,1.1,5.2,1,5.2,1l26.1,0C731.5,156.3,731.4,152.9,731.4,151.3z
			 M702.6,151.8c-0.6,0-2.9-0.6-3.1-1.2c-0.2-0.6,0.6-1.2,1-1.6C701.9,149.5,703.1,150.5,702.6,151.8z"/>
		<path d="M511.6,151.2c-2.6-2.2-4.2-4.8-7.2-6.3c-0.8-0.4-2.1-1.1-3.7-0.2c-1,0.6-2,1.4-2.7,3.6c0.6-0.1,0.9-0.3,2.1-0.2
			c1.4,0,6.1,2.2,6,3.8c0,0.4-0.3,0.4-0.3,0.4h-9.9c0,0-0.4,0-0.4-0.4c-0.1-2.1-1.6-6.2-3.1-6.5c-1.3-0.3-3.2,2.1-3.7,3.1
			c-0.5,0.9-1,2-1.9,2.7c-0.9,0.6-1.8,1.1-3,1.1c-0.6,0-1.6,0-2.1-0.3c-0.6-0.3-0.4-1.5-0.6-3c-0.2-1.4-1.8-3.2-1.8-3.2
			s-0.4,1.2-0.9,4.4c1,1.1,2.6,3,1.9,4.5c-1.3,2.6-5.7,6.5-8.5,6.5c-1.8,0-3.8-1.8-3.8-1.8l-0.7,1.1c0,0,4.8,3.8,7.8,3.3
			c3.2-0.5,4.6-3,5.7-4.9c0.4-0.6,1.2-2.6,1.2-2.6s0.7,0.2,1.5,0.2c4,0,4.3-2.3,4.3-2.3s1.4,0.9,2.1,1.2c1.5,0.5,3.7,0.9,5.2,0.9
			c0.1,0,18.5,0,18.5,0v-4.4C513.6,151.9,512.5,151.9,511.6,151.2z M492.5,151.6c-0.4,0.6-1.5,0-3.1-0.8c-0.5-0.2,0.9-1.7,1-1.7
			C491.6,149.3,492.9,151,492.5,151.6z"/>
		<path d="M525.6,137.4l0-1l-0.9-0.5c0,0-0.8,3.6-0.8,5c0,0.1,1.1,0.5,1.1,0.6c-0.1,1.5-0.8,6.8-1.3,6.9c-0.2,0-1-1.2-1.1-1.4
			c-1.8-2.6-4.1-6.5-7.8-8.8c0.4,0.2-1.1-0.8-1.4-0.4c-0.4,0.5,0.2,5.9,0.1,5c0.6,2,3.8,3.1,3.8,3.1s0.7-0.9,0.7-0.9
			c1.6,1.8,3.8,4.3,4.5,5.4c0.2,0.3-2.3,2.7-4.2,3.7c0,1.3,0,1.9,0,4.4c2.3,0,6-0.2,7.9-1.3c-0.1,0.1,0.2-3.6,0.2-3.8
			c-0.2-0.9-1.6-3.2-1.6-3.4c0,0.1,0.7-1.3,1.4-3.6c0.4-1.4,0.6-3.1,0.6-4.3c0,0,0.9,0.3,0.9,0.3l0.5-3.8L525.6,137.4z M522.9,153.9
			c-0.9,0.2-1.2,0.4-1.7,0.2c0.7-0.8,1.5-1.4,2.1-2.2C524.8,153.4,523.7,153.4,522.9,153.9z"/>
		<path d="M431,141.7c0.2,0,0.8,0.3,0.8,0.3l1.1-3.7c0,0-2.1-1.2-2.5-1.5c-0.5-0.5-0.1-1.3-0.1-1.3l-0.8-0.5c0,0-1.3,3.5-1.9,5.2
			c0.1,0,1.5,0.7,1.5,0.7s1.3,7.2,1.6,9.1c0.3,1.9,0.2,2.2,0.2,2.2h-12.7c0,0,0.8-0.6,1.2-0.9c1.1-1,1.4-2.1,1.5-3.9
			c0-1.7-0.1-4.4-1.8-4.9c-1.6-0.5-3.7,3.8-4.4,5.8c-0.5,1.6-0.9,3-1.3,3.6c-0.3,0.4-2.1,0.4-3.6,0.4c-2.6,0-3.1,0-3.2-0.4
			c-0.6-1.8-0.4-4.3-0.7-8.8c-0.1-2.2-0.9-6.9-1.3-7.3c0.1,0-1.8,3.8-1.8,3.8s0.9,5.2,0.8,7.5c-0.5,4.7-5.1,8-7.5,9.1
			c-2.8,1.3-4.9,0.9-4.9,0.9s0.3-1,0.1-4c-0.2-3-2.2-10.8-2.2-10.8s0.4,0.5,0.4,0.3c0.3-0.8,0.9-3.1,1.1-3.5c0.2,0,0.3,0.1,0.5,0.1
			c0,0.9,0.2,2.2,0.6,3c0.4,0.9,2.6,3.1,3.7,3.5c0,0,0.7-1,0.8-1.2c2.2,0.1,4.5,3.7,5,5.5c0.1,0,0.2,0,0.3,0c0-1.3,0.3-2.6-0.2-3.9
			c-1.1-2.7-6.9-7.9-9.7-8c-0.5,0-0.7,0.6-0.7,0.6l-2.5-1.6l-0.2-1.2l-0.6-0.4l-1.6,4.9l1.2,0.8c0,0,0.5,3.4,0.9,5.2
			c0.5,2.5,1.9,7.6,0.4,9.6c-0.8,1-1.8,1.6-3,1.9c0.6-0.2-3.1,1.4-5.8,0.1c-2.2-1.1-2-4.2-1.2-6.2c0.5-1,1.7-2.8,1.7-2.8l-0.7-0.6
			c0,0-1,1.2-1.7,2.5c-0.7,1.3-1.7,4.6-1.5,6.7c0.3,3.9,3.7,5.5,7.4,4.7c4-0.9,5.6-2.1,7.2-4.3c1.4,0.1,2.6,0.1,3.6,0.1
			c2.2-0.1,4.4-0.8,6.1-1.9c1.3-0.9,2.1-2.2,2.8-3.5c0.2-0.5,0.5-0.9,0.7-1.4c0.7-0.7,0.6-0.1,0.6,0.4c0.3,4.5,1.5,4.5,2.3,4.5
			c2.5,0,4.9,0,4.9,0s0.6,0,0.7,0.7c0.2,0.9,0.3,2.6,0.5,3.4c0.4,1.6,1.9,3.5,3.6,3.9c0.7,0.2,1.9,0.3,2.4-0.2
			c0.7-0.6,2.3-2.6,2.3-5.9c0-1.2-1.9-2-1.9-2h13.2c0,0,0.1-3.4-0.2-5.1C432.2,147.8,431.1,142.2,431,141.7z M417.2,147.4
			c0.5-0.3,1.6,1.2,1.1,2.2c-0.4,0.6-2.3,1.8-2.9,1.5C414.9,150.8,416.6,147.7,417.2,147.4z M419,160.4c-0.3,0.4-1.5,0.4-2.8-0.7
			c-1.2-0.9-1.9-2.6-1.8-2.8c0.2-0.2,1.9,0.2,3.1,1C418.7,158.7,419.4,159.9,419,160.4z"/>
		<polygon points="751.5,164.1 753,162.4 754.8,163.4 756.2,162.1 758,163.2 756.6,164.8 754.8,164 753.5,165.4 		"/>
		<polygon points="647.8,143.7 649.5,140.7 651.8,142 653.3,139.2 656.1,140.8 654.4,144 652.1,142.7 650.6,145.3 		"/>
		<polygon points="670.9,162.4 672.4,159.5 674.6,160.5 676.3,157.9 679.1,159.5 677.3,162.7 675,161.5 673.6,164.1 		"/>
		<polygon points="713.8,158.3 717.2,160.1 715.4,163.6 712,161.7 		"/>
		<polygon points="560.3,158.8 563.8,160.8 561.9,164.2 558.4,162.2 		"/>
		<polygon points="576.4,158.5 579.2,160.1 577.7,163.2 575.3,161.9 573.8,164.6 571,162.8 572.6,159.8 575,161.1 		"/>
		<path d="M624.5,135.5l-1.7,4.3c0,0,2,10.7,2.1,12.9c0.1,2.7-0.6,4.7-0.6,4.7l0.9,0.7c0,0,1.4-2.3,1.6-4c0.2-1.7,0.1-6-0.5-9.7
			C625.6,140.6,624.5,135.5,624.5,135.5z"/>
		<path d="M532.8,134.8l-1.7,4.3c0,0,2,10.7,2.1,12.9c0.1,2.7-0.6,4.7-0.6,4.7l0.9,0.7c0,0,1.4-2.3,1.6-4c0.2-1.7,0.1-6-0.5-9.7
			C534,140,532.8,134.8,532.8,134.8z"/>
		<path d="M338.6,151.2c-2.6-2.2-4.2-4.8-7.2-6.3c-0.8-0.4-2.1-1.1-3.7-0.2c-1,0.6-2,1.4-2.7,3.6c0.6-0.1,0.9-0.3,2.1-0.2
			c1.4,0,6.1,2.2,6,3.8c0,0.4-0.3,0.4-0.3,0.4h-9.9c0,0-0.4,0-0.4-0.4c-0.1-2.1-1.6-6.2-3.1-6.5c-1.3-0.3-3.2,2.1-3.7,3.1
			c-0.5,0.9-1,2-1.9,2.7c-0.9,0.6-1.8,1.1-3,1.1c-0.6,0-1.6,0-2.1-0.3c-0.6-0.3-0.4-1.5-0.6-3c-0.2-1.4-1.8-3.2-1.8-3.2
			s-0.4,1.2-0.9,4.4c1,1.1,2.6,3,1.9,4.5c-1.3,2.6-5.7,6.5-8.5,6.5c-1.8,0-3.8-1.8-3.8-1.8l-0.7,1.1c0,0,4.8,3.8,7.8,3.3
			c3.2-0.5,4.6-3,5.7-4.9c0.4-0.6,1.2-2.6,1.2-2.6s0.7,0.2,1.5,0.2c4,0,4.3-2.3,4.3-2.3s1.4,0.9,2.1,1.2c1.5,0.5,3.7,0.9,5.2,0.9
			c0.4,0,18.5,0,18.5,0l0-4.4C340.6,151.9,339.3,151.8,338.6,151.2z M319.5,151.7c-0.4,0.6-1.5,0-3.1-0.8c-0.5-0.2,0.9-1.7,1-1.7
			C318.6,149.4,319.9,151.1,319.5,151.7z"/>
		<path d="M352.6,137.5l0-1l-0.9-0.5c0,0-0.8,3.6-0.8,5c0,0.1,1.1,0.5,1.1,0.6c-0.1,1.5-0.8,6.8-1.3,6.9c-0.2,0-1-1.2-1.1-1.4
			c-1.8-2.6-4.1-6.5-7.8-8.8c0.4,0.2-1.1-0.8-1.4-0.4c-0.5,0.5,0.2,5.9,0.1,5c0.6,2,3.8,3.1,3.8,3.1s0.7-0.9,0.7-0.9
			c1.6,1.8,3.8,4.3,4.5,5.4c0.2,0.3-2.3,2.7-4.2,3.7c0,1.3,0,1.9,0,4.4c2.3,0,6-0.2,7.9-1.3c-0.1,0.1,0.2-3.6,0.2-3.8
			c-0.2-0.9-1.6-3.2-1.6-3.4c0,0.1,0.7-1.3,1.4-3.6c0.4-1.4,0.6-3.1,0.6-4.3c0,0,0.9,0.3,0.9,0.3l0.5-3.8L352.6,137.5z M349.9,153.9
			c-0.9,0.2-1.2,0.4-1.7,0.2c0.7-0.8,1.5-1.4,2.1-2.2C351.8,153.5,350.7,153.5,349.9,153.9z"/>
		<path d="M359.8,134.9l-1.7,4.3c0,0,2,10.7,2.1,12.9c0.1,2.7-0.6,4.7-0.6,4.7l0.9,0.7c0,0,1.4-2.3,1.6-4c0.2-1.7,0.1-6-0.5-9.7
			C361,140,359.8,134.9,359.8,134.9z"/>
		<path d="M517.6,130.6c-0.1-0.1,0.7,1.4-0.3,1.2c-0.6-0.2-2.4-0.4-2,0.7c0.2,0.6,1.3,1.2,2.2,1.1c0.4-0.1,0.7-0.1,1.2-0.1
			c0,0.2,0.1,0.2-0.1,0.3c-1.7,0.7-2.8,1.1-4.1,1.6c-0.3,0.1-0.6,0.2-0.9,0.3c0-0.1-0.1,0-0.1-0.1c0,0,0.1-0.1,0.2-0.1
			c0.3-0.3,0.8-0.6,0.9-1c0.1-0.6-0.4-1-0.4-1.5c0-0.9,1.4-2.5,2.5-2.6C517.2,130.3,517.4,130.4,517.6,130.6z"/>
		<path d="M452.7,145c-2.2,0-3.3,2.5-3.9,5.3c-0.5,2.8,0.3,4.9,1.4,5.7c1.1,0.7,3.2,0.1,3.2,0.1s-1.9,3.5-5,4.3
			c-4.5,1.3-7-1.7-7-1.7l-0.7,0.8c0,0,4.6,4.9,7.9,4.7c4.2-0.2,7-5,7.3-9.4C456.3,150.4,456.1,145,452.7,145z M453.9,151.9
			c-0.1,0.4-1.3,0.7-2.2,0c-0.9-0.7-0.9-1.6-0.4-2.1c0.5-0.5,1.3-0.4,1.5-0.1C453.5,150.2,454,151.5,453.9,151.9z"/>
		<path d="M435.7,135.4l-1.7,4.3c0,0,2,10.7,2.1,12.9c0.1,2.7-0.6,4.7-0.6,4.7l0.9,0.7c0,0,1.4-2.3,1.6-4c0.2-1.7,0.1-6-0.5-9.7
			C436.9,140.5,435.7,135.4,435.7,135.4z"/>
	</g>
	<g>
		<path d="M297.9,83.2h-3.1V60h16v2.8h-12.9v7.1h11.4v2.8h-11.4V83.2z"/>
		<path d="M315.7,73.4c0-2.6,2.1-5,4.7-5c3.5,0,4.5,2.4,4.7,5H315.7z M325,77.9c-0.1,1.3-1.7,3.3-4.4,3.3c-3.3,0-4.9-2-4.9-5.5h12.3
			c0-6-2.4-9.8-7.3-9.8c-5.6,0-8.1,4.2-8.1,9.4c0,4.9,2.8,8.5,7.5,8.5c2.7,0,3.8-0.6,4.6-1.2c2.1-1.4,2.9-3.8,3-4.6H325z
			 M325.3,59.5h-3.5L319,64h2.2L325.3,59.5z"/>
		<path d="M334.1,74.7c0-2.2,0.2-6.3,4.6-6.3c4.1,0,4.5,4.4,4.5,7.2c0,4.5-2.8,5.7-4.6,5.7C335.5,81.2,334.1,78.4,334.1,74.7z
			 M346.1,60h-2.8v8.7h-0.1c-0.7-1-2-2.9-5-2.9c-4.5,0-7,3.7-7,8.4c0,4,1.7,9.4,7.4,9.4c1.6,0,3.6-0.5,4.8-2.8h0.1v2.3h2.7V60z"/>
		<path d="M352.9,73.4c0-2.6,2.1-5,4.7-5c3.5,0,4.5,2.4,4.7,5H352.9z M362.2,77.9c-0.1,1.3-1.7,3.3-4.4,3.3c-3.3,0-4.9-2-4.9-5.5
			h12.3c0-6-2.4-9.8-7.3-9.8c-5.6,0-8.1,4.2-8.1,9.4c0,4.9,2.8,8.5,7.5,8.5c2.7,0,3.8-0.6,4.6-1.2c2.1-1.4,2.9-3.8,3-4.6H362.2z
			 M362.5,59.5H359l-2.9,4.5h2.2L362.5,59.5z"/>
		<path d="M372.5,83.2h-2.8V66.3h2.7v2.8h0.1c1.1-2,2.6-3.3,4.7-3.3c0.4,0,0.5,0,0.7,0.1v2.9h-1.1c-2.6,0-4.3,2.1-4.3,4.5V83.2z"/>
		<path d="M390.6,77.3c0,2.3-2.6,4-5.2,4c-2.1,0-3.1-1.1-3.1-2.9c0-2.1,2.2-2.5,3.6-2.7c3.5-0.5,4.2-0.7,4.7-1.1V77.3z M382.8,71.4
			c0.2-1.3,0.6-3.3,3.9-3.3c2.7,0,4,1,4,2.7c0,1.7-0.8,1.9-1.5,2l-4.7,0.6c-4.7,0.6-5.1,3.9-5.1,5.3c0,2.9,2.2,4.9,5.3,4.9
			c3.3,0,5-1.5,6.1-2.7c0.1,1.3,0.5,2.6,3,2.6c0.6,0,1.1-0.2,1.5-0.3v-2.1c-0.3,0.1-0.7,0.1-0.9,0.1c-0.6,0-0.9-0.3-0.9-1v-9.7
			c0-4.3-4.9-4.7-6.3-4.7c-4.2,0-6.8,1.6-7,5.6H382.8z"/>
		<path d="M402.4,68.7v11c0,1.3,1.1,1.3,1.7,1.3h1v2.2c-1,0.1-1.8,0.2-2.1,0.2c-2.8,0-3.4-1.6-3.4-3.6V68.7h-2.3v-2.4h2.3v-4.7h2.8
			v4.7h2.7v2.4H402.4z"/>
		<path d="M411.4,83.2h-2.8V66.3h2.8V83.2z M408.6,63.2V60h2.8v3.2H408.6z"/>
		<path d="M418.3,74.7c0-2.3,0.8-6.5,4.9-6.5c4.1,0,4.9,4.2,4.9,6.5c0,2.3-0.8,6.5-4.9,6.5C419.1,81.2,418.3,77,418.3,74.7z
			 M415.4,74.7c0,4.4,2.5,8.9,7.8,8.9s7.8-4.5,7.8-8.9c0-4.4-2.5-8.9-7.8-8.9S415.4,70.4,415.4,74.7z"/>
		<path d="M448.6,83.2h-2.8V72.8c0-2.9-0.8-4.4-3.6-4.4c-1.6,0-4.5,1-4.5,5.6v9.2h-2.8V66.3h2.7v2.4h0.1c0.6-0.9,2.2-2.9,5.1-2.9
			c2.6,0,5.9,1.1,5.9,5.9V83.2z"/>
		<path d="M466,83.2h-2.8V66.3h2.8V83.2z M463.2,63.2V60h2.8v3.2H463.2z"/>
		<path d="M484.6,83.2h-2.8V72.8c0-2.9-0.8-4.4-3.6-4.4c-1.6,0-4.5,1-4.5,5.6v9.2h-2.8V66.3h2.7v2.4h0.1c0.6-0.9,2.2-2.9,5.1-2.9
			c2.6,0,5.9,1.1,5.9,5.9V83.2z"/>
		<path d="M493,68.7v11c0,1.3,1.1,1.3,1.7,1.3h1v2.2c-1,0.1-1.8,0.2-2.1,0.2c-2.8,0-3.4-1.6-3.4-3.6V68.7h-2.3v-2.4h2.3v-4.7h2.8
			v4.7h2.7v2.4H493z"/>
		<path d="M501.3,73.4c0-2.6,2.1-5,4.7-5c3.5,0,4.5,2.4,4.7,5H501.3z M510.6,77.9c-0.1,1.3-1.7,3.3-4.4,3.3c-3.3,0-4.9-2-4.9-5.5
			h12.3c0-6-2.4-9.8-7.3-9.8c-5.6,0-8.1,4.2-8.1,9.4c0,4.9,2.8,8.5,7.5,8.5c2.7,0,3.8-0.6,4.6-1.2c2.1-1.4,2.9-3.8,3-4.6H510.6z"/>
		<path d="M520.9,83.2h-2.8V66.3h2.7v2.8h0.1c1.1-2,2.6-3.3,4.7-3.3c0.4,0,0.5,0,0.7,0.1v2.9h-1.1c-2.6,0-4.3,2.1-4.3,4.5V83.2z"/>
		<path d="M543.6,83.2h-2.8V72.8c0-2.9-0.8-4.4-3.6-4.4c-1.6,0-4.5,1-4.5,5.6v9.2h-2.8V66.3h2.7v2.4h0.1c0.6-0.9,2.2-2.9,5.1-2.9
			c2.6,0,5.9,1.1,5.9,5.9V83.2z"/>
		<path d="M558.7,77.3c0,2.3-2.6,4-5.2,4c-2.1,0-3.1-1.1-3.1-2.9c0-2.1,2.2-2.5,3.6-2.7c3.5-0.5,4.2-0.7,4.7-1.1V77.3z M551,71.4
			c0.2-1.3,0.6-3.3,3.9-3.3c2.7,0,4,1,4,2.7c0,1.7-0.8,1.9-1.5,2l-4.7,0.6c-4.7,0.6-5.1,3.9-5.1,5.3c0,2.9,2.2,4.9,5.3,4.9
			c3.3,0,5-1.5,6.1-2.7c0.1,1.3,0.5,2.6,3,2.6c0.6,0,1.1-0.2,1.5-0.3v-2.1c-0.3,0.1-0.7,0.1-0.9,0.1c-0.6,0-0.9-0.3-0.9-1v-9.7
			c0-4.3-4.9-4.7-6.3-4.7c-4.2,0-6.8,1.6-7,5.6H551z"/>
		<path d="M570.5,68.7v11c0,1.3,1.1,1.3,1.7,1.3h1v2.2c-1,0.1-1.8,0.2-2.1,0.2c-2.8,0-3.4-1.6-3.4-3.6V68.7h-2.3v-2.4h2.3v-4.7h2.8
			v4.7h2.7v2.4H570.5z"/>
		<path d="M579.5,83.2h-2.8V66.3h2.8V83.2z M576.7,63.2V60h2.8v3.2H576.7z"/>
		<path d="M586.4,74.7c0-2.3,0.8-6.5,4.9-6.5s4.9,4.2,4.9,6.5c0,2.3-0.8,6.5-4.9,6.5S586.4,77,586.4,74.7z M583.5,74.7
			c0,4.4,2.5,8.9,7.8,8.9s7.8-4.5,7.8-8.9c0-4.4-2.5-8.9-7.8-8.9S583.5,70.4,583.5,74.7z"/>
		<path d="M616.8,83.2h-2.8V72.8c0-2.9-0.8-4.4-3.6-4.4c-1.6,0-4.5,1-4.5,5.6v9.2H603V66.3h2.7v2.4h0.1c0.6-0.9,2.2-2.9,5.1-2.9
			c2.6,0,5.9,1.1,5.9,5.9V83.2z"/>
		<path d="M631.9,77.3c0,2.3-2.6,4-5.2,4c-2.1,0-3.1-1.1-3.1-2.9c0-2.1,2.2-2.5,3.6-2.7c3.5-0.5,4.2-0.7,4.7-1.1V77.3z M624.1,71.4
			c0.2-1.3,0.6-3.3,3.9-3.3c2.7,0,4,1,4,2.7c0,1.7-0.8,1.9-1.5,2l-4.7,0.6c-4.7,0.6-5.1,3.9-5.1,5.3c0,2.9,2.2,4.9,5.3,4.9
			c3.3,0,5-1.5,6.1-2.7c0.1,1.3,0.5,2.6,3,2.6c0.6,0,1.1-0.2,1.5-0.3v-2.1c-0.3,0.1-0.7,0.1-0.9,0.1c-0.6,0-0.9-0.3-0.9-1v-9.7
			c0-4.3-4.9-4.7-6.3-4.7c-4.2,0-6.8,1.6-7,5.6H624.1z"/>
		<path d="M643.1,83.2h-2.8V60h2.8V83.2z"/>
		<path d="M650.2,73.4c0-2.6,2.1-5,4.7-5c3.5,0,4.5,2.4,4.7,5H650.2z M659.5,77.9c-0.1,1.3-1.7,3.3-4.4,3.3c-3.3,0-4.9-2-4.9-5.5
			h12.3c0-6-2.4-9.8-7.3-9.8c-5.6,0-8.1,4.2-8.1,9.4c0,4.9,2.8,8.5,7.5,8.5c2.7,0,3.8-0.6,4.6-1.2c2.1-1.4,2.9-3.8,3-4.6H659.5z"/>
		<path d="M678.1,74.7c0-2.2,0.2-6.3,4.6-6.3c4.1,0,4.5,4.4,4.5,7.2c0,4.5-2.8,5.7-4.6,5.7C679.6,81.2,678.1,78.4,678.1,74.7z
			 M690.2,60h-2.8v8.7h-0.1c-0.7-1-2-2.9-5-2.9c-4.5,0-7,3.7-7,8.4c0,4,1.7,9.4,7.4,9.4c1.6,0,3.6-0.5,4.8-2.8h0.1v2.3h2.7V60z"/>
		<path d="M697,73.4c0-2.6,2.1-5,4.7-5c3.4,0,4.5,2.4,4.7,5H697z M706.2,77.9c-0.1,1.3-1.7,3.3-4.4,3.3c-3.3,0-4.9-2-4.9-5.5h12.3
			c0-6-2.4-9.8-7.3-9.8c-5.6,0-8.1,4.2-8.1,9.4c0,4.9,2.8,8.5,7.5,8.5c2.7,0,3.8-0.6,4.6-1.2c2.1-1.4,2.9-3.8,3-4.6H706.2z"/>
		<path d="M722.9,71.1c0-1.1-0.4-2.8-4-2.8c-0.9,0-3.4,0.3-3.4,2.4c0,1.4,0.9,1.7,3.1,2.3l2.8,0.7c3.5,0.9,4.7,2.2,4.7,4.5
			c0,3.5-2.9,5.6-6.7,5.6c-6.7,0-7.2-3.9-7.3-5.9h2.7c0.1,1.3,0.5,3.5,4.5,3.5c2,0,3.9-0.8,3.9-2.7c0-1.4-0.9-1.8-3.4-2.4l-3.3-0.8
			c-2.4-0.6-3.9-1.8-3.9-4.1c0-3.7,3.1-5.4,6.4-5.4c6,0,6.5,4.5,6.5,5.3H722.9z"/>
		<path d="M754,66.8c-0.2-3.6-3.1-4.7-5.7-4.7c-2,0-5.3,0.5-5.3,4.1c0,2,1.4,2.6,2.7,2.9l6.6,1.5c3,0.7,5.3,2.5,5.3,6.2
			c0,5.5-5.1,7-9.1,7c-4.3,0-6-1.3-7-2.2c-2-1.8-2.4-3.7-2.4-5.9h2.9c0,4.2,3.4,5.4,6.4,5.4c2.3,0,6.1-0.6,6.1-3.9
			c0-2.4-1.1-3.2-4.9-4.1l-4.7-1.1c-1.5-0.4-4.9-1.4-4.9-5.5c0-3.6,2.4-7.2,8-7.2c8.1,0,8.9,4.8,9,7.4H754z"/>
		<path d="M763.9,74.7c0-2.3,0.8-6.5,4.9-6.5c4.1,0,4.9,4.2,4.9,6.5c0,2.3-0.8,6.5-4.9,6.5C764.7,81.2,763.9,77,763.9,74.7z
			 M760.9,74.7c0,4.4,2.5,8.9,7.8,8.9c5.4,0,7.8-4.5,7.8-8.9c0-4.4-2.5-8.9-7.8-8.9C763.4,65.8,760.9,70.4,760.9,74.7z"/>
		<path d="M791,72c-0.4-2.3-1.6-3.6-4-3.6c-3.5,0-4.6,3.4-4.6,6.4c0,2.9,0.7,6.5,4.6,6.5c1.9,0,3.5-1.4,4-4h2.7
			c-0.3,2.7-1.9,6.5-6.9,6.5c-4.7,0-7.5-3.6-7.5-8.5c0-5.2,2.5-9.4,8.1-9.4c4.4,0,6.1,3.2,6.3,6.2H791z"/>
		<path d="M800.1,83.2h-2.8V66.3h2.8V83.2z M797.3,63.2V60h2.8v3.2H797.3z"/>
		<path d="M807.3,73.4c0-2.6,2.1-5,4.7-5c3.5,0,4.5,2.4,4.7,5H807.3z M816.5,77.9c-0.1,1.3-1.7,3.3-4.4,3.3c-3.3,0-4.9-2-4.9-5.5
			h12.3c0-6-2.4-9.8-7.3-9.8c-5.6,0-8.1,4.2-8.1,9.4c0,4.9,2.8,8.5,7.5,8.5c2.7,0,3.8-0.6,4.6-1.2c2.1-1.4,2.9-3.8,3-4.6H816.5z
			 M816.9,59.5h-3.5l-2.9,4.5h2.2L816.9,59.5z"/>
		<path d="M827.1,68.7v11c0,1.3,1.1,1.3,1.7,1.3h1v2.2c-1,0.1-1.8,0.2-2.1,0.2c-2.8,0-3.4-1.6-3.4-3.6V68.7H822v-2.4h2.3v-4.7h2.8
			v4.7h2.7v2.4H827.1z"/>
		<path d="M835.5,73.4c0-2.6,2.1-5,4.7-5c3.5,0,4.5,2.4,4.7,5H835.5z M844.7,77.9c-0.1,1.3-1.7,3.3-4.4,3.3c-3.3,0-4.9-2-4.9-5.5
			h12.3c0-6-2.4-9.8-7.3-9.8c-5.6,0-8.1,4.2-8.1,9.4c0,4.9,2.8,8.5,7.5,8.5c2.7,0,3.8-0.6,4.6-1.2c2.1-1.4,2.9-3.8,3-4.6H844.7z
			 M845,59.5h-3.5l-2.9,4.5h2.2L845,59.5z"/>
		<path d="M861.4,71.1c0-1.1-0.4-2.8-4-2.8c-0.9,0-3.4,0.3-3.4,2.4c0,1.4,0.9,1.7,3.1,2.3l2.8,0.7c3.5,0.9,4.7,2.2,4.7,4.5
			c0,3.5-2.9,5.6-6.7,5.6c-6.7,0-7.2-3.9-7.3-5.9h2.7c0.1,1.3,0.5,3.5,4.5,3.5c2,0,3.9-0.8,3.9-2.7c0-1.4-0.9-1.8-3.4-2.4l-3.3-0.8
			c-2.4-0.6-3.9-1.8-3.9-4.1c0-3.7,3.1-5.4,6.4-5.4c6,0,6.5,4.5,6.5,5.3H861.4z"/>
		<path d="M882.9,74.6c0-2.2,0.2-6.3,4.6-6.3c4.1,0,4.5,4.4,4.5,7.2c0,4.5-2.8,5.7-4.6,5.7C884.4,81.1,882.9,78.3,882.9,74.6z
			 M895,59.9h-2.8v8.7h-0.1c-0.7-1-2-2.9-5-2.9c-4.5,0-7,3.7-7,8.4c0,4,1.7,9.4,7.4,9.4c1.6,0,3.6-0.5,4.8-2.8h0.1v2.3h2.7V59.9z"/>
		<path d="M901.8,73.3c0-2.6,2.1-5,4.7-5c3.5,0,4.5,2.4,4.7,5H901.8z M911,77.8c-0.1,1.3-1.7,3.3-4.4,3.3c-3.3,0-4.9-2-4.9-5.5h12.3
			c0-6-2.4-9.8-7.3-9.8c-5.6,0-8.1,4.2-8.1,9.4c0,4.9,2.8,8.5,7.5,8.5c2.7,0,3.8-0.6,4.6-1.2c2.1-1.4,2.9-3.8,3-4.6H911z"/>
		<path d="M930.6,83.1h-2.8V59.9h2.8V83.1z"/>
		<path d="M945.8,77.2c0,2.3-2.6,4-5.2,4c-2.1,0-3.1-1.1-3.1-2.9c0-2.1,2.2-2.5,3.6-2.7c3.5-0.5,4.2-0.7,4.7-1.1V77.2z M938,71.3
			c0.2-1.3,0.6-3.3,3.9-3.3c2.7,0,4,1,4,2.7c0,1.7-0.8,1.9-1.5,2l-4.7,0.6c-4.7,0.6-5.1,3.9-5.1,5.3c0,2.9,2.2,4.9,5.3,4.9
			c3.3,0,5-1.5,6.1-2.7c0.1,1.3,0.5,2.6,3,2.6c0.6,0,1.1-0.2,1.5-0.3V81c-0.3,0.1-0.7,0.1-0.9,0.1c-0.6,0-0.9-0.3-0.9-1v-9.7
			c0-4.3-4.9-4.7-6.3-4.7c-4.2,0-6.8,1.6-7,5.6H938z"/>
		<path d="M980.3,66.9c-0.9-4.1-4.3-4.8-6.5-4.8c-4.2,0-7.6,3.1-7.6,9.2c0,5.5,1.9,9.6,7.7,9.6c2,0,5.5-1,6.6-6.4h3
			c-1.3,8.7-8.4,9.1-10.1,9.1c-5.3,0-10.4-3.4-10.4-12.3c0-7.1,4.1-12.1,10.8-12.1c6,0,9.1,3.7,9.5,7.6H980.3z"/>
		<path d="M990.9,83.1H988V66.2h2.7V69h0.1c1.1-2,2.6-3.3,4.7-3.3c0.4,0,0.5,0,0.7,0.1v2.9h-1.1c-2.6,0-4.3,2.1-4.3,4.5V83.1z"/>
		<path d="M1001,74.6c0-2.3,0.8-6.5,4.9-6.5s4.9,4.2,4.9,6.5c0,2.3-0.8,6.5-4.9,6.5S1001,76.9,1001,74.6z M998.1,74.6
			c0,4.4,2.5,8.9,7.8,8.9c5.4,0,7.8-4.5,7.8-8.9c0-4.4-2.5-8.9-7.8-8.9C1000.5,65.7,998.1,70.3,998.1,74.6z"/>
		<path d="M1020.5,83.1h-2.8V66.2h2.8V83.1z M1017.7,63.1v-3.2h2.8v3.2H1017.7z"/>
		<path d="M1039.1,83.1h-3.6l-4.2-6.4l-4.1,6.4h-3.6l5.9-8.7l-5.6-8.2h3.6l3.9,5.9l3.9-5.9h3.5l-5.7,8.2L1039.1,83.1z"/>
		<path d="M1049.4,75.6h-7.9v-2.9h7.9V75.6z"/>
		<path d="M1057.5,62.6h7.8c1.5,0,4.2,0.3,4.2,3.9c0,3.4-2.4,4-4.7,4h-7.3V62.6z M1057.5,73.1h7.6c3.7,0,4.1,2.2,4.1,4.1
			c0,0.9,0.1,4.4,0.5,5.8h3.8v-0.5c-1-0.5-1.1-1-1.2-2.3l-0.2-4.2c-0.1-3.2-1.5-3.8-2.8-4.4c1.5-0.9,3.2-2.1,3.2-5.5
			c0-4.9-3.8-6.2-7.6-6.2h-10.7v23.2h3.1V73.1z"/>
		<path d="M1079.5,74.6c0-2.3,0.8-6.5,4.9-6.5s4.9,4.2,4.9,6.5c0,2.3-0.8,6.5-4.9,6.5S1079.5,76.9,1079.5,74.6z M1076.6,74.6
			c0,4.4,2.5,8.9,7.8,8.9s7.8-4.5,7.8-8.9c0-4.4-2.5-8.9-7.8-8.9S1076.6,70.3,1076.6,74.6z"/>
		<path d="M1107.1,83.1v-2.5l-0.1-0.1c-1.2,2-2.6,3-5.4,3c-2.5,0-5.5-1.2-5.5-5.2V66.2h2.8v11.2c0,2.8,1.4,3.7,3.3,3.7
			c3.6,0,4.6-3.2,4.6-5.6v-9.3h2.8v16.9H1107.1z"/>
		<path d="M1116.8,74.6c0-2.2,0.2-6.3,4.6-6.3c4.1,0,4.5,4.4,4.5,7.2c0,4.5-2.8,5.7-4.6,5.7C1118.3,81.1,1116.8,78.3,1116.8,74.6z
			 M1128.7,66.2h-2.7v2.5c-0.7-1-2-3-5.1-3c-4.5,0-7,3.7-7,8.4c0,4,1.7,9.4,7.4,9.4c2.3,0,3.7-1,4.5-2.4v0.7c0,2,0.1,5.9-4.8,5.9
			c-0.7,0-3.3,0-3.8-2.7h-2.8c0.5,4.5,4.5,5,6.5,5c7.8,0,7.8-6.1,7.8-8.5V66.2z"/>
		<path d="M1135.5,73.3c0-2.6,2.1-5,4.7-5c3.5,0,4.5,2.4,4.7,5H1135.5z M1144.7,77.8c-0.1,1.3-1.7,3.3-4.4,3.3c-3.3,0-4.9-2-4.9-5.5
			h12.3c0-6-2.4-9.8-7.3-9.8c-5.6,0-8.1,4.2-8.1,9.4c0,4.9,2.8,8.5,7.5,8.5c2.7,0,3.8-0.6,4.6-1.2c2.1-1.4,2.9-3.8,3-4.6H1144.7z"/>
		<path d="M1163.7,73.3c0-2.6,2.1-5,4.7-5c3.5,0,4.5,2.4,4.7,5H1163.7z M1172.9,77.8c-0.1,1.3-1.7,3.3-4.4,3.3c-3.3,0-4.9-2-4.9-5.5
			h12.3c0-6-2.4-9.8-7.3-9.8c-5.6,0-8.1,4.2-8.1,9.4c0,4.9,2.8,8.5,7.5,8.5c2.7,0,3.8-0.6,4.6-1.2c2.1-1.4,2.9-3.8,3-4.6H1172.9z"/>
		<path d="M1183.5,68.6v11c0,1.3,1.1,1.3,1.7,1.3h1v2.2c-1,0.1-1.8,0.2-2.1,0.2c-2.8,0-3.4-1.6-3.4-3.6V68.6h-2.3v-2.4h2.3v-4.7h2.8
			v4.7h2.7v2.4H1183.5z"/>
		<path d="M1201.2,74.6c0-2.2,0.2-6.3,4.6-6.3c4.1,0,4.5,4.4,4.5,7.2c0,4.5-2.8,5.7-4.6,5.7C1202.7,81.1,1201.2,78.3,1201.2,74.6z
			 M1213.3,59.9h-2.8v8.7h-0.1c-0.7-1-2-2.9-5-2.9c-4.5,0-7,3.7-7,8.4c0,4,1.7,9.4,7.4,9.4c1.6,0,3.6-0.5,4.8-2.8h0.1v2.3h2.7V59.9z
			"/>
		<path d="M1228.8,83.1v-2.5l-0.1-0.1c-1.2,2-2.6,3-5.4,3c-2.5,0-5.5-1.2-5.5-5.2V66.2h2.8v11.2c0,2.8,1.4,3.7,3.3,3.7
			c3.6,0,4.6-3.2,4.6-5.6v-9.3h2.8v16.9H1228.8z"/>
		<path d="M1262.6,66.9c-0.9-4.1-4.3-4.8-6.5-4.8c-4.2,0-7.6,3.1-7.6,9.2c0,5.5,1.9,9.6,7.7,9.6c2,0,5.5-1,6.6-6.4h3
			c-1.3,8.7-8.4,9.1-10.1,9.1c-5.3,0-10.4-3.4-10.4-12.3c0-7.1,4.1-12.1,10.8-12.1c6,0,9.1,3.7,9.5,7.6H1262.6z"/>
		<path d="M1273.2,83.1h-2.8V66.2h2.7V69h0.1c1.1-2,2.6-3.3,4.7-3.3c0.4,0,0.5,0,0.7,0.1v2.9h-1.1c-2.6,0-4.3,2.1-4.3,4.5V83.1z"/>
		<path d="M1283.3,74.6c0-2.3,0.8-6.5,4.9-6.5s4.9,4.2,4.9,6.5c0,2.3-0.8,6.5-4.9,6.5S1283.3,76.9,1283.3,74.6z M1280.4,74.6
			c0,4.4,2.5,8.9,7.8,8.9s7.8-4.5,7.8-8.9c0-4.4-2.5-8.9-7.8-8.9S1280.4,70.3,1280.4,74.6z"/>
		<path d="M1302.8,83.1h-2.8V66.2h2.8V83.1z M1300,63.1v-3.2h2.8v3.2H1300z"/>
		<path d="M1317.3,71c0-1.1-0.4-2.8-4-2.8c-0.9,0-3.4,0.3-3.4,2.4c0,1.4,0.9,1.7,3.1,2.3l2.8,0.7c3.5,0.9,4.7,2.2,4.7,4.5
			c0,3.5-2.9,5.6-6.7,5.6c-6.7,0-7.2-3.9-7.3-5.9h2.7c0.1,1.3,0.5,3.5,4.5,3.5c2,0,3.9-0.8,3.9-2.7c0-1.4-0.9-1.8-3.4-2.4l-3.3-0.8
			c-2.4-0.6-3.9-1.8-3.9-4.1c0-3.7,3.1-5.4,6.4-5.4c6,0,6.5,4.5,6.5,5.3H1317.3z"/>
		<path d="M1334.1,71c0-1.1-0.4-2.8-4-2.8c-0.9,0-3.4,0.3-3.4,2.4c0,1.4,0.9,1.7,3.1,2.3l2.8,0.7c3.5,0.9,4.7,2.2,4.7,4.5
			c0,3.5-2.9,5.6-6.7,5.6c-6.7,0-7.2-3.9-7.3-5.9h2.7c0.1,1.3,0.5,3.5,4.5,3.5c2,0,3.9-0.8,3.9-2.7c0-1.4-0.9-1.8-3.4-2.4l-3.3-0.8
			c-2.4-0.6-3.9-1.8-3.9-4.1c0-3.7,3.1-5.4,6.4-5.4c6,0,6.5,4.5,6.5,5.3H1334.1z"/>
		<path d="M1351.6,77.2c0,2.3-2.6,4-5.2,4c-2.1,0-3.1-1.1-3.1-2.9c0-2.1,2.2-2.5,3.6-2.7c3.5-0.5,4.2-0.7,4.7-1.1V77.2z
			 M1343.8,71.3c0.2-1.3,0.6-3.3,3.9-3.3c2.7,0,4,1,4,2.7c0,1.7-0.8,1.9-1.5,2l-4.7,0.6c-4.7,0.6-5.1,3.9-5.1,5.3
			c0,2.9,2.2,4.9,5.3,4.9c3.3,0,5-1.5,6.1-2.7c0.1,1.3,0.5,2.6,3,2.6c0.6,0,1.1-0.2,1.5-0.3V81c-0.3,0.1-0.7,0.1-0.9,0.1
			c-0.6,0-0.9-0.3-0.9-1v-9.7c0-4.3-4.9-4.7-6.3-4.7c-4.2,0-6.8,1.6-7,5.6H1343.8z"/>
		<path d="M1373.6,83.1h-2.8V72.7c0-2.9-0.8-4.4-3.6-4.4c-1.6,0-4.5,1-4.5,5.6v9.2h-2.8V66.2h2.7v2.4h0.1c0.6-0.9,2.2-2.9,5.1-2.9
			c2.6,0,5.9,1.1,5.9,5.9V83.1z"/>
		<path d="M1381.9,68.6v11c0,1.3,1.1,1.3,1.7,1.3h1v2.2c-1,0.1-1.8,0.2-2.1,0.2c-2.8,0-3.4-1.6-3.4-3.6V68.6h-2.3v-2.4h2.3v-4.7h2.8
			v4.7h2.7v2.4H1381.9z"/>
		<path d="M1395.3,75.6h-7.9v-2.9h7.9V75.6z"/>
		<path d="M1403.3,62.6h7.8c1.5,0,4.2,0.3,4.2,3.9c0,3.4-2.4,4-4.7,4h-7.3V62.6z M1403.3,73.1h7.6c3.7,0,4.1,2.2,4.1,4.1
			c0,0.9,0.1,4.4,0.5,5.8h3.8v-0.5c-1-0.5-1.1-1-1.2-2.3l-0.2-4.2c-0.1-3.2-1.5-3.8-2.8-4.4c1.5-0.9,3.2-2.1,3.2-5.5
			c0-4.9-3.8-6.2-7.6-6.2h-10.7v23.2h3.1V73.1z"/>
		<path d="M1425.3,74.6c0-2.3,0.8-6.5,4.9-6.5s4.9,4.2,4.9,6.5c0,2.3-0.8,6.5-4.9,6.5S1425.3,76.9,1425.3,74.6z M1422.4,74.6
			c0,4.4,2.5,8.9,7.8,8.9s7.8-4.5,7.8-8.9c0-4.4-2.5-8.9-7.8-8.9S1422.4,70.3,1422.4,74.6z"/>
		<path d="M1453,83.1v-2.5l-0.1-0.1c-1.2,2-2.6,3-5.4,3c-2.5,0-5.5-1.2-5.5-5.2V66.2h2.8v11.2c0,2.8,1.4,3.7,3.3,3.7
			c3.6,0,4.6-3.2,4.6-5.6v-9.3h2.8v16.9H1453z"/>
		<path d="M1462.7,74.6c0-2.2,0.2-6.3,4.6-6.3c4.1,0,4.5,4.4,4.5,7.2c0,4.5-2.8,5.7-4.6,5.7C1464.1,81.1,1462.7,78.3,1462.7,74.6z
			 M1474.5,66.2h-2.7v2.5c-0.7-1-2-3-5.1-3c-4.5,0-7,3.7-7,8.4c0,4,1.7,9.4,7.4,9.4c2.3,0,3.7-1,4.5-2.4v0.7c0,2,0.1,5.9-4.8,5.9
			c-0.7,0-3.3,0-3.8-2.7h-2.8c0.5,4.5,4.5,5,6.5,5c7.8,0,7.8-6.1,7.8-8.5V66.2z"/>
		<path d="M1481.3,73.3c0-2.6,2.1-5,4.7-5c3.5,0,4.5,2.4,4.7,5H1481.3z M1490.6,77.8c-0.1,1.3-1.7,3.3-4.4,3.3c-3.3,0-4.9-2-4.9-5.5
			h12.3c0-6-2.4-9.8-7.3-9.8c-5.6,0-8.1,4.2-8.1,9.4c0,4.9,2.8,8.5,7.5,8.5c2.7,0,3.8-0.6,4.6-1.2c2.1-1.4,2.9-3.8,3-4.6H1490.6z"/>
	</g>
	<g>
		<path d="M298,118.8h-3.1V95.6h16v2.8H298v7.1h11.4v2.8H298V118.8z"/>
		<path d="M315.8,109c0-2.6,2.1-5,4.7-5c3.5,0,4.5,2.4,4.7,5H315.8z M325.1,113.5c-0.1,1.3-1.7,3.3-4.4,3.3c-3.3,0-4.9-2-4.9-5.5
			h12.3c0-6-2.4-9.8-7.3-9.8c-5.6,0-8.1,4.2-8.1,9.4c0,4.9,2.8,8.5,7.5,8.5c2.7,0,3.8-0.6,4.6-1.2c2.1-1.4,2.9-3.8,3-4.6H325.1z"/>
		<path d="M334.2,110.3c0-2.2,0.2-6.3,4.6-6.3c4.1,0,4.5,4.4,4.5,7.2c0,4.5-2.8,5.7-4.6,5.7C335.6,116.8,334.2,114,334.2,110.3z
			 M346.2,95.6h-2.8v8.7h-0.1c-0.7-1-2-2.9-5-2.9c-4.5,0-7,3.7-7,8.4c0,4,1.7,9.4,7.4,9.4c1.6,0,3.6-0.5,4.8-2.8h0.1v2.3h2.7V95.6z"
			/>
		<path d="M353,109c0-2.6,2.1-5,4.7-5c3.5,0,4.5,2.4,4.7,5H353z M362.3,113.5c-0.1,1.3-1.7,3.3-4.4,3.3c-3.3,0-4.9-2-4.9-5.5h12.3
			c0-6-2.4-9.8-7.3-9.8c-5.6,0-8.1,4.2-8.1,9.4c0,4.9,2.8,8.5,7.5,8.5c2.7,0,3.8-0.6,4.6-1.2c2.1-1.4,2.9-3.8,3-4.6H362.3z"/>
		<path d="M372.6,118.8h-2.8v-16.9h2.7v2.8h0.1c1.1-2,2.6-3.3,4.7-3.3c0.4,0,0.5,0,0.7,0.1v2.9h-1.1c-2.6,0-4.3,2.1-4.3,4.5V118.8z"
			/>
		<path d="M390.7,112.9c0,2.3-2.6,4-5.2,4c-2.1,0-3.1-1.1-3.1-2.9c0-2.1,2.2-2.5,3.6-2.7c3.5-0.5,4.2-0.7,4.7-1.1V112.9z M382.9,107
			c0.2-1.3,0.6-3.3,3.9-3.3c2.7,0,4,1,4,2.7c0,1.7-0.8,1.9-1.5,2l-4.7,0.6c-4.7,0.6-5.1,3.9-5.1,5.3c0,2.9,2.2,4.9,5.3,4.9
			c3.3,0,5-1.5,6.1-2.7c0.1,1.3,0.5,2.6,3,2.6c0.6,0,1.1-0.2,1.5-0.3v-2.1c-0.3,0.1-0.7,0.1-0.9,0.1c-0.6,0-0.9-0.3-0.9-1v-9.7
			c0-4.3-4.9-4.7-6.3-4.7c-4.2,0-6.8,1.6-7,5.6H382.9z"/>
		<path d="M409.5,107.6c-0.4-2.3-1.6-3.6-4-3.6c-3.5,0-4.6,3.4-4.6,6.4c0,2.9,0.7,6.5,4.6,6.5c1.9,0,3.5-1.4,4-4h2.7
			c-0.3,2.7-1.9,6.5-6.9,6.5c-4.7,0-7.5-3.6-7.5-8.5c0-5.2,2.5-9.4,8.1-9.4c4.4,0,6.1,3.2,6.3,6.2H409.5z"/>
		<path d="M418.7,118.8h-2.8v-16.9h2.8V118.8z M415.8,98.8v-3.2h2.8v3.2H415.8z"/>
		<path d="M425.5,110.3c0-2.3,0.8-6.5,4.9-6.5c4.1,0,4.9,4.2,4.9,6.5c0,2.3-0.8,6.5-4.9,6.5C426.4,116.8,425.5,112.6,425.5,110.3z
			 M422.6,110.3c0,4.4,2.5,8.9,7.8,8.9c5.4,0,7.8-4.5,7.8-8.9c0-4.4-2.5-8.9-7.8-8.9C425.1,101.4,422.6,106,422.6,110.3z
			 M435.4,95.1h-3.5l-2.9,4.5h2.2L435.4,95.1z"/>
		<path d="M455.9,118.8h-2.8v-10.4c0-2.9-0.8-4.4-3.6-4.4c-1.6,0-4.5,1-4.5,5.6v9.2h-2.8v-16.9h2.7v2.4h0.1c0.6-0.9,2.2-2.9,5.1-2.9
			c2.6,0,5.9,1.1,5.9,5.9V118.8z"/>
		<path d="M474.3,118.8h-3.1V95.6h3.1V118.8z"/>
		<path d="M493.7,118.8h-2.8v-10.4c0-2.9-0.8-4.4-3.6-4.4c-1.6,0-4.5,1-4.5,5.6v9.2H480v-16.9h2.7v2.4h0.1c0.6-0.9,2.2-2.9,5.1-2.9
			c2.6,0,5.9,1.1,5.9,5.9V118.8z"/>
		<path d="M502,104.3v11c0,1.3,1.1,1.3,1.7,1.3h1v2.2c-1,0.1-1.8,0.2-2.1,0.2c-2.8,0-3.4-1.6-3.4-3.6v-11.1h-2.3v-2.4h2.3v-4.7h2.8
			v4.7h2.7v2.4H502z"/>
		<path d="M510.4,109c0-2.6,2.1-5,4.7-5c3.5,0,4.5,2.4,4.7,5H510.4z M519.6,113.5c-0.1,1.3-1.7,3.3-4.4,3.3c-3.3,0-4.9-2-4.9-5.5
			h12.3c0-6-2.4-9.8-7.3-9.8c-5.6,0-8.1,4.2-8.1,9.4c0,4.9,2.8,8.5,7.5,8.5c2.7,0,3.8-0.6,4.6-1.2c2.1-1.4,2.9-3.8,3-4.6H519.6z"/>
		<path d="M530,118.8h-2.8v-16.9h2.7v2.8h0.1c1.1-2,2.6-3.3,4.7-3.3c0.4,0,0.5,0,0.7,0.1v2.9h-1.1c-2.6,0-4.3,2.1-4.3,4.5V118.8z"/>
		<path d="M552.7,118.8h-2.8v-10.4c0-2.9-0.8-4.4-3.6-4.4c-1.6,0-4.5,1-4.5,5.6v9.2h-2.8v-16.9h2.7v2.4h0.1c0.6-0.9,2.2-2.9,5.1-2.9
			c2.6,0,5.9,1.1,5.9,5.9V118.8z"/>
		<path d="M567.8,112.9c0,2.3-2.6,4-5.2,4c-2.1,0-3.1-1.1-3.1-2.9c0-2.1,2.2-2.5,3.6-2.7c3.5-0.5,4.2-0.7,4.7-1.1V112.9z M560,107
			c0.2-1.3,0.6-3.3,3.9-3.3c2.7,0,4,1,4,2.7c0,1.7-0.8,1.9-1.5,2l-4.7,0.6c-4.7,0.6-5.1,3.9-5.1,5.3c0,2.9,2.2,4.9,5.3,4.9
			c3.3,0,5-1.5,6.1-2.7c0.1,1.3,0.5,2.6,3,2.6c0.6,0,1.1-0.2,1.5-0.3v-2.1c-0.3,0.1-0.7,0.1-0.9,0.1c-0.6,0-0.9-0.3-0.9-1v-9.7
			c0-4.3-4.9-4.7-6.3-4.7c-4.2,0-6.8,1.6-7,5.6H560z"/>
		<path d="M586.6,107.6c-0.4-2.3-1.6-3.6-4-3.6c-3.5,0-4.6,3.4-4.6,6.4c0,2.9,0.7,6.5,4.6,6.5c1.9,0,3.5-1.4,4-4h2.7
			c-0.3,2.7-1.9,6.5-6.9,6.5c-4.7,0-7.5-3.6-7.5-8.5c0-5.2,2.5-9.4,8.1-9.4c4.4,0,6.1,3.2,6.3,6.2H586.6z"/>
		<path d="M595.8,118.8h-2.8v-16.9h2.8V118.8z M592.9,98.8v-3.2h2.8v3.2H592.9z"/>
		<path d="M602.6,110.3c0-2.3,0.8-6.5,4.9-6.5c4.1,0,4.9,4.2,4.9,6.5c0,2.3-0.8,6.5-4.9,6.5C603.5,116.8,602.6,112.6,602.6,110.3z
			 M599.7,110.3c0,4.4,2.5,8.9,7.8,8.9c5.4,0,7.8-4.5,7.8-8.9c0-4.4-2.5-8.9-7.8-8.9C602.1,101.4,599.7,106,599.7,110.3z"/>
		<path d="M633,118.8h-2.8v-10.4c0-2.9-0.8-4.4-3.6-4.4c-1.6,0-4.5,1-4.5,5.6v9.2h-2.8v-16.9h2.7v2.4h0.1c0.6-0.9,2.2-2.9,5.1-2.9
			c2.6,0,5.9,1.1,5.9,5.9V118.8z"/>
		<path d="M648.1,112.9c0,2.3-2.6,4-5.2,4c-2.1,0-3.1-1.1-3.1-2.9c0-2.1,2.2-2.5,3.6-2.7c3.5-0.5,4.2-0.7,4.7-1.1V112.9z M640.3,107
			c0.2-1.3,0.6-3.3,3.9-3.3c2.7,0,4,1,4,2.7c0,1.7-0.8,1.9-1.5,2l-4.7,0.6c-4.7,0.6-5.1,3.9-5.1,5.3c0,2.9,2.2,4.9,5.3,4.9
			c3.3,0,5-1.5,6.1-2.7c0.1,1.3,0.5,2.6,3,2.6c0.6,0,1.1-0.2,1.5-0.3v-2.1c-0.3,0.1-0.7,0.1-0.9,0.1c-0.6,0-0.9-0.3-0.9-1v-9.7
			c0-4.3-4.9-4.7-6.3-4.7c-4.2,0-6.8,1.6-7,5.6H640.3z"/>
		<path d="M659.3,118.8h-2.8V95.6h2.8V118.8z"/>
		<path d="M675.8,110.3c0-2.2,0.2-6.3,4.6-6.3c4.1,0,4.5,4.4,4.5,7.2c0,4.5-2.8,5.7-4.6,5.7C677.2,116.8,675.8,114,675.8,110.3z
			 M687.8,95.6H685v8.7h-0.1c-0.7-1-2-2.9-5-2.9c-4.5,0-7,3.7-7,8.4c0,4,1.7,9.4,7.4,9.4c1.6,0,3.6-0.5,4.8-2.8h0.1v2.3h2.7V95.6z"
			/>
		<path d="M694.6,109c0-2.6,2.1-5,4.7-5c3.5,0,4.5,2.4,4.7,5H694.6z M703.9,113.5c-0.1,1.3-1.7,3.3-4.4,3.3c-3.3,0-4.9-2-4.9-5.5
			h12.3c0-6-2.4-9.8-7.3-9.8c-5.6,0-8.1,4.2-8.1,9.4c0,4.9,2.8,8.5,7.5,8.5c2.7,0,3.8-0.6,4.6-1.2c2.1-1.4,2.9-3.8,3-4.6H703.9z"/>
		<path d="M734.9,102.4c-0.2-3.6-3.1-4.7-5.7-4.7c-2,0-5.3,0.5-5.3,4.1c0,2,1.4,2.6,2.7,2.9l6.6,1.5c3,0.7,5.3,2.5,5.3,6.2
			c0,5.5-5.1,7-9.1,7c-4.3,0-6-1.3-7-2.2c-2-1.8-2.4-3.7-2.4-5.9h2.9c0,4.2,3.4,5.4,6.4,5.4c2.3,0,6.1-0.6,6.1-3.9
			c0-2.4-1.1-3.2-4.9-4.1l-4.7-1.1c-1.5-0.4-4.9-1.4-4.9-5.5c0-3.6,2.4-7.2,8-7.2c8.1,0,8.9,4.8,9,7.4H734.9z"/>
		<path d="M744.7,110.3c0-2.3,0.8-6.5,4.9-6.5c4.1,0,4.9,4.2,4.9,6.5c0,2.3-0.8,6.5-4.9,6.5C745.6,116.8,744.7,112.6,744.7,110.3z
			 M741.8,110.3c0,4.4,2.5,8.9,7.8,8.9c5.4,0,7.8-4.5,7.8-8.9c0-4.4-2.5-8.9-7.8-8.9C744.2,101.4,741.8,106,741.8,110.3z"/>
		<path d="M771.9,107.6c-0.4-2.3-1.6-3.6-4-3.6c-3.5,0-4.6,3.4-4.6,6.4c0,2.9,0.7,6.5,4.6,6.5c1.9,0,3.5-1.4,4-4h2.7
			c-0.3,2.7-1.9,6.5-6.9,6.5c-4.7,0-7.5-3.6-7.5-8.5c0-5.2,2.5-9.4,8.1-9.4c4.4,0,6.1,3.2,6.3,6.2H771.9z"/>
		<path d="M781,118.8h-2.8v-16.9h2.8V118.8z M778.2,98.8v-3.2h2.8v3.2H778.2z"/>
		<path d="M788.1,109c0-2.6,2.1-5,4.7-5c3.5,0,4.5,2.4,4.7,5H788.1z M797.4,113.5c-0.1,1.3-1.7,3.3-4.4,3.3c-3.3,0-4.9-2-4.9-5.5
			h12.3c0-6-2.4-9.8-7.3-9.8c-5.6,0-8.1,4.2-8.1,9.4c0,4.9,2.8,8.5,7.5,8.5c2.7,0,3.8-0.6,4.6-1.2c2.1-1.4,2.9-3.8,3-4.6H797.4z"/>
		<path d="M806.5,110.3c0-2.2,0.2-6.3,4.6-6.3c4.1,0,4.5,4.4,4.5,7.2c0,4.5-2.8,5.7-4.6,5.7C807.9,116.8,806.5,114,806.5,110.3z
			 M818.5,95.6h-2.8v8.7h-0.1c-0.7-1-2-2.9-5-2.9c-4.5,0-7,3.7-7,8.4c0,4,1.7,9.4,7.4,9.4c1.6,0,3.6-0.5,4.8-2.8h0.1v2.3h2.7V95.6z"
			/>
		<path d="M833.4,112.9c0,2.3-2.6,4-5.2,4c-2.1,0-3.1-1.1-3.1-2.9c0-2.1,2.2-2.5,3.6-2.7c3.5-0.5,4.2-0.7,4.7-1.1V112.9z M825.6,107
			c0.2-1.3,0.6-3.3,3.9-3.3c2.7,0,4,1,4,2.7c0,1.7-0.8,1.9-1.5,2l-4.7,0.6c-4.7,0.6-5.1,3.9-5.1,5.3c0,2.9,2.2,4.9,5.3,4.9
			c3.3,0,5-1.5,6.1-2.7c0.1,1.3,0.5,2.6,3,2.6c0.6,0,1.1-0.2,1.5-0.3v-2.1c-0.3,0.1-0.7,0.1-0.9,0.1c-0.6,0-0.9-0.3-0.9-1v-9.7
			c0-4.3-4.9-4.7-6.3-4.7c-4.2,0-6.8,1.6-7,5.6H825.6z"/>
		<path d="M843.6,110.3c0-2.2,0.2-6.3,4.6-6.3c4.1,0,4.5,4.4,4.5,7.2c0,4.5-2.8,5.7-4.6,5.7C845.1,116.8,843.6,114,843.6,110.3z
			 M855.6,95.6h-2.8v8.7h-0.1c-0.7-1-2-2.9-5-2.9c-4.5,0-7,3.7-7,8.4c0,4,1.7,9.4,7.4,9.4c1.6,0,3.6-0.5,4.8-2.8h0.1v2.3h2.7V95.6z"
			/>
		<path d="M862.5,109c0-2.6,2.1-5,4.7-5c3.5,0,4.5,2.4,4.7,5H862.5z M871.7,113.5c-0.1,1.3-1.7,3.3-4.4,3.3c-3.3,0-4.9-2-4.9-5.5
			h12.3c0-6-2.4-9.8-7.3-9.8c-5.6,0-8.1,4.2-8.1,9.4c0,4.9,2.8,8.5,7.5,8.5c2.7,0,3.8-0.6,4.6-1.2c2.1-1.4,2.9-3.8,3-4.6H871.7z"/>
		<path d="M888.4,106.7c0-1.1-0.4-2.8-4-2.8c-0.9,0-3.4,0.3-3.4,2.4c0,1.4,0.9,1.7,3.1,2.3l2.8,0.7c3.5,0.9,4.7,2.2,4.7,4.5
			c0,3.5-2.9,5.6-6.7,5.6c-6.7,0-7.2-3.9-7.3-5.9h2.7c0.1,1.3,0.5,3.5,4.5,3.5c2,0,3.9-0.8,3.9-2.7c0-1.4-0.9-1.8-3.4-2.4l-3.3-0.8
			c-2.4-0.6-3.9-1.8-3.9-4.1c0-3.7,3.1-5.4,6.4-5.4c6,0,6.5,4.5,6.5,5.3H888.4z"/>
		<path d="M908.3,110c0-2.2,0.2-6.3,4.6-6.3c4.1,0,4.5,4.4,4.5,7.2c0,4.5-2.8,5.7-4.6,5.7C909.8,116.6,908.3,113.8,908.3,110z
			 M920.4,95.4h-2.8v8.7h-0.1c-0.7-1-2-2.9-5-2.9c-4.5,0-7,3.7-7,8.4c0,4,1.7,9.4,7.4,9.4c1.6,0,3.6-0.5,4.8-2.8h0.1v2.3h2.7V95.4z"
			/>
		<path d="M927.2,108.8c0-2.6,2.1-5,4.7-5c3.5,0,4.5,2.4,4.7,5H927.2z M936.4,113.2c-0.1,1.3-1.7,3.3-4.4,3.3c-3.3,0-4.9-2-4.9-5.5
			h12.3c0-6-2.4-9.8-7.3-9.8c-5.6,0-8.1,4.2-8.1,9.4c0,4.9,2.8,8.5,7.5,8.5c2.7,0,3.8-0.6,4.6-1.2c2.1-1.4,2.9-3.8,3-4.6H936.4z"/>
		<path d="M956.1,118.5h-2.8V95.4h2.8V118.5z"/>
		<path d="M971.2,112.7c0,2.3-2.6,4-5.2,4c-2.1,0-3.1-1.1-3.1-2.9c0-2.1,2.2-2.5,3.6-2.7c3.5-0.5,4.2-0.7,4.7-1.1V112.7z
			 M963.5,106.8c0.2-1.3,0.6-3.3,3.9-3.3c2.7,0,4,1,4,2.7c0,1.7-0.8,1.9-1.5,2l-4.7,0.6c-4.7,0.6-5.1,3.9-5.1,5.3
			c0,2.9,2.2,4.9,5.3,4.9c3.3,0,5-1.5,6.1-2.7c0.1,1.3,0.5,2.6,3,2.6c0.6,0,1.1-0.2,1.5-0.3v-2.1c-0.3,0.1-0.7,0.1-0.9,0.1
			c-0.6,0-0.9-0.3-0.9-1v-9.7c0-4.3-4.9-4.7-6.3-4.7c-4.2,0-6.8,1.6-7,5.6H963.5z"/>
		<path d="M1005.8,102.3c-0.9-4.1-4.3-4.8-6.5-4.8c-4.2,0-7.6,3.1-7.6,9.2c0,5.5,1.9,9.6,7.7,9.6c2,0,5.5-1,6.6-6.4h3
			c-1.3,8.7-8.4,9.1-10.1,9.1c-5.3,0-10.4-3.4-10.4-12.3c0-7.1,4.1-12.1,10.8-12.1c6,0,9.1,3.7,9.5,7.6H1005.8z"/>
		<path d="M1016.3,118.5h-2.8v-16.9h2.7v2.8h0.1c1.1-2,2.6-3.3,4.7-3.3c0.4,0,0.5,0,0.7,0.1v2.9h-1.1c-2.6,0-4.3,2.1-4.3,4.5V118.5z
			"/>
		<path d="M1036,118.5v-2.5l-0.1-0.1c-1.2,2-2.6,3-5.4,3c-2.5,0-5.5-1.2-5.5-5.2v-12.1h2.8v11.2c0,2.8,1.4,3.7,3.3,3.7
			c3.6,0,4.6-3.2,4.6-5.6v-9.3h2.8v16.9H1036z"/>
		<path d="M1046.2,116.2h10.4v2.4h-14.1v-2.2l10.2-12.3h-9.4v-2.4h13.1v2.3L1046.2,116.2z"/>
		<path d="M1073.8,98h7.8c1.5,0,4.2,0.3,4.2,3.9c0,3.4-2.4,4-4.7,4h-7.3V98z M1073.8,108.6h7.6c3.7,0,4.1,2.2,4.1,4.1
			c0,0.9,0.1,4.4,0.5,5.8h3.8V118c-1-0.5-1.1-1-1.2-2.3l-0.2-4.2c-0.1-3.2-1.5-3.8-2.8-4.4c1.5-0.9,3.2-2.1,3.2-5.5
			c0-4.9-3.8-6.2-7.6-6.2h-10.7v23.2h3.1V108.6z"/>
		<path d="M1095.8,110.1c0-2.3,0.8-6.5,4.9-6.5s4.9,4.2,4.9,6.5c0,2.3-0.8,6.5-4.9,6.5S1095.8,112.3,1095.8,110.1z M1092.9,110.1
			c0,4.4,2.5,8.9,7.8,8.9s7.8-4.5,7.8-8.9c0-4.4-2.5-8.9-7.8-8.9S1092.9,105.7,1092.9,110.1z"/>
		<path d="M1115.3,121c0,1.5-0.1,4.3-4.3,4.3c-0.4,0-0.8,0-1.2-0.1v-2.5h0.6c1.7,0,2.1-0.2,2.1-2.1v-19h2.8V121z M1115.3,98.6h-2.8
			v-3.2h2.8V98.6z"/>
		<path d="M1130.5,112.7c0,2.3-2.6,4-5.2,4c-2.1,0-3.1-1.1-3.1-2.9c0-2.1,2.2-2.5,3.6-2.7c3.5-0.5,4.2-0.7,4.7-1.1V112.7z
			 M1122.8,106.8c0.2-1.3,0.6-3.3,3.9-3.3c2.7,0,4,1,4,2.7c0,1.7-0.8,1.9-1.5,2l-4.7,0.6c-4.7,0.6-5.1,3.9-5.1,5.3
			c0,2.9,2.2,4.9,5.3,4.9c3.3,0,5-1.5,6.1-2.7c0.1,1.3,0.5,2.6,3,2.6c0.6,0,1.1-0.2,1.5-0.3v-2.1c-0.3,0.1-0.7,0.1-0.9,0.1
			c-0.6,0-0.9-0.3-0.9-1v-9.7c0-4.3-4.9-4.7-6.3-4.7c-4.2,0-6.8,1.6-7,5.6H1122.8z"/>
		<path d="M1159,101.7h3.1c-2,5.5-3.9,11-6.1,16.5c-2.7,6.8-3,7.2-6.6,7.2c-0.4,0-0.7-0.1-1.2-0.3v-2.6c0.4,0.1,0.9,0.3,1.7,0.3
			c1.5,0,1.6-0.4,3-3.9l-6.3-17.3h3.2l4.5,13.7h0.1L1159,101.7z"/>
		<path d="M1176.8,110c0-2.2,0.2-6.3,4.6-6.3c4.1,0,4.5,4.4,4.5,7.2c0,4.5-2.8,5.7-4.6,5.7C1178.2,116.6,1176.8,113.8,1176.8,110z
			 M1188.8,95.4h-2.8v8.7h-0.1c-0.7-1-2-2.9-5-2.9c-4.5,0-7,3.7-7,8.4c0,4,1.7,9.4,7.4,9.4c1.6,0,3.6-0.5,4.8-2.8h0.1v2.3h2.7V95.4z
			"/>
		<path d="M1195.6,108.8c0-2.6,2.1-5,4.7-5c3.5,0,4.5,2.4,4.7,5H1195.6z M1204.9,113.2c-0.1,1.3-1.7,3.3-4.4,3.3
			c-3.3,0-4.9-2-4.9-5.5h12.3c0-6-2.4-9.8-7.3-9.8c-5.6,0-8.1,4.2-8.1,9.4c0,4.9,2.8,8.5,7.5,8.5c2.7,0,3.8-0.6,4.6-1.2
			c2.1-1.4,2.9-3.8,3-4.6H1204.9z"/>
		<path d="M1224.5,118.5h-2.8V95.4h2.8V118.5z"/>
		<path d="M1239.7,112.7c0,2.3-2.6,4-5.2,4c-2.1,0-3.1-1.1-3.1-2.9c0-2.1,2.2-2.5,3.6-2.7c3.5-0.5,4.2-0.7,4.7-1.1V112.7z
			 M1231.9,106.8c0.2-1.3,0.6-3.3,3.9-3.3c2.7,0,4,1,4,2.7c0,1.7-0.8,1.9-1.5,2l-4.7,0.6c-4.7,0.6-5.1,3.9-5.1,5.3
			c0,2.9,2.2,4.9,5.3,4.9c3.3,0,5-1.5,6.1-2.7c0.1,1.3,0.5,2.6,3,2.6c0.6,0,1.1-0.2,1.5-0.3v-2.1c-0.3,0.1-0.7,0.1-0.9,0.1
			c-0.6,0-0.9-0.3-0.9-1v-9.7c0-4.3-4.9-4.7-6.3-4.7c-4.2,0-6.8,1.6-7,5.6H1231.9z"/>
		<path d="M1277,118.5v-13.7c0-0.7,0.1-3.6,0.1-5.8h-0.1l-6.5,19.5h-3.1l-6.5-19.4h-0.1c0,2.1,0.1,5.1,0.1,5.7v13.7h-3V95.4h4.5
			l6.6,19.6h0.1l6.6-19.6h4.5v23.2H1277z"/>
		<path d="M1287.3,108.8c0-2.6,2.1-5,4.7-5c3.5,0,4.5,2.4,4.7,5H1287.3z M1296.6,113.2c-0.1,1.3-1.7,3.3-4.4,3.3
			c-3.3,0-4.9-2-4.9-5.5h12.3c0-6-2.4-9.8-7.3-9.8c-5.6,0-8.1,4.2-8.1,9.4c0,4.9,2.8,8.5,7.5,8.5c2.7,0,3.8-0.6,4.6-1.2
			c2.1-1.4,2.9-3.8,3-4.6H1296.6z"/>
		<path d="M1305.7,110c0-2.2,0.2-6.3,4.6-6.3c4.1,0,4.5,4.4,4.5,7.2c0,4.5-2.8,5.7-4.6,5.7C1307.1,116.6,1305.7,113.8,1305.7,110z
			 M1317.7,95.4h-2.8v8.7h-0.1c-0.7-1-2-2.9-5-2.9c-4.5,0-7,3.7-7,8.4c0,4,1.7,9.4,7.4,9.4c1.6,0,3.6-0.5,4.8-2.8h0.1v2.3h2.7V95.4z
			"/>
		<path d="M1325.2,118.5h-2.8v-16.9h2.8V118.5z M1322.3,98.6v-3.2h2.8v3.2H1322.3z"/>
		<path d="M1340.4,112.7c0,2.3-2.6,4-5.2,4c-2.1,0-3.1-1.1-3.1-2.9c0-2.1,2.2-2.5,3.6-2.7c3.5-0.5,4.2-0.7,4.7-1.1V112.7z
			 M1332.6,106.8c0.2-1.3,0.6-3.3,3.9-3.3c2.7,0,4,1,4,2.7c0,1.7-0.8,1.9-1.5,2l-4.7,0.6c-4.7,0.6-5.1,3.9-5.1,5.3
			c0,2.9,2.2,4.9,5.3,4.9c3.3,0,5-1.5,6.1-2.7c0.1,1.3,0.5,2.6,3,2.6c0.6,0,1.1-0.2,1.5-0.3v-2.1c-0.3,0.1-0.7,0.1-0.9,0.1
			c-0.6,0-0.9-0.3-0.9-1v-9.7c0-4.3-4.9-4.7-6.3-4.7c-4.2,0-6.8,1.6-7,5.6H1332.6z"/>
		<path d="M1361.7,115.8h11.7v2.8h-14.9V95.4h3.1V115.8z"/>
		<path d="M1387.8,118.5v-2.5l-0.1-0.1c-1.2,2-2.6,3-5.4,3c-2.5,0-5.5-1.2-5.5-5.2v-12.1h2.8v11.2c0,2.8,1.4,3.7,3.3,3.7
			c3.6,0,4.6-3.2,4.6-5.6v-9.3h2.8v16.9H1387.8z"/>
		<path d="M1409.2,118.5h-2.8v-10.4c0-2.9-0.8-4.4-3.6-4.4c-1.6,0-4.5,1-4.5,5.6v9.2h-2.8v-16.9h2.7v2.4h0.1
			c0.6-0.9,2.2-2.9,5.1-2.9c2.6,0,5.9,1.1,5.9,5.9V118.5z"/>
		<path d="M1424.3,112.7c0,2.3-2.6,4-5.2,4c-2.1,0-3.1-1.1-3.1-2.9c0-2.1,2.2-2.5,3.6-2.7c3.5-0.5,4.2-0.7,4.7-1.1V112.7z
			 M1416.5,106.8c0.2-1.3,0.6-3.3,3.9-3.3c2.7,0,4,1,4,2.7c0,1.7-0.8,1.9-1.5,2l-4.7,0.6c-4.7,0.6-5.1,3.9-5.1,5.3
			c0,2.9,2.2,4.9,5.3,4.9c3.3,0,5-1.5,6.1-2.7c0.1,1.3,0.5,2.6,3,2.6c0.6,0,1.1-0.2,1.5-0.3v-2.1c-0.3,0.1-0.7,0.1-0.9,0.1
			c-0.6,0-0.9-0.3-0.9-1v-9.7c0-4.3-4.9-4.7-6.3-4.7c-4.2,0-6.8,1.6-7,5.6H1416.5z"/>
		<path d="M1446.1,98h7.8c1.5,0,4.2,0.3,4.2,3.9c0,3.4-2.4,4-4.7,4h-7.3V98z M1446.1,108.6h7.6c3.7,0,4.1,2.2,4.1,4.1
			c0,0.9,0.1,4.4,0.5,5.8h3.8V118c-1-0.5-1.1-1-1.2-2.3l-0.2-4.2c-0.1-3.2-1.5-3.8-2.8-4.4c1.5-0.9,3.2-2.1,3.2-5.5
			c0-4.9-3.8-6.2-7.6-6.2h-10.7v23.2h3.1V108.6z"/>
		<path d="M1468.1,110.1c0-2.3,0.8-6.5,4.9-6.5s4.9,4.2,4.9,6.5c0,2.3-0.8,6.5-4.9,6.5S1468.1,112.3,1468.1,110.1z M1465.2,110.1
			c0,4.4,2.5,8.9,7.8,8.9s7.8-4.5,7.8-8.9c0-4.4-2.5-8.9-7.8-8.9S1465.2,105.7,1465.2,110.1z"/>
		<path d="M1487.6,121c0,1.5-0.1,4.3-4.3,4.3c-0.4,0-0.8,0-1.2-0.1v-2.5h0.6c1.7,0,2.1-0.2,2.1-2.1v-19h2.8V121z M1487.6,98.6h-2.8
			v-3.2h2.8V98.6z"/>
		<path d="M1502.8,112.7c0,2.3-2.6,4-5.2,4c-2.1,0-3.1-1.1-3.1-2.9c0-2.1,2.2-2.5,3.6-2.7c3.5-0.5,4.2-0.7,4.7-1.1V112.7z
			 M1495,106.8c0.2-1.3,0.6-3.3,3.9-3.3c2.7,0,4,1,4,2.7c0,1.7-0.8,1.9-1.5,2l-4.7,0.6c-4.7,0.6-5.1,3.9-5.1,5.3
			c0,2.9,2.2,4.9,5.3,4.9c3.3,0,5-1.5,6.1-2.7c0.1,1.3,0.5,2.6,3,2.6c0.6,0,1.1-0.2,1.5-0.3v-2.1c-0.3,0.1-0.7,0.1-0.9,0.1
			c-0.6,0-0.9-0.3-0.9-1v-9.7c0-4.3-4.9-4.7-6.3-4.7c-4.2,0-6.8,1.6-7,5.6H1495z"/>
	</g>
</g>
<g id="Layer_1">
	<g>
		<rect x="14.6" y="14.9" class="st0" width="267.1" height="153.1"/>
		<g>
			<polygon class="st1" points="82.3,107 47.6,107 47.6,77.2 82.3,77.2 82.3,77.2 82.3,42.4 112.1,42.4 112.1,77.2 112.1,77.2 
				146.8,77.2 146.8,107 112.1,107 112.1,107 112.1,141.7 82.3,141.7 82.3,107 			"/>
			<g>
				<path class="st1" d="M192.9,91.5c0-23.1,18.8-41.9,41.9-41.9c5.2,0,10.1,0.9,14.6,2.6c-8.6-6.8-19.4-10.8-31.2-10.8
					c-27.8,0-50.3,22.5-50.3,50.3c0,27.8,22.5,50.3,50.3,50.3c12.2,0,23.3-4.3,32-11.5c-4.8,1.9-10,3-15.5,3
					C211.6,133.4,192.9,114.7,192.9,91.5z"/>
			</g>
			<rect x="26.3" y="26.4" class="st2" width="244.6" height="131.2"/>
		</g>
	</g>
</g>
</svg>
