<?xml version="1.0" encoding="utf-8"?>
<!-- Generator: Adobe Illustrator 24.2.0, SVG Export Plug-In . SVG Version: 6.00 Build 0)  -->
<svg version="1.1" id="Layer_1" xmlns="http://www.w3.org/2000/svg" xmlns:xlink="http://www.w3.org/1999/xlink" x="0px" y="0px"
	 viewBox="0 0 841.9 249.6" style="enable-background:new 0 0 841.9 249.6;" xml:space="preserve">
<style type="text/css">
	.st0{fill:#FFFFFF;}
	.st1{fill:#F5333F;}
	.st2{fill:#333132;}
</style>
<rect class="st0" width="841.9" height="249.6"/>
<polygon class="st1" points="104.6,144 60.7,144 60.7,106.3 104.6,106.3 104.6,106.3 104.6,62.3 142.3,62.3 142.3,106.3 
	142.3,106.3 186.2,106.3 186.2,143.9 142.3,143.9 142.3,143.9 142.3,187.9 104.6,187.9 104.6,143.9 "/>
<path class="st1" d="M244.5,124.4c0-29.3,23.7-53,53-53c6.5,0,12.8,1.2,18.5,3.3C305.2,66.1,291.5,61,276.6,61
	c-35.1,0-63.6,28.5-63.6,63.6s28.5,63.6,63.6,63.6c15.4,0,29.5-5.5,40.5-14.6c-6.1,2.4-12.7,3.7-19.6,3.7
	C268.2,177.4,244.5,153.7,244.5,124.4"/>
<path class="st2" d="M726.7,188.3c10.7,0,20.3-1.9,29-5.6c8.7-3.8,15.9-9.2,21.8-16.3l-18.3-16.9c-8.3,9.7-18.6,14.6-30.9,14.6
	c-7.6,0-14.4-1.7-20.4-5s-10.6-8-14-14c-3.3-6-5-12.8-5-20.4s1.7-14.4,5-20.4s8-10.6,14-14c6-3.3,12.8-5,20.4-5
	c12.3,0,22.6,4.8,30.9,14.4l18.3-16.9c-5.9-7-13.1-12.4-21.7-16.2c-8.6-3.8-18.2-5.6-28.9-5.6c-12.6,0-24,2.7-34.2,8.2
	c-10.1,5.4-18.1,13-23.9,22.7c-5.8,9.7-8.7,20.6-8.7,32.8s2.9,23.1,8.7,32.8s13.8,17.2,23.9,22.7
	C702.9,185.5,714.2,188.3,726.7,188.3 M613.1,107.8c0,6.8-2.2,12.1-6.7,15.8c-4.5,3.8-11,5.6-19.5,5.6h-23.2V86.3h23.2
	c8.6,0,15,1.8,19.5,5.5C610.8,95.6,613.1,100.9,613.1,107.8 M644.2,186.2l-27.6-39.5c8.1-3.5,14.3-8.6,18.7-15.2
	c4.4-6.6,6.6-14.5,6.6-23.6s-2.2-17-6.5-23.7s-10.5-11.8-18.5-15.5c-8-3.6-17.5-5.4-28.4-5.4h-53.2v123h28.5V152h24.8h1.4l23.7,34.3
	L644.2,186.2L644.2,186.2z M510.6,86V63.2h-92.9v123h28.5v-44.8h56.9v-22.8h-56.9V86.1L510.6,86L510.6,86z M360.1,186.2h28.5v-123
	h-28.5V186.2z"/>
</svg>
