<?xml version="1.0" encoding="UTF-8" standalone="no"?>
<svg
   xmlns:dc="http://purl.org/dc/elements/1.1/"
   xmlns:cc="http://creativecommons.org/ns#"
   xmlns:rdf="http://www.w3.org/1999/02/22-rdf-syntax-ns#"
   xmlns:svg="http://www.w3.org/2000/svg"
   xmlns="http://www.w3.org/2000/svg"
   viewBox="0 0 980.89331 96.706665"
   height="96.706665"
   width="980.89331"
   xml:space="preserve"
   id="svg2"
   version="1.1"><metadata
     id="metadata8"><rdf:RDF><cc:Work
         rdf:about=""><dc:format>image/svg+xml</dc:format><dc:type
           rdf:resource="http://purl.org/dc/dcmitype/StillImage" /><dc:title></dc:title></cc:Work></rdf:RDF></metadata><defs
     id="defs6" /><g
     transform="matrix(1.3333333,0,0,-1.3333333,0,96.706667)"
     id="g10"><g
       transform="scale(0.1)"
       id="g12"><path
         id="path14"
         style="fill:#231f20;fill-opacity:1;fill-rule:nonzero;stroke:none"
         d="m 1383.44,449.027 h -31.29 v 231.598 h 160.32 v -27.738 h -129.03 v -70.961 h 113.55 V 554.184 H 1383.44 V 449.027" /><path
         id="path16"
         style="fill:#231f20;fill-opacity:1;fill-rule:nonzero;stroke:none"
         d="m 1654.07,501.93 c -0.96,-12.578 -16.77,-33.223 -43.54,-33.223 -32.58,0 -49.03,20.32 -49.03,55.477 h 123.22 c 0,59.675 -23.87,98.382 -72.58,98.382 -55.8,0 -80.96,-41.609 -80.96,-93.867 0,-48.703 28.06,-84.508 75.48,-84.508 27.09,0 38.06,6.45 45.8,11.61 21.29,14.195 29.03,38.062 30,46.129 z m -92.57,44.832 c 0,26.129 20.64,50.324 46.77,50.324 34.51,0 45.48,-24.195 47.09,-50.324 h -93.86" /><path
         id="path18"
         style="fill:#231f20;fill-opacity:1;fill-rule:nonzero;stroke:none"
         d="m 1865.03,680.625 h -28.38 V 593.859 H 1836 c -6.77,9.676 -19.67,28.707 -50.32,28.707 -44.84,0 -70.31,-36.769 -70.31,-84.187 0,-40.32 16.77,-94.188 74.18,-94.188 16.46,0 35.81,5.161 48.07,28.059 h 0.64 v -23.223 h 26.77 z M 1744.72,533.863 c 0,21.61 2.25,63.223 46.12,63.223 40.97,0 45.48,-44.195 45.48,-71.613 0,-44.832 -28.06,-56.766 -46.12,-56.766 -30.97,0 -45.48,28.063 -45.48,65.156" /><path
         id="path20"
         style="fill:#231f20;fill-opacity:1;fill-rule:nonzero;stroke:none"
         d="m 2025.67,501.93 c -0.97,-12.578 -16.77,-33.223 -43.55,-33.223 -32.57,0 -49.02,20.32 -49.02,55.477 h 123.21 c 0,59.675 -23.86,98.382 -72.57,98.382 -55.81,0 -80.97,-41.609 -80.97,-93.867 0,-48.703 28.07,-84.508 75.49,-84.508 27.09,0 38.06,6.45 45.8,11.61 21.29,14.195 29.03,38.062 30,46.129 z m -92.57,44.832 c 0,26.129 20.64,50.324 46.77,50.324 34.51,0 45.48,-24.195 47.09,-50.324 h -93.86" /><path
         id="path22"
         style="fill:#231f20;fill-opacity:1;fill-rule:nonzero;stroke:none"
         d="m 2128.9,449.027 h -28.39 V 617.73 h 26.77 v -28.066 h 0.65 c 11.29,19.676 26.12,32.902 47.41,32.902 3.55,0 5.16,-0.32 7.42,-0.968 v -29.352 h -10.64 c -26.45,0 -43.22,-20.644 -43.22,-45.16 v -98.059" /><path
         id="path24"
         style="fill:#231f20;fill-opacity:1;fill-rule:nonzero;stroke:none"
         d="m 2232.44,566.441 c 1.94,12.899 6.45,32.579 38.71,32.579 26.77,0 39.67,-9.68 39.67,-27.418 0,-16.774 -8.06,-19.356 -14.84,-20 l -46.77,-5.805 c -47.09,-5.809 -51.29,-38.707 -51.29,-52.902 0,-29.028 21.94,-48.704 52.91,-48.704 32.9,0 49.99,15.481 60.96,27.414 0.97,-12.898 4.84,-25.804 30,-25.804 6.45,0 10.64,1.937 15.48,3.226 v 20.645 c -3.23,-0.645 -6.77,-1.289 -9.35,-1.289 -5.81,0 -9.36,2.902 -9.36,10 v 97.09 c 0,43.222 -49.03,47.093 -62.57,47.093 -41.61,0 -68.39,-15.804 -69.68,-56.125 z m 77.74,-59.031 c 0,-22.574 -25.81,-39.672 -52.26,-39.672 -21.29,0 -30.64,10.969 -30.64,29.352 0,21.289 22.26,25.484 36.12,27.418 35.16,4.515 42.26,7.094 46.78,10.644 V 507.41" /><path
         id="path26"
         style="fill:#231f20;fill-opacity:1;fill-rule:nonzero;stroke:none"
         d="m 2498.55,560.957 c -3.54,22.578 -16.12,36.129 -39.99,36.129 -35.16,0 -46.45,-33.551 -46.45,-63.547 0,-29.031 7.09,-64.832 46.13,-64.832 19.03,0 35.48,14.188 40.31,39.992 h 27.42 c -2.9,-26.769 -19.35,-64.508 -68.7,-64.508 -47.42,0 -75.48,35.805 -75.48,84.508 0,52.258 25.16,93.867 80.96,93.867 44.19,0 60.97,-32.253 63.22,-61.609 h -27.42" /><path
         id="path28"
         style="fill:#231f20;fill-opacity:1;fill-rule:nonzero;stroke:none"
         d="m 2561.46,648.371 v 32.254 h 28.38 v -32.254 z m 28.38,-199.344 h -28.38 V 617.73 h 28.38 V 449.027" /><path
         id="path30"
         style="fill:#231f20;fill-opacity:1;fill-rule:nonzero;stroke:none"
         d="m 2756.93,685.785 h -34.84 l -28.71,-45.476 H 2715 Z M 2629.19,533.539 c 0,-43.543 24.52,-89.027 78.39,-89.027 53.87,0 78.38,45.484 78.38,89.027 0,43.547 -24.51,89.027 -78.38,89.027 -53.87,0 -78.39,-45.48 -78.39,-89.027 z m 29.35,0 c 0,22.578 8.39,64.512 49.04,64.512 40.64,0 49.03,-41.934 49.03,-64.512 0,-22.578 -8.39,-64.512 -49.03,-64.512 -40.65,0 -49.04,41.934 -49.04,64.512" /><path
         id="path32"
         style="fill:#231f20;fill-opacity:1;fill-rule:nonzero;stroke:none"
         d="m 2962.08,449.027 h -28.38 v 103.864 c 0,29.355 -8.39,44.195 -36.13,44.195 -16.13,0 -44.51,-10.324 -44.51,-56.129 v -91.93 h -28.39 V 617.73 h 26.77 v -23.871 h 0.64 c 6.14,9.032 21.94,28.707 50.97,28.707 26.13,0 59.03,-10.64 59.03,-58.703 V 449.027" /><path
         id="path34"
         style="fill:#231f20;fill-opacity:1;fill-rule:nonzero;stroke:none"
         d="m 3146.27,449.027 h -31.29 v 231.598 h 31.29 V 449.027" /><path
         id="path36"
         style="fill:#231f20;fill-opacity:1;fill-rule:nonzero;stroke:none"
         d="m 3340.13,449.027 h -28.39 v 103.864 c 0,29.355 -8.38,44.195 -36.12,44.195 -16.13,0 -44.52,-10.324 -44.52,-56.129 v -91.93 h -28.38 V 617.73 h 26.77 v -23.871 h 0.65 c 6.12,9.032 21.93,28.707 50.96,28.707 26.13,0 59.03,-10.64 59.03,-58.703 V 449.027" /><path
         id="path38"
         style="fill:#231f20;fill-opacity:1;fill-rule:nonzero;stroke:none"
         d="M 3423.35,594.18 V 484.512 c 0,-13.227 11.29,-13.227 17.1,-13.227 h 10 v -22.258 c -10.32,-0.964 -18.38,-2.254 -21.29,-2.254 -28.06,0 -34.19,15.805 -34.19,36.122 V 594.18 h -22.9 v 23.55 h 22.9 v 47.094 h 28.38 V 617.73 h 27.1 v -23.55 h -27.1" /><path
         id="path40"
         style="fill:#231f20;fill-opacity:1;fill-rule:nonzero;stroke:none"
         d="m 3599.48,501.93 c -0.97,-12.578 -16.78,-33.223 -43.55,-33.223 -32.58,0 -49.03,20.32 -49.03,55.477 h 123.22 c 0,59.675 -23.87,98.382 -72.58,98.382 -55.8,0 -80.96,-41.609 -80.96,-93.867 0,-48.703 28.06,-84.508 75.48,-84.508 27.1,0 38.06,6.45 45.8,11.61 21.29,14.195 29.03,38.062 30,46.129 z m -92.58,44.832 c 0,26.129 20.64,50.324 46.77,50.324 34.51,0 45.48,-24.195 47.1,-50.324 h -93.87" /><path
         id="path42"
         style="fill:#231f20;fill-opacity:1;fill-rule:nonzero;stroke:none"
         d="m 3702.7,449.027 h -28.39 V 617.73 h 26.77 v -28.066 h 0.65 c 11.29,19.676 26.13,32.902 47.41,32.902 3.56,0 5.17,-0.32 7.42,-0.968 v -29.352 h -10.63 c -26.46,0 -43.23,-20.644 -43.23,-45.16 v -98.059" /><path
         id="path44"
         style="fill:#231f20;fill-opacity:1;fill-rule:nonzero;stroke:none"
         d="m 3929.78,449.027 h -28.38 v 103.864 c 0,29.355 -8.39,44.195 -36.14,44.195 -16.12,0 -44.51,-10.324 -44.51,-56.129 v -91.93 h -28.39 V 617.73 h 26.78 v -23.871 h 0.65 c 6.13,9.032 21.93,28.707 50.96,28.707 26.13,0 59.03,-10.64 59.03,-58.703 V 449.027" /><path
         id="path46"
         style="fill:#231f20;fill-opacity:1;fill-rule:nonzero;stroke:none"
         d="m 4003.33,566.441 c 1.93,12.899 6.45,32.579 38.7,32.579 26.78,0 39.68,-9.68 39.68,-27.418 0,-16.774 -8.07,-19.356 -14.83,-20 l -46.78,-5.805 c -47.09,-5.809 -51.29,-38.707 -51.29,-52.902 0,-29.028 21.93,-48.704 52.91,-48.704 32.89,0 49.99,15.481 60.96,27.414 0.96,-12.898 4.84,-25.804 30,-25.804 6.44,0 10.64,1.937 15.48,3.226 v 20.645 c -3.23,-0.645 -6.77,-1.289 -9.35,-1.289 -5.81,0 -9.36,2.902 -9.36,10 v 97.09 c 0,43.222 -49.03,47.093 -62.57,47.093 -41.62,0 -68.38,-15.804 -69.67,-56.125 z m 77.73,-59.031 c 0,-22.574 -25.8,-39.672 -52.25,-39.672 -21.29,0 -30.65,10.969 -30.65,29.352 0,21.289 22.27,25.484 36.14,27.418 35.15,4.515 42.25,7.094 46.76,10.644 V 507.41" /><path
         id="path48"
         style="fill:#231f20;fill-opacity:1;fill-rule:nonzero;stroke:none"
         d="m 4269.44,560.957 c -3.54,22.578 -16.13,36.129 -40,36.129 -35.15,0 -46.44,-33.551 -46.44,-63.547 0,-29.031 7.1,-64.832 46.12,-64.832 19.03,0 35.48,14.188 40.32,39.992 h 27.43 c -2.91,-26.769 -19.36,-64.508 -68.71,-64.508 -47.42,0 -75.48,35.805 -75.48,84.508 0,52.258 25.15,93.867 80.96,93.867 44.19,0 60.96,-32.253 63.23,-61.609 h -27.43" /><path
         id="path50"
         style="fill:#231f20;fill-opacity:1;fill-rule:nonzero;stroke:none"
         d="m 4332.35,648.371 v 32.254 h 28.38 v -32.254 z m 28.38,-199.344 h -28.38 V 617.73 h 28.38 V 449.027" /><path
         id="path52"
         style="fill:#231f20;fill-opacity:1;fill-rule:nonzero;stroke:none"
         d="m 4400.08,533.539 c 0,-43.543 24.52,-89.027 78.39,-89.027 53.86,0 78.38,45.484 78.38,89.027 0,43.547 -24.52,89.027 -78.38,89.027 -53.87,0 -78.39,-45.48 -78.39,-89.027 z m 29.35,0 c 0,22.578 8.39,64.512 49.04,64.512 40.63,0 49.03,-41.934 49.03,-64.512 0,-22.578 -8.4,-64.512 -49.03,-64.512 -40.65,0 -49.04,41.934 -49.04,64.512" /><path
         id="path54"
         style="fill:#231f20;fill-opacity:1;fill-rule:nonzero;stroke:none"
         d="m 4732.97,449.027 h -28.38 v 103.864 c 0,29.355 -8.4,44.195 -36.13,44.195 -16.14,0 -44.51,-10.324 -44.51,-56.129 v -91.93 h -28.39 V 617.73 h 26.76 v -23.871 h 0.66 c 6.12,9.032 21.93,28.707 50.96,28.707 26.13,0 59.03,-10.64 59.03,-58.703 V 449.027" /><path
         id="path56"
         style="fill:#231f20;fill-opacity:1;fill-rule:nonzero;stroke:none"
         d="m 4806.51,566.441 c 1.95,12.899 6.46,32.579 38.71,32.579 26.77,0 39.68,-9.68 39.68,-27.418 0,-16.774 -8.06,-19.356 -14.84,-20 l -46.77,-5.805 c -47.1,-5.809 -51.29,-38.707 -51.29,-52.902 0,-29.028 21.94,-48.704 52.9,-48.704 32.9,0 50,15.481 60.97,27.414 0.97,-12.898 4.83,-25.804 29.99,-25.804 6.45,0 10.65,1.937 15.49,3.226 v 20.645 c -3.22,-0.645 -6.78,-1.289 -9.36,-1.289 -5.81,0 -9.34,2.902 -9.34,10 v 97.09 c 0,43.222 -49.04,47.093 -62.59,47.093 -41.6,0 -68.38,-15.804 -69.67,-56.125 z m 77.75,-59.031 c 0,-22.574 -25.8,-39.672 -52.26,-39.672 -21.29,0 -30.64,10.969 -30.64,29.352 0,21.289 22.25,25.484 36.12,27.418 35.17,4.515 42.27,7.094 46.78,10.644 V 507.41" /><path
         id="path58"
         style="fill:#231f20;fill-opacity:1;fill-rule:nonzero;stroke:none"
         d="m 4996.18,449.027 h -28.38 v 231.598 h 28.38 V 449.027" /><path
         id="path60"
         style="fill:#231f20;fill-opacity:1;fill-rule:nonzero;stroke:none"
         d="m 5281.33,680.625 h -28.39 v -86.766 h -0.64 c -6.77,9.676 -19.68,28.707 -50.32,28.707 -44.84,0 -70.32,-36.769 -70.32,-84.187 0,-40.32 16.78,-94.188 74.19,-94.188 16.45,0 35.8,5.161 48.06,28.059 h 0.65 v -23.223 h 26.77 z M 5161.02,533.863 c 0,21.61 2.25,63.223 46.12,63.223 40.97,0 45.48,-44.195 45.48,-71.613 0,-44.832 -28.06,-56.766 -46.13,-56.766 -30.96,0 -45.47,28.063 -45.47,65.156" /><path
         id="path62"
         style="fill:#231f20;fill-opacity:1;fill-rule:nonzero;stroke:none"
         d="m 5441.97,501.93 c -0.97,-12.578 -16.77,-33.223 -43.54,-33.223 -32.58,0 -49.04,20.32 -49.04,55.477 h 123.22 c 0,59.675 -23.86,98.382 -72.57,98.382 -55.81,0 -80.97,-41.609 -80.97,-93.867 0,-48.703 28.07,-84.508 75.49,-84.508 27.09,0 38.06,6.45 45.79,11.61 21.29,14.195 29.04,38.062 30,46.129 z m -92.58,44.832 c 0,26.129 20.65,50.324 46.78,50.324 34.51,0 45.47,-24.195 47.09,-50.324 h -93.87" /><path
         id="path64"
         style="fill:#231f20;fill-opacity:1;fill-rule:nonzero;stroke:none"
         d="m 5752.28,612.891 c -1.62,35.8 -31.28,47.093 -57.42,47.093 -19.67,0 -52.9,-5.48 -52.9,-40.644 0,-19.676 13.88,-26.125 27.42,-29.356 l 66.13,-15.156 c 30,-7.098 52.58,-25.16 52.58,-61.933 0,-54.832 -50.97,-69.997 -90.65,-69.997 -42.89,0 -59.68,12.903 -69.99,22.258 -19.68,17.739 -23.55,37.094 -23.55,58.707 h 29.36 c 0,-41.933 34.18,-54.191 63.87,-54.191 22.58,0 60.63,5.808 60.63,39.027 0,24.196 -11.29,31.938 -49.34,40.969 L 5661,560.637 c -15.16,3.547 -49.36,14.191 -49.36,54.511 0,36.125 23.55,71.61 79.68,71.61 80.96,0 89.02,-48.383 90.31,-73.867 h -29.35" /><path
         id="path66"
         style="fill:#231f20;fill-opacity:1;fill-rule:nonzero;stroke:none"
         d="m 5820.99,533.539 c 0,-43.543 24.52,-89.027 78.39,-89.027 53.86,0 78.37,45.484 78.37,89.027 0,43.547 -24.51,89.027 -78.37,89.027 -53.87,0 -78.39,-45.48 -78.39,-89.027 z m 29.35,0 c 0,22.578 8.39,64.512 49.04,64.512 40.64,0 49.02,-41.934 49.02,-64.512 0,-22.578 -8.38,-64.512 -49.02,-64.512 -40.65,0 -49.04,41.934 -49.04,64.512" /><path
         id="path68"
         style="fill:#231f20;fill-opacity:1;fill-rule:nonzero;stroke:none"
         d="m 6121.94,560.957 c -3.55,22.578 -16.13,36.129 -40,36.129 -35.15,0 -46.45,-33.551 -46.45,-63.547 0,-29.031 7.11,-64.832 46.13,-64.832 19.03,0 35.48,14.188 40.32,39.992 h 27.42 c -2.9,-26.769 -19.36,-64.508 -68.71,-64.508 -47.41,0 -75.47,35.805 -75.47,84.508 0,52.258 25.15,93.867 80.96,93.867 44.19,0 60.96,-32.253 63.22,-61.609 h -27.42" /><path
         id="path70"
         style="fill:#231f20;fill-opacity:1;fill-rule:nonzero;stroke:none"
         d="m 6184.84,648.371 v 32.254 h 28.38 v -32.254 z m 28.38,-199.344 h -28.38 V 617.73 h 28.38 V 449.027" /><path
         id="path72"
         style="fill:#231f20;fill-opacity:1;fill-rule:nonzero;stroke:none"
         d="m 6377.09,501.93 c -0.98,-12.578 -16.78,-33.223 -43.55,-33.223 -32.58,0 -49.03,20.32 -49.03,55.477 h 123.21 c 0,59.675 -23.85,98.382 -72.56,98.382 -55.8,0 -80.97,-41.609 -80.97,-93.867 0,-48.703 28.07,-84.508 75.48,-84.508 27.1,0 38.06,6.45 45.81,11.61 21.29,14.195 29.03,38.062 30,46.129 z m -92.58,44.832 c 0,26.129 20.65,50.324 46.78,50.324 34.51,0 45.48,-24.195 47.09,-50.324 h -93.87" /><path
         id="path74"
         style="fill:#231f20;fill-opacity:1;fill-rule:nonzero;stroke:none"
         d="m 6588.05,680.625 h -28.38 v -86.766 h -0.66 c -6.76,9.676 -19.67,28.707 -50.32,28.707 -44.82,0 -70.31,-36.769 -70.31,-84.187 0,-40.32 16.78,-94.188 74.19,-94.188 16.44,0 35.8,5.161 48.06,28.059 h 0.64 v -23.223 h 26.78 z M 6467.72,533.863 c 0,21.61 2.27,63.223 46.14,63.223 40.96,0 45.48,-44.195 45.48,-71.613 0,-44.832 -28.07,-56.766 -46.13,-56.766 -30.96,0 -45.49,28.063 -45.49,65.156" /><path
         id="path76"
         style="fill:#231f20;fill-opacity:1;fill-rule:nonzero;stroke:none"
         d="m 6659.01,566.441 c 1.94,12.899 6.46,32.579 38.71,32.579 26.77,0 39.67,-9.68 39.67,-27.418 0,-16.774 -8.05,-19.356 -14.83,-20 l -46.78,-5.805 c -47.09,-5.809 -51.28,-38.707 -51.28,-52.902 0,-29.028 21.94,-48.704 52.9,-48.704 32.9,0 49.99,15.481 60.96,27.414 0.98,-12.898 4.84,-25.804 30,-25.804 6.45,0 10.64,1.937 15.49,3.226 v 20.645 c -3.22,-0.645 -6.78,-1.289 -9.36,-1.289 -5.81,0 -9.35,2.902 -9.35,10 v 97.09 c 0,43.222 -49.04,47.093 -62.58,47.093 -41.61,0 -68.38,-15.804 -69.67,-56.125 z m 77.75,-59.031 c 0,-22.574 -25.81,-39.672 -52.27,-39.672 -21.29,0 -30.64,10.969 -30.64,29.352 0,21.289 22.25,25.484 36.13,27.418 35.16,4.515 42.26,7.094 46.78,10.644 V 507.41" /><path
         id="path78"
         style="fill:#231f20;fill-opacity:1;fill-rule:nonzero;stroke:none"
         d="m 6959.64,680.625 h -28.38 v -86.766 h -0.64 c -6.78,9.676 -19.68,28.707 -50.33,28.707 -44.83,0 -70.31,-36.769 -70.31,-84.187 0,-40.32 16.77,-94.188 74.18,-94.188 16.46,0 35.81,5.161 48.07,28.059 h 0.64 v -23.223 h 26.77 z m -120.3,-146.762 c 0,21.61 2.24,63.223 46.11,63.223 40.98,0 45.49,-44.195 45.49,-71.613 0,-44.832 -28.07,-56.766 -46.13,-56.766 -30.96,0 -45.47,28.063 -45.47,65.156" /><path
         id="path80"
         style="fill:#231f20;fill-opacity:1;fill-rule:nonzero;stroke:none"
         d="m 7120.28,501.93 c -0.96,-12.578 -16.76,-33.223 -43.54,-33.223 -32.58,0 -49.03,20.32 -49.03,55.477 h 123.22 c 0,59.675 -23.87,98.382 -72.58,98.382 -55.8,0 -80.96,-41.609 -80.96,-93.867 0,-48.703 28.06,-84.508 75.48,-84.508 27.09,0 38.06,6.45 45.8,11.61 21.29,14.195 29.03,38.062 30,46.129 z m -92.57,44.832 c 0,26.129 20.64,50.324 46.77,50.324 34.51,0 45.48,-24.195 47.09,-50.324 h -93.86" /><path
         id="path82"
         style="fill:#231f20;fill-opacity:1;fill-rule:nonzero;stroke:none"
         d="m 7287.05,569.668 c -0.32,10.645 -4.2,28.383 -39.99,28.383 -8.71,0 -33.55,-2.903 -33.55,-23.871 0,-13.867 8.71,-17.094 30.64,-22.578 l 28.39,-7.094 c 35.16,-8.711 47.41,-21.613 47.41,-44.512 0,-34.84 -28.7,-55.805 -66.77,-55.805 -66.77,0 -71.61,38.704 -72.57,59.028 h 27.41 c 0.97,-13.223 4.84,-34.512 44.84,-34.512 20.32,0 38.7,8.063 38.7,26.773 0,13.543 -9.35,18.059 -33.54,24.188 l -32.9,8.066 c -23.55,5.805 -39.03,17.739 -39.03,40.961 0,37.094 30.64,53.871 63.87,53.871 60.31,0 64.51,-44.515 64.51,-52.898 h -27.42" /><path
         id="path84"
         style="fill:#231f20;fill-opacity:1;fill-rule:nonzero;stroke:none"
         d="m 1485.37,300.625 h -28.38 v -86.766 h -0.65 c -6.77,9.676 -19.67,28.707 -50.31,28.707 -44.84,0 -70.33,-36.769 -70.33,-84.187 0,-40.32 16.78,-94.1876 74.19,-94.1876 16.45,0 35.81,5.1641 48.06,28.0547 h 0.65 V 69.0234 h 26.77 z M 1365.05,153.863 c 0,21.61 2.26,63.223 46.13,63.223 40.97,0 45.49,-44.195 45.49,-71.606 0,-44.835 -28.07,-56.7691 -46.13,-56.7691 -30.96,0 -45.49,28.0591 -45.49,65.1521" /><path
         id="path86"
         style="fill:#231f20;fill-opacity:1;fill-rule:nonzero;stroke:none"
         d="m 1646.01,121.934 c -0.97,-12.579 -16.77,-33.2231 -43.54,-33.2231 -32.58,0 -49.03,20.3121 -49.03,55.4801 h 123.22 c 0,59.668 -23.88,98.375 -72.58,98.375 -55.8,0 -80.96,-41.609 -80.96,-93.867 0,-48.699 28.06,-84.5076 75.47,-84.5076 27.1,0 38.07,6.4531 45.81,11.6094 21.29,14.1992 29.03,38.0582 29.99,46.1332 z m -92.57,44.828 c 0,26.129 20.64,50.324 46.77,50.324 34.51,0 45.48,-24.195 47.09,-50.324 h -93.86" /><path
         id="path88"
         style="fill:#231f20;fill-opacity:1;fill-rule:nonzero;stroke:none"
         d="m 1842.13,69.0234 h -28.38 V 300.625 h 28.38 V 69.0234" /><path
         id="path90"
         style="fill:#231f20;fill-opacity:1;fill-rule:nonzero;stroke:none"
         d="m 1916.32,186.441 c 1.94,12.899 6.45,32.579 38.71,32.579 26.77,0 39.67,-9.68 39.67,-27.418 0,-16.774 -8.06,-19.356 -14.84,-20 l -46.76,-5.805 c -47.1,-5.809 -51.29,-38.707 -51.29,-52.906 0,-29.0238 21.93,-48.6996 52.9,-48.6996 32.9,0 49.99,15.4883 60.96,27.4102 0.97,-12.8907 4.84,-25.8008 30,-25.8008 6.45,0 10.64,1.9336 15.48,3.2226 v 20.6563 c -3.23,-0.6563 -6.77,-1.2891 -9.35,-1.2891 -5.81,0 -9.36,2.8985 -9.36,10 v 97.0824 c 0,43.222 -49.03,47.093 -62.57,47.093 -41.61,0 -68.39,-15.804 -69.67,-56.125 z m 77.74,-59.031 c 0,-22.574 -25.81,-39.6756 -52.26,-39.6756 -21.29,0 -30.64,10.9765 -30.64,29.3556 0,21.289 22.26,25.476 36.13,27.422 35.16,4.511 42.25,7.09 46.77,10.64 V 127.41" /><path
         id="path92"
         style="fill:#231f20;fill-opacity:1;fill-rule:nonzero;stroke:none"
         d="m 2339.2,230.953 c -8.71,40.645 -42.57,48.063 -64.83,48.063 -41.93,0 -75.8,-30.965 -75.8,-91.93 0,-54.52 19.35,-96.4415 76.77,-96.4415 20.32,0 55.48,9.6685 66.12,63.5395 h 30.32 c -12.9,-87.4145 -83.86,-91.2856 -101.28,-91.2856 -52.58,0 -104.19,34.1914 -104.19,123.2186 0,71.285 40.64,120.641 108.06,120.641 59.67,0 90.64,-37.094 95.16,-75.805 h -30.33" /><path
         id="path94"
         style="fill:#231f20;fill-opacity:1;fill-rule:nonzero;stroke:none"
         d="m 2444.68,69.0234 h -28.39 V 237.73 h 26.78 v -28.066 h 0.65 c 11.28,19.676 26.12,32.902 47.41,32.902 3.55,0 5.16,-0.32 7.42,-0.968 v -29.352 h -10.64 c -26.45,0 -43.23,-20.644 -43.23,-45.16 V 69.0234" /><path
         id="path96"
         style="fill:#231f20;fill-opacity:1;fill-rule:nonzero;stroke:none"
         d="m 2641.12,69.0234 v 24.5235 l -0.64,0.6445 c -11.94,-19.6797 -26.45,-30 -53.55,-30 -24.84,0 -54.84,11.9297 -54.84,52.2536 V 237.73 h 28.39 V 125.801 c 0,-27.7424 14.19,-37.0901 32.58,-37.0901 35.8,0 46.45,31.6021 46.45,56.1131 v 92.906 h 28.39 V 69.0234 h -26.78" /><path
         id="path98"
         style="fill:#231f20;fill-opacity:1;fill-rule:nonzero;stroke:none"
         d="m 2743.7,92.5664 h 103.54 V 69.0234 H 2705.96 V 91.2891 L 2807.57,214.18 h -93.87 v 23.55 h 130.64 V 214.504 L 2743.7,92.5664" /><path
         id="path100"
         style="fill:#231f20;fill-opacity:1;fill-rule:nonzero;stroke:none"
         d="m 3019.5,168.379 h 75.8 c 37.41,0 41.29,-22.258 41.29,-41.289 0,-8.711 0.96,-43.8673 5.48,-58.0666 h 38.38 v 5.168 c -9.67,5.4883 -11.28,10.3203 -11.61,23.2188 l -1.94,41.9378 c -1.28,32.254 -14.51,38.058 -27.73,43.543 14.83,8.711 32.25,21.289 32.25,55.484 0,49.027 -38.06,62.25 -76.12,62.25 H 2988.21 V 69.0234 h 31.29 z m 0,105.473 h 78.05 c 15.49,0 41.62,-2.899 41.62,-38.704 0,-34.191 -24.2,-39.996 -47.1,-39.996 h -72.57 v 78.7" /><path
         id="path102"
         style="fill:#231f20;fill-opacity:1;fill-rule:nonzero;stroke:none"
         d="m 3210.45,153.539 c 0,-43.539 24.52,-89.0273 78.38,-89.0273 53.87,0 78.39,45.4883 78.39,89.0273 0,43.547 -24.52,89.027 -78.39,89.027 -53.86,0 -78.38,-45.48 -78.38,-89.027 z m 29.35,0 c 0,22.578 8.39,64.512 49.03,64.512 40.65,0 49.03,-41.934 49.03,-64.512 0,-22.582 -8.38,-64.5156 -49.03,-64.5156 -40.64,0 -49.03,41.9336 -49.03,64.5156" /><path
         id="path104"
         style="fill:#231f20;fill-opacity:1;fill-rule:nonzero;stroke:none"
         d="m 3434.96,268.367 h -28.39 v 32.258 h 28.39 z m 0,-224.1756 c 0,-14.5117 -1.29,-42.90234 -43.23,-42.90234 -3.86,0 -7.74,0.32032 -11.93,0.96875 V 26.7695 h 5.81 c 16.77,0 20.96,1.6211 20.96,20.6524 V 237.73 h 28.39 V 44.1914" /><path
         id="path106"
         style="fill:#231f20;fill-opacity:1;fill-rule:nonzero;stroke:none"
         d="m 3509.15,186.441 c 1.93,12.899 6.45,32.579 38.7,32.579 26.77,0 39.67,-9.68 39.67,-27.418 0,-16.774 -8.06,-19.356 -14.83,-20 l -46.77,-5.805 c -47.1,-5.809 -51.29,-38.707 -51.29,-52.906 0,-29.0238 21.93,-48.6996 52.9,-48.6996 32.9,0 50,15.4883 60.97,27.4102 0.96,-12.8907 4.83,-25.8008 29.99,-25.8008 6.45,0 10.65,1.9336 15.48,3.2226 v 20.6563 c -3.22,-0.6563 -6.77,-1.2891 -9.35,-1.2891 -5.81,0 -9.35,2.8985 -9.35,10 v 97.0824 c 0,43.222 -49.03,47.093 -62.58,47.093 -41.61,0 -68.38,-15.804 -69.67,-56.125 z m 77.73,-59.031 c 0,-22.574 -25.81,-39.6756 -52.26,-39.6756 -21.29,0 -30.64,10.9765 -30.64,29.3556 0,21.289 22.26,25.476 36.13,27.422 35.16,4.511 42.25,7.09 46.77,10.64 V 127.41" /><path
         id="path108"
         style="fill:#231f20;fill-opacity:1;fill-rule:nonzero;stroke:none"
         d="m 3871.39,237.73 h 31.29 C 3883,182.566 3863.64,127.41 3842.03,72.2578 3815.26,3.86719 3812.35,0 3775.91,0 c -4.19,0 -7.41,1.28906 -11.94,2.57813 V 28.3906 c 3.55,-1.289 9.35,-2.9101 17.09,-2.9101 14.85,0 16.46,4.1992 30,39.0312 L 3748.5,237.73 h 32.24 l 44.85,-137.417 h 0.64 l 45.16,137.417" /><path
         id="path110"
         style="fill:#231f20;fill-opacity:1;fill-rule:nonzero;stroke:none"
         d="m 4169.77,300.625 h -28.39 v -86.766 h -0.65 c -6.77,9.676 -19.68,28.707 -50.32,28.707 -44.83,0 -70.31,-36.769 -70.31,-84.187 0,-40.32 16.77,-94.1876 74.18,-94.1876 16.45,0 35.81,5.1641 48.06,28.0547 h 0.65 V 69.0234 h 26.78 z M 4049.44,153.863 c 0,21.61 2.26,63.223 46.13,63.223 40.97,0 45.48,-44.195 45.48,-71.606 0,-44.835 -28.06,-56.7691 -46.12,-56.7691 -30.97,0 -45.49,28.0591 -45.49,65.1521" /><path
         id="path112"
         style="fill:#231f20;fill-opacity:1;fill-rule:nonzero;stroke:none"
         d="m 4330.4,121.934 c -0.97,-12.579 -16.77,-33.2231 -43.54,-33.2231 -32.58,0 -49.03,20.3121 -49.03,55.4801 h 123.21 c 0,59.668 -23.86,98.375 -72.57,98.375 -55.8,0 -80.96,-41.609 -80.96,-93.867 0,-48.699 28.06,-84.5076 75.47,-84.5076 27.1,0 38.06,6.4531 45.81,11.6094 21.29,14.1992 29.02,38.0582 30,46.1332 z m -92.57,44.828 c 0,26.129 20.64,50.324 46.77,50.324 34.51,0 45.48,-24.195 47.09,-50.324 h -93.86" /><path
         id="path114"
         style="fill:#231f20;fill-opacity:1;fill-rule:nonzero;stroke:none"
         d="m 4526.52,69.0234 h -28.38 V 300.625 h 28.38 V 69.0234" /><path
         id="path116"
         style="fill:#231f20;fill-opacity:1;fill-rule:nonzero;stroke:none"
         d="m 4600.7,186.441 c 1.95,12.899 6.46,32.579 38.71,32.579 26.78,0 39.68,-9.68 39.68,-27.418 0,-16.774 -8.06,-19.356 -14.83,-20 l -46.78,-5.805 c -47.09,-5.809 -51.29,-38.707 -51.29,-52.906 0,-29.0238 21.94,-48.6996 52.91,-48.6996 32.89,0 49.99,15.4883 60.96,27.4102 0.97,-12.8907 4.83,-25.8008 30,-25.8008 6.45,0 10.64,1.9336 15.49,3.2226 v 20.6563 c -3.24,-0.6563 -6.78,-1.2891 -9.37,-1.2891 -5.8,0 -9.34,2.8985 -9.34,10 v 97.0824 c 0,43.222 -49.04,47.093 -62.58,47.093 -41.61,0 -68.38,-15.804 -69.68,-56.125 z m 77.75,-59.031 c 0,-22.574 -25.8,-39.6756 -52.26,-39.6756 -21.29,0 -30.64,10.9765 -30.64,29.3556 0,21.289 22.25,25.476 36.13,27.422 35.16,4.511 42.26,7.09 46.77,10.64 V 127.41" /><path
         id="path118"
         style="fill:#231f20;fill-opacity:1;fill-rule:nonzero;stroke:none"
         d="M 5051.65,69.0234 V 205.797 c 0,6.769 0.65,36.121 0.65,57.738 h -0.65 L 4986.5,69.0234 h -30.97 l -65.16,194.1836 h -0.64 c 0,-21.289 0.64,-50.641 0.64,-57.41 V 69.0234 h -30.31 V 300.625 h 44.83 l 66.13,-195.789 h 0.64 l 65.8,195.789 h 44.51 V 69.0234 h -30.32" /><path
         id="path120"
         style="fill:#231f20;fill-opacity:1;fill-rule:nonzero;stroke:none"
         d="m 5247.46,121.934 c -0.98,-12.579 -16.78,-33.2231 -43.55,-33.2231 -32.58,0 -49.03,20.3121 -49.03,55.4801 h 123.22 c 0,59.668 -23.87,98.375 -72.58,98.375 -55.8,0 -80.96,-41.609 -80.96,-93.867 0,-48.699 28.06,-84.5076 75.48,-84.5076 27.1,0 38.07,6.4531 45.8,11.6094 21.29,14.1992 29.03,38.0582 30,46.1332 z m -92.58,44.828 c 0,26.129 20.64,50.324 46.77,50.324 34.51,0 45.48,-24.195 47.1,-50.324 h -93.87" /><path
         id="path122"
         style="fill:#231f20;fill-opacity:1;fill-rule:nonzero;stroke:none"
         d="m 5458.42,300.625 h -28.39 v -86.766 h -0.65 c -6.77,9.676 -19.67,28.707 -50.32,28.707 -44.83,0 -70.31,-36.769 -70.31,-84.187 0,-40.32 16.77,-94.1876 74.19,-94.1876 16.44,0 35.8,5.1641 48.06,28.0547 h 0.64 V 69.0234 h 26.78 z M 5338.1,153.863 c 0,21.61 2.25,63.223 46.13,63.223 40.96,0 45.48,-44.195 45.48,-71.606 0,-44.835 -28.07,-56.7691 -46.14,-56.7691 -30.96,0 -45.47,28.0591 -45.47,65.1521" /><path
         id="path124"
         style="fill:#231f20;fill-opacity:1;fill-rule:nonzero;stroke:none"
         d="m 5504.86,268.367 v 32.258 h 28.39 v -32.258 z m 28.39,-199.3436 h -28.39 V 237.73 h 28.39 V 69.0234" /><path
         id="path126"
         style="fill:#231f20;fill-opacity:1;fill-rule:nonzero;stroke:none"
         d="m 5607.43,186.441 c 1.95,12.899 6.46,32.579 38.71,32.579 26.77,0 39.68,-9.68 39.68,-27.418 0,-16.774 -8.07,-19.356 -14.84,-20 l -46.77,-5.805 c -47.1,-5.809 -51.28,-38.707 -51.28,-52.906 0,-29.0238 21.92,-48.6996 52.89,-48.6996 32.91,0 50,15.4883 60.97,27.4102 0.96,-12.8907 4.83,-25.8008 30,-25.8008 6.44,0 10.64,1.9336 15.48,3.2226 v 20.6563 c -3.23,-0.6563 -6.78,-1.2891 -9.36,-1.2891 -5.8,0 -9.35,2.8985 -9.35,10 v 97.0824 c 0,43.222 -49.03,47.093 -62.58,47.093 -41.6,0 -68.38,-15.804 -69.67,-56.125 z m 77.75,-59.031 c 0,-22.574 -25.8,-39.6756 -52.26,-39.6756 -21.29,0 -30.64,10.9765 -30.64,29.3556 0,21.289 22.25,25.476 36.12,27.422 35.16,4.511 42.26,7.09 46.78,10.64 V 127.41" /><path
         id="path128"
         style="fill:#231f20;fill-opacity:1;fill-rule:nonzero;stroke:none"
         d="m 5899.04,96.7695 h 117.41 V 69.0234 h -148.7 V 300.625 h 31.29 V 96.7695" /><path
         id="path130"
         style="fill:#231f20;fill-opacity:1;fill-rule:nonzero;stroke:none"
         d="m 6160,69.0234 v 24.5235 l -0.64,0.6445 c -11.95,-19.6797 -26.46,-30 -53.55,-30 -24.84,0 -54.84,11.9297 -54.84,52.2536 V 237.73 h 28.39 V 125.801 c 0,-27.7424 14.18,-37.0901 32.57,-37.0901 35.8,0 46.45,31.6021 46.45,56.1131 v 92.906 h 28.39 V 69.0234 H 6160" /><path
         id="path132"
         style="fill:#231f20;fill-opacity:1;fill-rule:nonzero;stroke:none"
         d="m 6373.21,69.0234 h -28.39 V 172.891 c 0,29.355 -8.38,44.195 -36.12,44.195 -16.12,0 -44.51,-10.324 -44.51,-56.129 V 69.0234 H 6235.8 V 237.73 h 26.78 v -23.871 h 0.64 c 6.13,9.032 21.94,28.707 50.97,28.707 26.12,0 59.02,-10.64 59.02,-58.703 V 69.0234" /><path
         id="path134"
         style="fill:#231f20;fill-opacity:1;fill-rule:nonzero;stroke:none"
         d="m 6446.76,186.441 c 1.93,12.899 6.45,32.579 38.71,32.579 26.78,0 39.68,-9.68 39.68,-27.418 0,-16.774 -8.07,-19.356 -14.85,-20 l -46.76,-5.805 c -47.1,-5.809 -51.29,-38.707 -51.29,-52.906 0,-29.0238 21.93,-48.6996 52.9,-48.6996 32.9,0 50,15.4883 60.95,27.4102 0.97,-12.8907 4.85,-25.8008 30,-25.8008 6.46,0 10.66,1.9336 15.49,3.2226 v 20.6563 c -3.23,-0.6563 -6.78,-1.2891 -9.35,-1.2891 -5.8,0 -9.36,2.8985 -9.36,10 v 97.0824 c 0,43.222 -49.03,47.093 -62.58,47.093 -41.61,0 -68.38,-15.804 -69.67,-56.125 z m 77.73,-59.031 c 0,-22.574 -25.8,-39.6756 -52.24,-39.6756 -21.29,0 -30.65,10.9765 -30.65,29.3556 0,21.289 22.26,25.476 36.12,27.422 35.17,4.511 42.26,7.09 46.77,10.64 V 127.41" /><path
         id="path136"
         style="fill:#231f20;fill-opacity:1;fill-rule:nonzero;stroke:none"
         d="m 6742.23,168.379 h 75.8 c 37.42,0 41.29,-22.258 41.29,-41.289 0,-8.711 0.97,-43.8673 5.48,-58.0666 h 38.38 v 5.168 c -9.66,5.4883 -11.29,10.3203 -11.6,23.2188 l -1.94,41.9378 c -1.29,32.254 -14.51,38.058 -27.74,43.543 14.84,8.711 32.26,21.289 32.26,55.484 0,49.027 -38.07,62.25 -76.13,62.25 H 6710.94 V 69.0234 h 31.29 z m 0,105.473 h 78.06 c 15.49,0 41.61,-2.899 41.61,-38.704 0,-34.191 -24.19,-39.996 -47.09,-39.996 h -72.58 v 78.7" /><path
         id="path138"
         style="fill:#231f20;fill-opacity:1;fill-rule:nonzero;stroke:none"
         d="m 6933.18,153.539 c 0,-43.539 24.53,-89.0273 78.39,-89.0273 53.87,0 78.38,45.4883 78.38,89.0273 0,43.547 -24.51,89.027 -78.38,89.027 -53.86,0 -78.39,-45.48 -78.39,-89.027 z m 29.36,0 c 0,22.578 8.39,64.512 49.03,64.512 40.64,0 49.04,-41.934 49.04,-64.512 0,-22.582 -8.4,-64.5156 -49.04,-64.5156 -40.64,0 -49.03,41.9336 -49.03,64.5156" /><path
         id="path140"
         style="fill:#231f20;fill-opacity:1;fill-rule:nonzero;stroke:none"
         d="m 7157.7,268.367 h -28.39 v 32.258 h 28.39 z m 0,-224.1756 c 0,-14.5117 -1.29,-42.90234 -43.23,-42.90234 -3.86,0 -7.74,0.32032 -11.93,0.96875 V 26.7695 h 5.81 c 16.77,0 20.96,1.6211 20.96,20.6524 V 237.73 h 28.39 V 44.1914" /><path
         id="path142"
         style="fill:#231f20;fill-opacity:1;fill-rule:nonzero;stroke:none"
         d="m 7231.88,186.441 c 1.94,12.899 6.45,32.579 38.71,32.579 26.77,0 39.67,-9.68 39.67,-27.418 0,-16.774 -8.06,-19.356 -14.83,-20 l -46.78,-5.805 c -47.09,-5.809 -51.29,-38.707 -51.29,-52.906 0,-29.0238 21.94,-48.6996 52.9,-48.6996 32.9,0 50,15.4883 60.97,27.4102 0.97,-12.8907 4.84,-25.8008 30,-25.8008 6.46,0 10.65,1.9336 15.48,3.2226 v 20.6563 c -3.22,-0.6563 -6.78,-1.2891 -9.36,-1.2891 -5.8,0 -9.34,2.8985 -9.34,10 v 97.0824 c 0,43.222 -49.04,47.093 -62.58,47.093 -41.61,0 -68.39,-15.804 -69.68,-56.125 z m 77.74,-59.031 c 0,-22.574 -25.81,-39.6756 -52.26,-39.6756 -21.29,0 -30.64,10.9765 -30.64,29.3556 0,21.289 22.25,25.476 36.13,27.422 35.16,4.511 42.25,7.09 46.77,10.64 V 127.41" /><path
         id="path144"
         style="fill:#ffffff;fill-opacity:1;fill-rule:nonzero;stroke:none"
         d="M 1230,20.332 H 0 V 725.336 H 1230 V 20.332" /><path
         id="path146"
         style="fill:#ed1c24;fill-opacity:1;fill-rule:nonzero;stroke:none"
         d="M 311.816,301.293 H 151.797 v 137.16 h 160.019 l -0.015,0.086 V 598.551 H 448.953 V 438.539 438.473 H 608.965 V 301.324 H 448.953 v 0.02 -160.016 H 311.801 v 160.016 l 0.015,-0.051" /><path
         id="path148"
         style="fill:#ed1c24;fill-opacity:1;fill-rule:nonzero;stroke:none"
         d="m 821.16,372.387 c 0,106.562 86.391,192.961 192.96,192.961 23.72,0 46.45,-4.297 67.43,-12.129 -39.46,31.23 -89.331,49.883 -143.566,49.883 -127.879,0 -231.554,-103.664 -231.554,-231.543 0,-127.883 103.675,-231.539 231.554,-231.539 56.047,0 107.446,19.906 147.506,53.043 -22.08,-8.79 -46.16,-13.633 -71.37,-13.633 -106.569,0 -192.96,86.394 -192.96,192.957" /><path
         id="path150"
         style="fill:none;stroke:#ed1c24;stroke-width:20;stroke-linecap:butt;stroke-linejoin:miter;stroke-miterlimit:4;stroke-dasharray:none;stroke-opacity:1"
         d="M 1180.43,67.8906 V 672.133 H 53.7461 V 67.8906 Z" /></g></g></svg>