<?xml version="1.0" encoding="UTF-8" standalone="no"?>
<svg
   xmlns:dc="http://purl.org/dc/elements/1.1/"
   xmlns:cc="http://creativecommons.org/ns#"
   xmlns:rdf="http://www.w3.org/1999/02/22-rdf-syntax-ns#"
   xmlns:svg="http://www.w3.org/2000/svg"
   xmlns="http://www.w3.org/2000/svg"
   viewBox="0 0 1004.7333 94"
   height="94"
   width="1004.7333"
   xml:space="preserve"
   id="svg2"
   version="1.1"><metadata
     id="metadata8"><rdf:RDF><cc:Work
         rdf:about=""><dc:format>image/svg+xml</dc:format><dc:type
           rdf:resource="http://purl.org/dc/dcmitype/StillImage" /><dc:title></dc:title></cc:Work></rdf:RDF></metadata><defs
     id="defs6" /><g
     transform="matrix(1.3333333,0,0,-1.3333333,0,94)"
     id="g10"><g
       transform="scale(0.1)"
       id="g12"><path
         id="path14"
         style="fill:#231f20;fill-opacity:1;fill-rule:nonzero;stroke:none"
         d="m 1392.83,424.945 h -31.29 v 231.598 h 31.29 V 424.945" /><path
         id="path16"
         style="fill:#231f20;fill-opacity:1;fill-rule:nonzero;stroke:none"
         d="m 1586.69,424.945 h -28.38 v 103.864 c 0,29.355 -8.39,44.195 -36.13,44.195 -16.13,0 -44.52,-10.324 -44.52,-56.129 v -91.93 h -28.38 v 168.703 h 26.77 v -23.871 h 0.64 c 6.13,9.032 21.94,28.707 50.97,28.707 26.13,0 59.03,-10.64 59.03,-58.703 V 424.945" /><path
         id="path18"
         style="fill:#231f20;fill-opacity:1;fill-rule:nonzero;stroke:none"
         d="M 1669.92,570.098 V 460.43 c 0,-13.227 11.29,-13.227 17.09,-13.227 h 10 v -22.258 c -10.32,-0.965 -18.39,-2.254 -21.29,-2.254 -28.06,0 -34.19,15.805 -34.19,36.122 v 111.285 h -22.9 v 23.55 h 22.9 v 47.094 h 28.39 v -47.094 h 27.09 v -23.55 h -27.09" /><path
         id="path20"
         style="fill:#231f20;fill-opacity:1;fill-rule:nonzero;stroke:none"
         d="m 1846.04,477.848 c -0.97,-12.578 -16.78,-33.223 -43.55,-33.223 -32.58,0 -49.03,20.32 -49.03,55.477 h 123.22 c 0,59.675 -23.87,98.382 -72.58,98.382 -55.8,0 -80.96,-41.609 -80.96,-93.867 0,-48.703 28.06,-84.508 75.48,-84.508 27.09,0 38.06,6.45 45.8,11.61 21.29,14.195 29.03,38.062 30,46.129 z m -92.58,44.832 c 0,26.129 20.64,50.324 46.77,50.324 34.52,0 45.48,-24.195 47.09,-50.324 h -93.86" /><path
         id="path22"
         style="fill:#231f20;fill-opacity:1;fill-rule:nonzero;stroke:none"
         d="m 1949.26,424.945 h -28.39 v 168.703 h 26.78 v -28.066 h 0.64 c 11.29,19.676 26.13,32.902 47.42,32.902 3.55,0 5.16,-0.32 7.42,-0.968 v -29.352 h -10.65 c -26.45,0 -43.22,-20.644 -43.22,-45.16 v -98.059" /><path
         id="path24"
         style="fill:#231f20;fill-opacity:1;fill-rule:nonzero;stroke:none"
         d="m 2176.34,424.945 h -28.39 v 103.864 c 0,29.355 -8.38,44.195 -36.12,44.195 -16.13,0 -44.52,-10.324 -44.52,-56.129 v -91.93 h -28.38 v 168.703 h 26.77 v -23.871 h 0.65 c 6.13,9.032 21.93,28.707 50.96,28.707 26.13,0 59.03,-10.64 59.03,-58.703 V 424.945" /><path
         id="path26"
         style="fill:#231f20;fill-opacity:1;fill-rule:nonzero;stroke:none"
         d="m 2249.89,542.359 c 1.93,12.899 6.45,32.579 38.7,32.579 26.78,0 39.68,-9.68 39.68,-27.418 0,-16.774 -8.06,-19.356 -14.84,-20 l -46.77,-5.805 c -47.09,-5.809 -51.28,-38.707 -51.28,-52.902 0,-29.028 21.93,-48.704 52.89,-48.704 32.91,0 50,15.481 60.97,27.414 0.97,-12.898 4.84,-25.804 30,-25.804 6.45,0 10.64,1.937 15.48,3.226 v 20.645 c -3.23,-0.645 -6.78,-1.289 -9.35,-1.289 -5.81,0 -9.36,2.902 -9.36,10 v 97.09 c 0,43.222 -49.03,47.093 -62.58,47.093 -41.61,0 -68.38,-15.804 -69.67,-56.125 z m 77.74,-59.031 c 0,-22.574 -25.81,-39.672 -52.26,-39.672 -21.29,0 -30.64,10.969 -30.64,29.352 0,21.289 22.25,25.484 36.12,27.418 35.16,4.515 42.26,7.094 46.78,10.644 v -27.742" /><path
         id="path28"
         style="fill:#231f20;fill-opacity:1;fill-rule:nonzero;stroke:none"
         d="M 2445.36,570.098 V 460.43 c 0,-13.227 11.3,-13.227 17.1,-13.227 h 10 v -22.258 c -10.32,-0.965 -18.39,-2.254 -21.29,-2.254 -28.06,0 -34.19,15.805 -34.19,36.122 v 111.285 h -22.9 v 23.55 h 22.9 v 47.094 h 28.38 v -47.094 h 27.1 v -23.55 h -27.1" /><path
         id="path30"
         style="fill:#231f20;fill-opacity:1;fill-rule:nonzero;stroke:none"
         d="m 2507.29,624.289 v 32.254 h 28.39 v -32.254 z m 28.39,-199.344 h -28.39 v 168.703 h 28.39 V 424.945" /><path
         id="path32"
         style="fill:#231f20;fill-opacity:1;fill-rule:nonzero;stroke:none"
         d="m 2575.03,509.457 c 0,-43.543 24.52,-89.027 78.38,-89.027 53.87,0 78.39,45.484 78.39,89.027 0,43.547 -24.52,89.027 -78.39,89.027 -53.86,0 -78.38,-45.48 -78.38,-89.027 z m 29.35,0 c 0,22.578 8.39,64.512 49.03,64.512 40.65,0 49.03,-41.934 49.03,-64.512 0,-22.578 -8.38,-64.512 -49.03,-64.512 -40.64,0 -49.03,41.934 -49.03,64.512" /><path
         id="path34"
         style="fill:#231f20;fill-opacity:1;fill-rule:nonzero;stroke:none"
         d="m 2907.92,424.945 h -28.39 v 103.864 c 0,29.355 -8.38,44.195 -36.12,44.195 -16.13,0 -44.52,-10.324 -44.52,-56.129 v -91.93 h -28.38 v 168.703 h 26.77 v -23.871 h 0.64 c 6.13,9.032 21.94,28.707 50.97,28.707 26.13,0 59.03,-10.64 59.03,-58.703 V 424.945" /><path
         id="path36"
         style="fill:#231f20;fill-opacity:1;fill-rule:nonzero;stroke:none"
         d="m 2981.46,542.359 c 1.94,12.899 6.46,32.579 38.72,32.579 26.77,0 39.67,-9.68 39.67,-27.418 0,-16.774 -8.06,-19.356 -14.84,-20 l -46.77,-5.805 c -47.09,-5.809 -51.29,-38.707 -51.29,-52.902 0,-29.028 21.94,-48.704 52.9,-48.704 32.9,0 50,15.481 60.97,27.414 0.97,-12.898 4.83,-25.804 30,-25.804 6.45,0 10.64,1.937 15.48,3.226 v 20.645 c -3.23,-0.645 -6.77,-1.289 -9.36,-1.289 -5.8,0 -9.35,2.902 -9.35,10 v 97.09 c 0,43.222 -49.03,47.093 -62.58,47.093 -41.61,0 -68.38,-15.804 -69.67,-56.125 z m 77.74,-59.031 c 0,-22.574 -25.8,-39.672 -52.25,-39.672 -21.29,0 -30.65,10.969 -30.65,29.352 0,21.289 22.26,25.484 36.13,27.418 35.16,4.515 42.26,7.094 46.77,10.644 v -27.742" /><path
         id="path38"
         style="fill:#231f20;fill-opacity:1;fill-rule:nonzero;stroke:none"
         d="m 3171.14,424.945 h -28.39 v 231.598 h 28.39 V 424.945" /><path
         id="path40"
         style="fill:#231f20;fill-opacity:1;fill-rule:nonzero;stroke:none"
         d="m 3354.35,424.945 h -31.29 v 231.598 h 160.31 v -27.738 h -129.02 v -70.961 h 113.54 V 530.102 H 3354.35 V 424.945" /><path
         id="path42"
         style="fill:#231f20;fill-opacity:1;fill-rule:nonzero;stroke:none"
         d="m 3624.98,477.848 c -0.97,-12.578 -16.77,-33.223 -43.54,-33.223 -32.58,0 -49.03,20.32 -49.03,55.477 h 123.22 c 0,59.675 -23.88,98.382 -72.58,98.382 -55.8,0 -80.97,-41.609 -80.97,-93.867 0,-48.703 28.07,-84.508 75.48,-84.508 27.1,0 38.07,6.45 45.81,11.61 21.29,14.195 29.03,38.062 30,46.129 z m -92.57,44.832 c 0,26.129 20.64,50.324 46.77,50.324 34.51,0 45.48,-24.195 47.09,-50.324 h -93.86" /><path
         id="path44"
         style="fill:#231f20;fill-opacity:1;fill-rule:nonzero;stroke:none"
         d="m 3835.94,656.543 h -28.39 v -86.766 h -0.64 c -6.77,9.676 -19.68,28.707 -50.32,28.707 -44.84,0 -70.32,-36.769 -70.32,-84.187 0,-40.32 16.78,-94.188 74.19,-94.188 16.45,0 35.81,5.161 48.06,28.059 h 0.65 v -23.223 h 26.77 z M 3715.63,509.781 c 0,21.61 2.25,63.223 46.12,63.223 40.96,0 45.48,-44.195 45.48,-71.613 0,-44.832 -28.06,-56.766 -46.12,-56.766 -30.97,0 -45.48,28.063 -45.48,65.156" /><path
         id="path46"
         style="fill:#231f20;fill-opacity:1;fill-rule:nonzero;stroke:none"
         d="m 3996.58,477.848 c -0.97,-12.578 -16.78,-33.223 -43.54,-33.223 -32.58,0 -49.04,20.32 -49.04,55.477 h 123.22 c 0,59.675 -23.86,98.382 -72.57,98.382 -55.81,0 -80.97,-41.609 -80.97,-93.867 0,-48.703 28.07,-84.508 75.49,-84.508 27.09,0 38.06,6.45 45.79,11.61 21.29,14.195 29.04,38.062 30,46.129 z M 3904,522.68 c 0,26.129 20.65,50.324 46.78,50.324 34.51,0 45.47,-24.195 47.09,-50.324 H 3904" /><path
         id="path48"
         style="fill:#231f20;fill-opacity:1;fill-rule:nonzero;stroke:none"
         d="m 4099.8,424.945 h -28.38 v 168.703 h 26.76 v -28.066 h 0.66 c 11.29,19.676 26.12,32.902 47.41,32.902 3.54,0 5.17,-0.32 7.42,-0.968 v -29.352 h -10.64 c -26.45,0 -43.23,-20.644 -43.23,-45.16 v -98.059" /><path
         id="path50"
         style="fill:#231f20;fill-opacity:1;fill-rule:nonzero;stroke:none"
         d="m 4203.35,542.359 c 1.93,12.899 6.44,32.579 38.7,32.579 26.78,0 39.68,-9.68 39.68,-27.418 0,-16.774 -8.07,-19.356 -14.84,-20 l -46.76,-5.805 c -47.1,-5.809 -51.29,-38.707 -51.29,-52.902 0,-29.028 21.92,-48.704 52.9,-48.704 32.89,0 49.99,15.481 60.96,27.414 0.96,-12.898 4.84,-25.804 30,-25.804 6.44,0 10.64,1.937 15.47,3.226 v 20.645 c -3.22,-0.645 -6.76,-1.289 -9.34,-1.289 -5.81,0 -9.37,2.902 -9.37,10 v 97.09 c 0,43.222 -49.02,47.093 -62.57,47.093 -41.61,0 -68.38,-15.804 -69.67,-56.125 z m 77.73,-59.031 c 0,-22.574 -25.8,-39.672 -52.25,-39.672 -21.29,0 -30.65,10.969 -30.65,29.352 0,21.289 22.27,25.484 36.14,27.418 35.15,4.515 42.24,7.094 46.76,10.644 v -27.742" /><path
         id="path52"
         style="fill:#231f20;fill-opacity:1;fill-rule:nonzero;stroke:none"
         d="M 4398.83,570.098 V 460.43 c 0,-13.227 11.29,-13.227 17.09,-13.227 h 10 v -22.258 c -10.32,-0.965 -18.38,-2.254 -21.29,-2.254 -28.07,0 -34.19,15.805 -34.19,36.122 v 111.285 h -22.9 v 23.55 h 22.9 v 47.094 h 28.39 v -47.094 h 27.09 v -23.55 h -27.09" /><path
         id="path54"
         style="fill:#231f20;fill-opacity:1;fill-rule:nonzero;stroke:none"
         d="m 4460.75,624.289 v 32.254 h 28.39 v -32.254 z m 28.39,-199.344 h -28.39 v 168.703 h 28.39 V 424.945" /><path
         id="path56"
         style="fill:#231f20;fill-opacity:1;fill-rule:nonzero;stroke:none"
         d="m 4528.5,509.457 c 0,-43.543 24.51,-89.027 78.38,-89.027 53.86,0 78.37,45.484 78.37,89.027 0,43.547 -24.51,89.027 -78.37,89.027 -53.87,0 -78.38,-45.48 -78.38,-89.027 z m 29.34,0 c 0,22.578 8.39,64.512 49.04,64.512 40.64,0 49.03,-41.934 49.03,-64.512 0,-22.578 -8.39,-64.512 -49.03,-64.512 -40.65,0 -49.04,41.934 -49.04,64.512" /><path
         id="path58"
         style="fill:#231f20;fill-opacity:1;fill-rule:nonzero;stroke:none"
         d="M 4861.38,424.945 H 4833 v 103.864 c 0,29.355 -8.39,44.195 -36.13,44.195 -16.13,0 -44.52,-10.324 -44.52,-56.129 v -91.93 h -28.39 v 168.703 h 26.78 v -23.871 h 0.65 c 6.13,9.032 21.93,28.707 50.95,28.707 26.14,0 59.04,-10.64 59.04,-58.703 V 424.945" /><path
         id="path60"
         style="fill:#231f20;fill-opacity:1;fill-rule:nonzero;stroke:none"
         d="m 1343.48,129.457 c 0,-43.539 24.51,-89.0273 78.38,-89.0273 53.87,0 78.38,45.4883 78.38,89.0273 0,43.547 -24.51,89.027 -78.38,89.027 -53.87,0 -78.38,-45.48 -78.38,-89.027 z m 29.35,0 c 0,22.578 8.39,64.512 49.03,64.512 40.64,0 49.03,-41.934 49.03,-64.512 0,-22.582 -8.39,-64.5156 -49.03,-64.5156 -40.64,0 -49.03,41.9336 -49.03,64.5156" /><path
         id="path62"
         style="fill:#231f20;fill-opacity:1;fill-rule:nonzero;stroke:none"
         d="M 1574.11,190.098 V 44.9414 h -28.38 V 190.098 h -23.23 v 23.55 h 23.23 v 29.028 c 0,25.484 16.13,37.094 43.86,37.094 4.2,0 8.39,-0.321 12.91,-0.645 v -25.48 c -3.55,0.32 -8.07,0.64 -11.62,0.64 -12.25,0 -16.77,-6.125 -16.77,-19.672 v -20.965 h 28.39 v -23.55 h -28.39" /><path
         id="path64"
         style="fill:#231f20;fill-opacity:1;fill-rule:nonzero;stroke:none"
         d="m 1769.91,144.297 h 75.8 c 37.42,0 41.29,-22.254 41.29,-41.289 0,-8.7111 0.97,-43.8674 5.49,-58.0666 h 38.38 v 5.168 c -9.68,5.4883 -11.29,10.3203 -11.61,23.2187 l -1.94,41.9379 c -1.29,32.254 -14.51,38.058 -27.74,43.543 14.84,8.711 32.26,21.289 32.26,55.484 0,49.027 -38.07,62.25 -76.13,62.25 H 1738.62 V 44.9414 h 31.29 z m 0,105.473 h 78.06 c 15.48,0 41.61,-2.899 41.61,-38.704 0,-34.191 -24.19,-39.996 -47.09,-39.996 h -72.58 v 78.7" /><path
         id="path66"
         style="fill:#231f20;fill-opacity:1;fill-rule:nonzero;stroke:none"
         d="m 2085.38,97.8516 c -0.97,-12.5782 -16.78,-33.2227 -43.55,-33.2227 -32.58,0 -49.03,20.3125 -49.03,55.4801 h 123.22 c 0,59.668 -23.87,98.375 -72.58,98.375 -55.8,0 -80.96,-41.609 -80.96,-93.867 0,-48.699 28.06,-84.5076 75.48,-84.5076 27.09,0 38.06,6.4531 45.8,11.6094 21.29,14.1992 29.03,38.0585 30,46.1328 z M 1992.8,142.68 c 0,26.129 20.64,50.324 46.77,50.324 34.52,0 45.48,-24.195 47.1,-50.324 h -93.87" /><path
         id="path68"
         style="fill:#231f20;fill-opacity:1;fill-rule:nonzero;stroke:none"
         d="m 2296.33,276.543 h -28.38 v -86.766 h -0.65 c -6.77,9.676 -19.67,28.707 -50.32,28.707 -44.83,0 -70.31,-36.769 -70.31,-84.187 0,-40.3204 16.77,-94.1876 74.18,-94.1876 16.45,0 35.81,5.164 48.07,28.0547 h 0.64 V 44.9414 h 26.77 z M 2176.02,129.781 c 0,21.61 2.26,63.223 46.12,63.223 40.97,0 45.49,-44.195 45.49,-71.606 0,-44.8355 -28.06,-56.7691 -46.13,-56.7691 -30.96,0 -45.48,28.0586 -45.48,65.1521" /><path
         id="path70"
         style="fill:#231f20;fill-opacity:1;fill-rule:nonzero;stroke:none"
         d="m 2604.38,206.871 c -8.7,40.645 -42.57,48.063 -64.83,48.063 -41.93,0 -75.8,-30.965 -75.8,-91.93 0,-54.52 19.36,-96.4415 76.77,-96.4415 20.32,0 55.48,9.668 66.13,63.5395 h 30.31 c -12.9,-87.4145 -83.86,-91.2856 -101.28,-91.2856 -52.57,0 -104.19,34.1914 -104.19,123.2186 0,71.285 40.65,120.641 108.06,120.641 59.67,0 90.64,-37.094 95.16,-75.805 h -30.33" /><path
         id="path72"
         style="fill:#231f20;fill-opacity:1;fill-rule:nonzero;stroke:none"
         d="m 2709.86,44.9414 h -28.38 V 213.648 h 26.77 v -28.066 h 0.65 c 11.29,19.676 26.12,32.902 47.41,32.902 3.55,0 5.16,-0.32 7.42,-0.968 v -29.352 h -10.64 c -26.45,0 -43.23,-20.644 -43.23,-45.16 V 44.9414" /><path
         id="path74"
         style="fill:#231f20;fill-opacity:1;fill-rule:nonzero;stroke:none"
         d="m 2781.8,129.457 c 0,-43.539 24.51,-89.0273 78.38,-89.0273 53.87,0 78.38,45.4883 78.38,89.0273 0,43.547 -24.51,89.027 -78.38,89.027 -53.87,0 -78.38,-45.48 -78.38,-89.027 z m 29.35,0 c 0,22.578 8.39,64.512 49.03,64.512 40.64,0 49.03,-41.934 49.03,-64.512 0,-22.582 -8.39,-64.5156 -49.03,-64.5156 -40.64,0 -49.03,41.9336 -49.03,64.5156" /><path
         id="path76"
         style="fill:#231f20;fill-opacity:1;fill-rule:nonzero;stroke:none"
         d="m 3073.07,165.586 c -0.32,10.644 -4.19,28.383 -39.99,28.383 -8.71,0 -33.55,-2.903 -33.55,-23.871 0,-13.868 8.71,-17.094 30.64,-22.578 l 28.38,-7.094 c 35.17,-8.711 47.42,-21.617 47.42,-44.508 0,-34.8438 -28.7,-55.8086 -66.77,-55.8086 -66.77,0 -71.61,38.6992 -72.57,59.0312 h 27.41 c 0.97,-13.2226 4.84,-34.5117 44.84,-34.5117 20.32,0 38.71,8.0586 38.71,26.7695 0,13.5426 -9.36,18.0546 -33.55,24.1876 l -32.9,8.066 c -23.55,5.805 -39.03,17.739 -39.03,40.961 0,37.098 30.64,53.871 63.87,53.871 60.32,0 64.51,-44.515 64.51,-52.898 h -27.42" /><path
         id="path78"
         style="fill:#231f20;fill-opacity:1;fill-rule:nonzero;stroke:none"
         d="m 3240.81,165.586 c -0.33,10.644 -4.19,28.383 -40,28.383 -8.71,0 -33.54,-2.903 -33.54,-23.871 0,-13.868 8.7,-17.094 30.64,-22.578 l 28.38,-7.094 c 35.16,-8.711 47.42,-21.617 47.42,-44.508 0,-34.8438 -28.71,-55.8086 -66.77,-55.8086 -66.77,0 -71.61,38.6992 -72.58,59.0312 h 27.42 c 0.97,-13.2226 4.84,-34.5117 44.84,-34.5117 20.32,0 38.7,8.0586 38.7,26.7695 0,13.5426 -9.35,18.0546 -33.54,24.1876 l -32.9,8.066 c -23.55,5.805 -39.04,17.739 -39.04,40.961 0,37.098 30.65,53.871 63.87,53.871 60.32,0 64.52,-44.515 64.52,-52.898 h -27.42" /><path
         id="path80"
         style="fill:#231f20;fill-opacity:1;fill-rule:nonzero;stroke:none"
         d="m 3434.03,162.359 c 1.93,12.899 6.45,32.579 38.7,32.579 26.78,0 39.68,-9.68 39.68,-27.418 0,-16.774 -8.06,-19.356 -14.84,-20 l -46.77,-5.805 c -47.09,-5.809 -51.29,-38.707 -51.29,-52.9064 0,-29.0234 21.94,-48.6992 52.9,-48.6992 32.9,0 50,15.4883 60.97,27.4101 0.97,-12.8906 4.84,-25.8007 29.99,-25.8007 6.46,0 10.65,1.9335 15.49,3.2226 v 20.6563 c -3.23,-0.6563 -6.78,-1.2891 -9.36,-1.2891 -5.8,0 -9.35,2.8984 -9.35,10 v 97.0824 c 0,43.222 -49.03,47.093 -62.58,47.093 -41.61,0 -68.38,-15.804 -69.67,-56.125 z m 77.73,-59.031 c 0,-22.5741 -25.8,-39.6757 -52.25,-39.6757 -21.29,0 -30.64,10.9766 -30.64,29.3555 0,21.2892 22.25,25.4762 36.13,27.4222 35.15,4.511 42.25,7.09 46.76,10.64 v -27.742" /><path
         id="path82"
         style="fill:#231f20;fill-opacity:1;fill-rule:nonzero;stroke:none"
         d="m 3732.08,44.9414 h -28.39 V 148.809 c 0,29.355 -8.38,44.195 -36.13,44.195 -16.12,0 -44.51,-10.324 -44.51,-56.129 V 44.9414 h -28.38 V 213.648 h 26.77 v -23.871 h 0.64 c 6.13,9.032 21.94,28.707 50.97,28.707 26.12,0 59.03,-10.64 59.03,-58.703 V 44.9414" /><path
         id="path84"
         style="fill:#231f20;fill-opacity:1;fill-rule:nonzero;stroke:none"
         d="m 3920.46,276.543 h -28.39 v -86.766 h -0.64 c -6.77,9.676 -19.68,28.707 -50.32,28.707 -44.84,0 -70.32,-36.769 -70.32,-84.187 0,-40.3204 16.77,-94.1876 74.19,-94.1876 16.45,0 35.8,5.164 48.06,28.0547 h 0.65 V 44.9414 h 26.77 z M 3800.14,129.781 c 0,21.61 2.26,63.223 46.13,63.223 40.96,0 45.48,-44.195 45.48,-71.606 0,-44.8355 -28.06,-56.7691 -46.12,-56.7691 -30.97,0 -45.49,28.0586 -45.49,65.1521" /><path
         id="path86"
         style="fill:#231f20;fill-opacity:1;fill-rule:nonzero;stroke:none"
         d="m 4101.09,144.297 h 75.8 c 37.43,0 41.29,-22.254 41.29,-41.289 0,-8.7111 0.98,-43.8674 5.49,-58.0666 h 38.38 v 5.168 c -9.68,5.4883 -11.29,10.3203 -11.6,23.2187 l -1.94,41.9379 c -1.29,32.254 -14.52,38.058 -27.75,43.543 14.85,8.711 32.27,21.289 32.27,55.484 0,49.027 -38.07,62.25 -76.14,62.25 H 4069.8 V 44.9414 h 31.29 z m 0,105.473 h 78.07 c 15.48,0 41.6,-2.899 41.6,-38.704 0,-34.191 -24.18,-39.996 -47.09,-39.996 h -72.58 v 78.7" /><path
         id="path88"
         style="fill:#231f20;fill-opacity:1;fill-rule:nonzero;stroke:none"
         d="m 4416.56,97.8516 c -0.96,-12.5782 -16.77,-33.2227 -43.54,-33.2227 -32.58,0 -49.03,20.3125 -49.03,55.4801 h 123.22 c 0,59.668 -23.88,98.375 -72.58,98.375 -55.8,0 -80.97,-41.609 -80.97,-93.867 0,-48.699 28.07,-84.5076 75.48,-84.5076 27.1,0 38.07,6.4531 45.81,11.6094 21.29,14.1992 29.03,38.0585 30,46.1328 z m -92.57,44.8284 c 0,26.129 20.64,50.324 46.76,50.324 34.52,0 45.49,-24.195 47.1,-50.324 h -93.86" /><path
         id="path90"
         style="fill:#231f20;fill-opacity:1;fill-rule:nonzero;stroke:none"
         d="m 4627.52,276.543 h -28.39 v -86.766 h -0.63 c -6.78,9.676 -19.69,28.707 -50.33,28.707 -44.84,0 -70.32,-36.769 -70.32,-84.187 0,-40.3204 16.78,-94.1876 74.19,-94.1876 16.46,0 35.8,5.164 48.06,28.0547 h 0.65 V 44.9414 h 26.77 z M 4507.21,129.781 c 0,21.61 2.25,63.223 46.12,63.223 40.97,0 45.48,-44.195 45.48,-71.606 0,-44.8355 -28.06,-56.7691 -46.12,-56.7691 -30.97,0 -45.48,28.0586 -45.48,65.1521" /><path
         id="path92"
         style="fill:#231f20;fill-opacity:1;fill-rule:nonzero;stroke:none"
         d="m 4935.58,206.871 c -8.71,40.645 -42.58,48.063 -64.84,48.063 -41.94,0 -75.8,-30.965 -75.8,-91.93 0,-54.52 19.35,-96.4415 76.77,-96.4415 20.32,0 55.48,9.668 66.12,63.5395 h 30.32 c -12.9,-87.4145 -83.86,-91.2856 -101.28,-91.2856 -52.58,0 -104.19,34.1914 -104.19,123.2186 0,71.285 40.65,120.641 108.06,120.641 59.67,0 90.64,-37.094 95.16,-75.805 h -30.32" /><path
         id="path94"
         style="fill:#231f20;fill-opacity:1;fill-rule:nonzero;stroke:none"
         d="m 5041.04,44.9414 h -28.37 V 213.648 h 26.76 v -28.066 h 0.66 c 11.29,19.676 26.12,32.902 47.41,32.902 3.54,0 5.17,-0.32 7.41,-0.968 v -29.352 h -10.63 c -26.46,0 -43.24,-20.644 -43.24,-45.16 V 44.9414" /><path
         id="path96"
         style="fill:#231f20;fill-opacity:1;fill-rule:nonzero;stroke:none"
         d="m 5237.49,97.8516 c -0.97,-12.5782 -16.78,-33.2227 -43.54,-33.2227 -32.58,0 -49.04,20.3125 -49.04,55.4801 h 123.22 c 0,59.668 -23.87,98.375 -72.57,98.375 -55.8,0 -80.97,-41.609 -80.97,-93.867 0,-48.699 28.07,-84.5076 75.49,-84.5076 27.09,0 38.05,6.4531 45.8,11.6094 21.29,14.1992 29.03,38.0585 30,46.1328 z m -92.58,44.8284 c 0,26.129 20.66,50.324 46.78,50.324 34.51,0 45.48,-24.195 47.09,-50.324 h -93.87" /><path
         id="path98"
         style="fill:#231f20;fill-opacity:1;fill-rule:nonzero;stroke:none"
         d="m 5404.26,165.586 c -0.32,10.644 -4.2,28.383 -40,28.383 -8.71,0 -33.55,-2.903 -33.55,-23.871 0,-13.868 8.71,-17.094 30.65,-22.578 l 28.39,-7.094 c 35.15,-8.711 47.41,-21.617 47.41,-44.508 0,-34.8438 -28.7,-55.8086 -66.77,-55.8086 -66.77,0 -71.61,38.6992 -72.58,59.0312 h 27.42 c 0.97,-13.2226 4.84,-34.5117 44.84,-34.5117 20.32,0 38.7,8.0586 38.7,26.7695 0,13.5426 -9.36,18.0546 -33.54,24.1876 l -32.9,8.066 c -23.55,5.805 -39.04,17.739 -39.04,40.961 0,37.098 30.66,53.871 63.88,53.871 60.31,0 64.5,-44.515 64.5,-52.898 h -27.41" /><path
         id="path100"
         style="fill:#231f20;fill-opacity:1;fill-rule:nonzero;stroke:none"
         d="m 5581.67,156.875 c -3.54,22.578 -16.13,36.129 -40,36.129 -35.16,0 -46.45,-33.551 -46.45,-63.547 0,-29.027 7.1,-64.8281 46.13,-64.8281 19.03,0 35.49,14.1797 40.32,39.9881 h 27.41 c -2.89,-26.7654 -19.34,-64.5076 -68.7,-64.5076 -47.41,0 -75.48,35.8086 -75.48,84.5076 0,52.258 25.16,93.867 80.97,93.867 44.19,0 60.97,-32.254 63.21,-61.609 h -27.41" /><path
         id="path102"
         style="fill:#231f20;fill-opacity:1;fill-rule:nonzero;stroke:none"
         d="m 5758.76,97.8516 c -0.97,-12.5782 -16.77,-33.2227 -43.55,-33.2227 -32.57,0 -49.02,20.3125 -49.02,55.4801 h 123.21 c 0,59.668 -23.86,98.375 -72.57,98.375 -55.8,0 -80.96,-41.609 -80.96,-93.867 0,-48.699 28.06,-84.5076 75.47,-84.5076 27.1,0 38.06,6.4531 45.81,11.6094 21.29,14.1992 29.02,38.0585 30,46.1328 z m -92.57,44.8284 c 0,26.129 20.65,50.324 46.77,50.324 34.51,0 45.48,-24.195 47.09,-50.324 h -93.86" /><path
         id="path104"
         style="fill:#231f20;fill-opacity:1;fill-rule:nonzero;stroke:none"
         d="m 5967.14,44.9414 h -28.39 V 148.809 c 0,29.355 -8.38,44.195 -36.12,44.195 -16.13,0 -44.51,-10.324 -44.51,-56.129 V 44.9414 h -28.39 V 213.648 h 26.77 v -23.871 h 0.65 c 6.13,9.032 21.93,28.707 50.96,28.707 26.13,0 59.03,-10.64 59.03,-58.703 V 44.9414" /><path
         id="path106"
         style="fill:#231f20;fill-opacity:1;fill-rule:nonzero;stroke:none"
         d="M 6050.36,190.098 V 80.4297 c 0,-13.2227 11.3,-13.2227 17.1,-13.2227 h 10 V 44.9414 c -10.32,-0.9648 -18.39,-2.2539 -21.29,-2.2539 -28.06,0 -34.2,15.8086 -34.2,36.1211 V 190.098 h -22.89 v 23.55 h 22.89 v 47.094 h 28.39 v -47.094 h 27.1 v -23.55 h -27.1" /><path
         id="path108"
         style="fill:#231f20;fill-opacity:1;fill-rule:nonzero;stroke:none"
         d="m 6351,208.809 c -1.62,35.8 -31.29,47.093 -57.42,47.093 -19.67,0 -52.9,-5.48 -52.9,-40.644 0,-19.676 13.87,-26.125 27.42,-29.356 l 66.12,-15.156 c 30,-7.098 52.58,-25.16 52.58,-61.937 0,-54.8324 -50.97,-69.9926 -90.65,-69.9926 -42.9,0 -59.67,12.9024 -69.99,22.2578 -19.68,17.7344 -23.54,37.0899 -23.54,58.7028 h 29.35 c 0,-41.9254 34.19,-54.1793 63.86,-54.1793 22.59,0 60.65,5.8007 60.65,39.0193 0,24.192 -11.28,31.938 -49.35,40.969 l -47.42,10.969 c -15.16,3.547 -49.36,14.191 -49.36,54.511 0,36.125 23.56,71.61 79.68,71.61 80.97,0 89.03,-48.383 90.32,-73.867 H 6351" /><path
         id="path110"
         style="fill:#231f20;fill-opacity:1;fill-rule:nonzero;stroke:none"
         d="m 6419.71,129.457 c 0,-43.539 24.51,-89.0273 78.38,-89.0273 53.86,0 78.37,45.4883 78.37,89.0273 0,43.547 -24.51,89.027 -78.37,89.027 -53.87,0 -78.38,-45.48 -78.38,-89.027 z m 29.35,0 c 0,22.578 8.38,64.512 49.03,64.512 40.64,0 49.02,-41.934 49.02,-64.512 0,-22.582 -8.38,-64.5156 -49.02,-64.5156 -40.65,0 -49.03,41.9336 -49.03,64.5156" /><path
         id="path112"
         style="fill:#231f20;fill-opacity:1;fill-rule:nonzero;stroke:none"
         d="m 6720.65,156.875 c -3.54,22.578 -16.12,36.129 -39.99,36.129 -35.16,0 -46.45,-33.551 -46.45,-63.547 0,-29.027 7.1,-64.8281 46.12,-64.8281 19.04,0 35.49,14.1797 40.32,39.9881 h 27.43 c -2.91,-26.7654 -19.36,-64.5076 -68.7,-64.5076 -47.43,0 -75.49,35.8086 -75.49,84.5076 0,52.258 25.15,93.867 80.96,93.867 44.19,0 60.97,-32.254 63.23,-61.609 h -27.43" /><path
         id="path114"
         style="fill:#231f20;fill-opacity:1;fill-rule:nonzero;stroke:none"
         d="m 6783.55,244.285 v 32.258 h 28.39 v -32.258 z m 28.39,-199.3436 h -28.39 V 213.648 h 28.39 V 44.9414" /><path
         id="path116"
         style="fill:#231f20;fill-opacity:1;fill-rule:nonzero;stroke:none"
         d="m 6975.8,97.8516 c -0.97,-12.5782 -16.78,-33.2227 -43.54,-33.2227 -32.58,0 -49.04,20.3125 -49.04,55.4801 h 123.23 c 0,59.668 -23.87,98.375 -72.58,98.375 -55.8,0 -80.96,-41.609 -80.96,-93.867 0,-48.699 28.06,-84.5076 75.48,-84.5076 27.09,0 38.06,6.4531 45.8,11.6094 21.29,14.1992 29.03,38.0585 30,46.1328 z m -92.58,44.8284 c 0,26.129 20.66,50.324 46.78,50.324 34.51,0 45.48,-24.195 47.09,-50.324 h -93.87" /><path
         id="path118"
         style="fill:#231f20;fill-opacity:1;fill-rule:nonzero;stroke:none"
         d="M 7081.6,190.098 V 80.4297 c 0,-13.2227 11.29,-13.2227 17.1,-13.2227 h 10 V 44.9414 c -10.32,-0.9648 -18.39,-2.2539 -21.29,-2.2539 -28.05,0 -34.19,15.8086 -34.19,36.1211 V 190.098 h -22.91 v 23.55 h 22.91 v 47.094 h 28.38 v -47.094 h 27.1 v -23.55 h -27.1" /><path
         id="path120"
         style="fill:#231f20;fill-opacity:1;fill-rule:nonzero;stroke:none"
         d="m 7143.54,244.285 v 32.258 h 28.38 v -32.258 z m 28.38,-199.3436 h -28.38 V 213.648 h 28.38 V 44.9414" /><path
         id="path122"
         style="fill:#231f20;fill-opacity:1;fill-rule:nonzero;stroke:none"
         d="m 7335.78,97.8516 c -0.97,-12.5782 -16.78,-33.2227 -43.54,-33.2227 -32.58,0 -49.03,20.3125 -49.03,55.4801 h 123.22 c 0,59.668 -23.87,98.375 -72.58,98.375 -55.8,0 -80.96,-41.609 -80.96,-93.867 0,-48.699 28.07,-84.5076 75.48,-84.5076 27.09,0 38.06,6.4531 45.8,11.6094 21.29,14.1992 29.03,38.0585 30,46.1328 z m -92.57,44.8284 c 0,26.129 20.64,50.324 46.77,50.324 34.51,0 45.48,-24.195 47.09,-50.324 h -93.86" /><path
         id="path124"
         style="fill:#231f20;fill-opacity:1;fill-rule:nonzero;stroke:none"
         d="m 7502.55,165.586 c -0.32,10.644 -4.19,28.383 -39.99,28.383 -8.71,0 -33.56,-2.903 -33.56,-23.871 0,-13.868 8.71,-17.094 30.65,-22.578 l 28.39,-7.094 c 35.15,-8.711 47.42,-21.617 47.42,-44.508 0,-34.8438 -28.71,-55.8086 -66.78,-55.8086 -66.77,0 -71.61,38.6992 -72.58,59.0312 h 27.43 c 0.96,-13.2226 4.83,-34.5117 44.83,-34.5117 20.32,0 38.71,8.0586 38.71,26.7695 0,13.5426 -9.36,18.0546 -33.55,24.1876 l -32.89,8.066 c -23.56,5.805 -39.04,17.739 -39.04,40.961 0,37.098 30.64,53.871 63.87,53.871 60.32,0 64.51,-44.515 64.51,-52.898 h -27.42" /><path
         id="path126"
         style="fill:#ffffff;fill-opacity:1;fill-rule:nonzero;stroke:none"
         d="M 1230,0 H 0 V 705.004 H 1230 V 0" /><path
         id="path128"
         style="fill:#ed1c24;fill-opacity:1;fill-rule:nonzero;stroke:none"
         d="M 311.813,280.961 H 151.797 v 137.16 h 160.016 l -0.012,0.086 V 578.219 H 448.953 V 418.207 l -0.004,-0.066 H 608.965 V 280.992 H 448.949 l 0.004,0.02 V 120.996 H 311.801 v 160.016 l 0.012,-0.051" /><path
         id="path130"
         style="fill:#ed1c24;fill-opacity:1;fill-rule:nonzero;stroke:none"
         d="m 821.156,352.055 c 0,106.562 86.395,192.961 192.954,192.961 23.73,0 46.45,-4.297 67.44,-12.129 -39.46,31.23 -89.331,49.883 -143.57,49.883 -127.878,0 -231.55,-103.665 -231.55,-231.543 0,-127.883 103.672,-231.539 231.55,-231.539 56.047,0 107.45,19.906 147.5,53.042 -22.08,-8.789 -46.15,-13.632 -71.37,-13.632 -106.559,0 -192.954,86.394 -192.954,192.957" /><path
         id="path132"
         style="fill:none;stroke:#ed1c24;stroke-width:20;stroke-linecap:butt;stroke-linejoin:miter;stroke-miterlimit:4;stroke-dasharray:none;stroke-opacity:1"
         d="M 1180.43,47.5586 V 651.801 H 53.7383 V 47.5586 Z" /></g></g></svg>